<?xml version="1.0" encoding="UTF-8"?><svg id="_层_1" xmlns="http://www.w3.org/2000/svg" xmlns:xlink="http://www.w3.org/1999/xlink" viewBox="0 0 1105 615.79"><defs><style>.cls-1,.cls-2,.cls-3,.cls-4,.cls-5,.cls-6{fill:none;}.cls-2{stroke:#9b9c9c;stroke-dasharray:0 0 3.29 3.29;stroke-width:.91px;}.cls-2,.cls-7,.cls-3,.cls-4,.cls-5,.cls-8,.cls-6{stroke-miterlimit:10;}.cls-7,.cls-3{stroke-dasharray:0 4.95;}.cls-7,.cls-3,.cls-6{stroke-width:.51px;}.cls-7,.cls-9,.cls-10,.cls-8{fill:#999;}.cls-7,.cls-5,.cls-8,.cls-6{stroke:#999;}.cls-11{fill:#d9d9d9;}.cls-12{fill:#9b9c9c;}.cls-3{stroke:gray;}.cls-4{stroke:#000;stroke-width:.74px;}.cls-9{font-family:HuaweiSans, 'Huawei Sans';}.cls-9,.cls-10{font-size:14.83px;}.cls-10{font-family:FZLTHJW--GB1-0, FZLanTingHeiS-R-GB;}.cls-5,.cls-8{stroke-dasharray:0 4.19;stroke-width:.52px;}.cls-6{stroke-dasharray:0 4.11;}</style></defs><image width="16000" height="8000" transform="translate(.66 42.47) scale(.06)" xlink:href="../MKT_Tagore KV_HQ_Product KV Guideline_HQ_CN_20250221文件夹(_F)/Links/0221MKT_Tagore_Product KV_横版_CN_HQ_JPG_RGB.jpg"/><rect class="cls-1" x="3.44" y="42.47" width="1003.77" height="501.89"/><line class="cls-2" x1="1009.71" y1="42.47" x2="1042.35" y2="42.47"/><line class="cls-2" x1="1009.71" y1="92.97" x2="1042.35" y2="92.97"/><line class="cls-2" x1="1009.71" y1="143.46" x2="1042.35" y2="143.46"/><line class="cls-2" x1="1009.71" y1="193.96" x2="1042.35" y2="193.96"/><line class="cls-2" x1="1009.71" y1="244.45" x2="1042.35" y2="244.45"/><line class="cls-2" x1="1009.71" y1="294.95" x2="1042.35" y2="294.95"/><line class="cls-2" x1="1009.71" y1="345.44" x2="1042.35" y2="345.44"/><line class="cls-2" x1="1009.71" y1="395.94" x2="1042.35" y2="395.94"/><line class="cls-2" x1="1009.71" y1="446.43" x2="1042.35" y2="446.43"/><line class="cls-2" x1="1009.71" y1="496.93" x2="1042.35" y2="496.93"/><line class="cls-2" x1="1009.71" y1="547.43" x2="1042.35" y2="547.43"/><path class="cls-12" d="M1020.94,465.85h1.86l6.82,10.38c-.05-.94-.08-1.79-.08-2.56v-7.82h1.56v12.58h-1.8l-6.92-10.53c.03,.42,.05,.92,.08,1.5,.02,.58,.03,1.09,.03,1.54v7.49h-1.55v-12.58Z"/><text class="cls-9" transform="translate(1085.38 96)"><tspan x="0" y="0">1N</tspan></text><text class="cls-10" transform="translate(1054.43 301.52)"><tspan x="0" y="0">居中</tspan></text><text class="cls-9" transform="translate(987.62 12.66)"><tspan x="0" y="0">2X</tspan></text><text class="cls-9" transform="translate(1050.59 59.33)"><tspan x="0" y="0">2X</tspan></text><text class="cls-9" transform="translate(1050.59 86.72)"><tspan x="0" y="0">1X</tspan></text><rect class="cls-11" x="979.65" y="42.74" width="30.06" height="30.06"/><rect class="cls-11" x="979.65" y="517.37" width="30.06" height="30.06"/><polyline class="cls-6" points="979.79 69.36 979.79 21.9 1010 21.9 1010 69.36"/><polyline class="cls-6" points="886.94 72.8 1043.3 72.8 1043.3 87.74 886.94 87.74"/><polyline class="cls-6" points="905.13 42.49 1043.29 42.49 1043.29 72.8 905.13 72.8"/><rect class="cls-4" x=".66" y="42.47" width="1009.34" height="504.96"/><line class="cls-3" y1="92.97" x2="1073.88" y2="92.97"/><line class="cls-6" y1="294.95" x2="1047.9" y2="294.95"/><line class="cls-7" x1="71.92" y1="608.64" x2="297.55" y2="608.64"/><line class="cls-7" x1="363.63" y1="608.64" x2="604.27" y2="608.64"/><line class="cls-7" x1="71.92" y1="607.82" x2="71.92" y2="92.96"/><line class="cls-7" x1="604.27" y1="607.82" x2="604.27" y2="92.96"/><text class="cls-9" transform="translate(714.55 584.91)"><tspan x="0" y="0">33% W</tspan></text><text class="cls-9" transform="translate(303.96 611.77)"><tspan x="0" y="0">53% W</tspan></text><line class="cls-8" x1="572.4" y1="581.58" x2="707.52" y2="581.58"/><line class="cls-5" x1="770.77" y1="581.58" x2="904.35" y2="581.58"/><line class="cls-8" x1="572.4" y1="582.59" x2="572.4" y2="269.01"/><line class="cls-5" x1="904.35" y1="582.59" x2="904.35" y2="269.01"/><text class="cls-9" transform="translate(1050.59 537.44)"><tspan x="0" y="0">2X</tspan></text><polyline class="cls-6" points="962.41 517.37 1041.55 517.37 1041.55 547.3 962.41 547.3"/><text class="cls-9" transform="translate(987.62 606.91)"><tspan x="0" y="0">2X</tspan></text><polyline class="cls-6" points="1009.91 507.36 1009.91 586.8 979.65 586.8 979.65 507.36"/></svg>