<?xml version="1.0" encoding="UTF-8"?><svg id="_层_1" xmlns="http://www.w3.org/2000/svg" xmlns:xlink="http://www.w3.org/1999/xlink" viewBox="0 0 1249 680.32"><defs><style>.cls-1,.cls-2,.cls-3,.cls-4,.cls-5,.cls-6{fill:none;}.cls-2{stroke-dasharray:0 4.68;stroke-width:.59px;}.cls-2,.cls-3,.cls-4,.cls-5,.cls-6{stroke-miterlimit:10;}.cls-2,.cls-4,.cls-5{stroke:#999;}.cls-3{stroke:#000;stroke-width:.83px;}.cls-7{fill:#fff;}.cls-8{fill:#d9d9d9;}.cls-9{fill:#9b9c9c;}.cls-4{stroke-dasharray:0 4.59;}.cls-4,.cls-5{stroke-width:.57px;}.cls-10{font-size:17.93px;}.cls-10,.cls-11{fill:#999;font-family:HuaweiSans, 'Huawei Sans';}.cls-5{stroke-dasharray:0 5.53;}.cls-11{font-size:16.57px;}.cls-6{stroke:#9b9c9c;stroke-dasharray:0 0 3.67 3.67;stroke-width:1.02px;}</style></defs><g><image width="16000" height="8000" transform="translate(.74 48.77) scale(.07)" xlink:href="../MKT_Tagore KV_HQ_Product KV Guideline_完整版模板_HQ_EN_20241204/Links/MatePad 11.5&quot;S_Product KV_Horizontal_EN_HQ_JPG_RGB_20240417.jpg"/><rect class="cls-7" x="564.45" y="266.02" width="467.12" height="129.2"/><g><g><path d="M681.81,365.57c-.06-.15-.13-.32-.2-.53-.07-.2-.13-.38-.18-.52,0,.14,.02,.34,.03,.6,0,.26,.01,.5,.01,.73v3.35h-.65v-5.47h.94l1.44,3.43c.22,.51,.37,.92,.45,1.23,.11-.34,.27-.75,.47-1.22l1.47-3.44h.91v5.47h-.7v-3.35c0-.31,.02-.75,.05-1.33-.13,.42-.28,.8-.43,1.16l-1.52,3.53h-.55l-1.53-3.64Z"/><path d="M687.68,366.83h2.16v.57h-2.16v-.57Z"/><path d="M691.03,363.73h1.38c.66,0,1.17,.14,1.52,.41,.35,.27,.52,.67,.52,1.19,0,.36-.08,.68-.25,.95-.16,.27-.4,.48-.69,.63-.3,.15-.64,.22-1.02,.22-.25,0-.5-.03-.75-.09v2.16h-.71v-5.47Zm2.35,2.5c.24-.21,.35-.5,.35-.88s-.12-.64-.35-.8c-.23-.17-.56-.25-1-.25h-.65v2.18c.24,.04,.44,.06,.62,.06,.45,0,.79-.11,1.02-.31Z"/><path d="M698.4,367.2h-2.71c0,.51,.12,.89,.35,1.14,.23,.25,.55,.38,.98,.38,.39,0,.77-.09,1.14-.26l.16,.5c-.2,.1-.42,.18-.65,.24s-.49,.08-.79,.08c-.41,0-.75-.08-1.03-.25-.28-.16-.5-.4-.64-.71s-.22-.68-.22-1.11,.08-.83,.23-1.15c.15-.32,.36-.57,.63-.74,.27-.17,.58-.25,.93-.25s.66,.09,.91,.26c.24,.17,.42,.4,.54,.69,.12,.28,.17,.59,.17,.92v.26Zm-.7-.49c-.02-.37-.12-.65-.28-.84-.17-.19-.39-.28-.66-.28s-.5,.1-.68,.29c-.18,.19-.3,.47-.35,.84h1.98Z"/><path d="M699.36,366.18c0-.38,0-.72-.03-1.03h.64c.01,.09,.03,.19,.04,.32s.02,.23,.03,.31c.2-.22,.42-.39,.64-.52s.49-.19,.79-.19c.4,0,.71,.13,.92,.39,.21,.26,.31,.64,.31,1.15v2.59h-.69v-2.55c0-.67-.25-1.01-.74-1.01-.22,0-.43,.06-.63,.19-.2,.13-.39,.29-.57,.49v2.88h-.7v-3.02Z"/><path d="M704.43,369.05c-.27-.15-.48-.38-.63-.68s-.22-.66-.22-1.1,.08-.83,.24-1.17c.16-.33,.38-.59,.66-.77,.28-.18,.61-.27,.99-.27,.21,0,.42,.03,.64,.08,.21,.05,.4,.12,.55,.21l-.19,.52c-.15-.08-.31-.14-.48-.18-.17-.05-.34-.07-.49-.07-.25,0-.47,.07-.65,.2-.18,.13-.31,.32-.4,.56-.09,.24-.14,.52-.14,.85,0,.5,.11,.87,.31,1.12,.21,.25,.51,.37,.89,.37,.15,0,.31-.02,.46-.06,.15-.04,.32-.1,.49-.17l.15,.5c-.17,.09-.36,.16-.57,.21-.21,.05-.42,.08-.65,.08-.37,0-.69-.08-.96-.23Z"/><path d="M707.45,364.34c-.09-.09-.13-.2-.13-.33s.04-.25,.13-.33,.19-.13,.33-.13,.25,.04,.33,.13,.13,.19,.13,.33-.05,.25-.13,.33-.2,.13-.33,.13-.24-.04-.33-.13Zm-.02,.81h.69v4.05h-.69v-4.05Z"/><path d="M709.58,369.04c-.15-.16-.22-.41-.22-.74v-4.89l.69-.08v4.84c0,.19,.03,.33,.09,.4,.06,.08,.16,.12,.29,.12,.05,0,.12-.01,.22-.04l.1,.53c-.07,.02-.15,.05-.25,.06-.1,.01-.19,.02-.26,.02-.28,0-.5-.08-.65-.24Z"/><path d="M714.04,363.73h1.38c.66,0,1.17,.14,1.52,.41,.35,.27,.52,.67,.52,1.19,0,.36-.08,.68-.25,.95-.16,.27-.4,.48-.69,.63-.3,.15-.64,.22-1.02,.22-.25,0-.5-.03-.75-.09v2.16h-.71v-5.47Zm2.35,2.5c.24-.21,.35-.5,.35-.88s-.12-.64-.35-.8c-.23-.17-.56-.25-1-.25h-.65v2.18c.24,.04,.44,.06,.62,.06,.45,0,.79-.11,1.02-.31Z"/><path d="M718.9,369.03c-.28-.16-.51-.4-.67-.71s-.24-.68-.24-1.11,.08-.81,.24-1.13c.16-.32,.38-.57,.67-.75,.29-.17,.62-.26,1-.26s.69,.09,.98,.26,.51,.42,.66,.73c.16,.32,.24,.69,.24,1.12s-.08,.81-.25,1.13c-.17,.32-.39,.56-.68,.72-.29,.17-.62,.25-.99,.25s-.69-.08-.97-.24Zm1.88-.71c.19-.26,.28-.63,.28-1.1s-.1-.88-.3-1.17-.49-.43-.88-.43-.68,.14-.87,.42c-.19,.28-.29,.66-.29,1.13,0,.32,.05,.6,.14,.83s.23,.41,.41,.53c.18,.12,.4,.19,.66,.19,.38,0,.66-.13,.85-.4Z"/><path d="M722.13,365.15h.72l.76,2.65c.1,.32,.16,.58,.2,.78,.02-.17,.09-.42,.2-.76l.84-2.67h.61l.84,2.67c.11,.34,.17,.6,.2,.76,.02-.19,.08-.45,.17-.78l.78-2.65h.7l-1.29,4.05h-.74l-.81-2.58c-.07-.21-.13-.43-.18-.64-.04,.16-.09,.37-.17,.63l-.81,2.59h-.74l-1.28-4.05Z"/><path d="M731.9,367.2h-2.71c0,.51,.12,.89,.35,1.14,.23,.25,.55,.38,.98,.38,.39,0,.77-.09,1.14-.26l.16,.5c-.2,.1-.42,.18-.65,.24s-.49,.08-.79,.08c-.41,0-.75-.08-1.03-.25-.28-.16-.5-.4-.64-.71s-.22-.68-.22-1.11,.08-.83,.23-1.15c.15-.32,.36-.57,.63-.74,.27-.17,.58-.25,.93-.25s.66,.09,.91,.26c.24,.17,.42,.4,.54,.69,.12,.28,.17,.59,.17,.92v.26Zm-.7-.49c-.02-.37-.12-.65-.28-.84-.17-.19-.39-.28-.66-.28s-.5,.1-.68,.29c-.18,.19-.3,.47-.35,.84h1.98Z"/><path d="M732.86,366.17c0-.23,0-.57-.03-1.02h.64c.01,.11,.03,.25,.04,.41,.01,.16,.02,.29,.03,.38,.11-.18,.22-.33,.32-.45s.23-.22,.37-.3c.14-.08,.31-.12,.49-.12,.13,0,.26,.02,.37,.05l-.1,.62c-.1-.02-.2-.04-.3-.04-.22,0-.42,.06-.59,.19s-.36,.33-.55,.62v2.7h-.7v-3.03Z"/><path d="M738.72,367.2h-2.71c0,.51,.12,.89,.35,1.14,.23,.25,.55,.38,.98,.38,.39,0,.77-.09,1.14-.26l.16,.5c-.2,.1-.42,.18-.65,.24s-.49,.08-.79,.08c-.41,0-.75-.08-1.03-.25-.28-.16-.5-.4-.64-.71s-.22-.68-.22-1.11,.08-.83,.23-1.15c.15-.32,.36-.57,.63-.74,.27-.17,.58-.25,.93-.25s.66,.09,.91,.26c.24,.17,.42,.4,.54,.69,.12,.28,.17,.59,.17,.92v.26Zm-.7-.49c-.02-.37-.12-.65-.28-.84-.17-.19-.39-.28-.66-.28s-.5,.1-.68,.29c-.18,.19-.3,.47-.35,.84h1.98Z"/><path d="M742.27,369.2c-.03-.16-.05-.32-.07-.51-.16,.18-.34,.32-.55,.42-.21,.11-.45,.16-.71,.16-.28,0-.54-.07-.77-.2s-.42-.35-.56-.64-.21-.67-.21-1.12,.07-.85,.22-1.19c.15-.34,.36-.6,.64-.78,.28-.18,.61-.27,1-.27,.15,0,.31,.02,.48,.05,.16,.03,.31,.07,.44,.11v-1.81l.69-.08v4.84c0,.33,0,.67,.03,1.02h-.63Zm-.56-.65c.2-.11,.35-.23,.47-.38v-2.42c-.14-.04-.28-.08-.44-.11-.16-.03-.3-.04-.42-.04-.25,0-.46,.06-.64,.19-.18,.13-.32,.32-.42,.57-.1,.25-.15,.56-.15,.92,0,.5,.09,.86,.27,1.08,.18,.23,.41,.34,.7,.34,.22,0,.43-.05,.63-.16Z"/><path d="M749.25,365.28c.23,.14,.42,.35,.56,.65,.14,.3,.22,.68,.22,1.14s-.07,.85-.22,1.18c-.15,.33-.37,.59-.66,.77-.29,.18-.64,.27-1.06,.27-.22,0-.48-.02-.77-.07-.29-.05-.54-.11-.76-.19v-5.61l.7-.08v2.3c.37-.38,.78-.57,1.24-.57,.28,0,.53,.07,.76,.21Zm-.26,3.05c.21-.28,.31-.68,.31-1.22s-.09-.89-.27-1.12c-.18-.23-.42-.35-.72-.35-.21,0-.41,.05-.59,.15-.18,.1-.34,.22-.49,.37v2.45c.13,.05,.26,.08,.4,.1,.14,.02,.27,.03,.4,.03,.42,0,.74-.14,.95-.42Z"/><path d="M750.19,370.8l.13-.54c.05,.01,.13,.03,.23,.05,.1,.02,.19,.03,.28,.03,.23,0,.42-.08,.58-.24,.16-.16,.3-.4,.42-.7l.08-.2-1.53-4.04h.75l.85,2.43c.14,.42,.24,.73,.28,.94,.09-.29,.18-.59,.29-.91l.84-2.46h.73l-1.56,4.17c-.14,.38-.28,.68-.43,.9s-.32,.4-.53,.51c-.2,.12-.45,.17-.74,.17-.25,0-.48-.04-.67-.11Z"/><path d="M757.31,363.73h.81l2.96,4.51c-.02-.41-.03-.78-.03-1.11v-3.4h.68v5.47h-.78l-3.01-4.58c.01,.18,.02,.4,.03,.65,0,.25,.01,.47,.01,.67v3.26h-.67v-5.47Z"/><path d="M766.22,367.2h-2.71c0,.51,.12,.89,.35,1.14,.23,.25,.55,.38,.98,.38,.39,0,.77-.09,1.14-.26l.16,.5c-.2,.1-.42,.18-.65,.24s-.49,.08-.79,.08c-.41,0-.75-.08-1.03-.25-.28-.16-.5-.4-.64-.71-.14-.31-.22-.68-.22-1.11s.08-.83,.23-1.15c.15-.32,.36-.57,.63-.74,.27-.17,.58-.25,.93-.25s.66,.09,.91,.26c.24,.17,.42,.4,.54,.69,.12,.28,.17,.59,.17,.92v.26Zm-.7-.49c-.02-.37-.12-.65-.28-.84-.17-.19-.39-.28-.66-.28s-.5,.1-.68,.29c-.18,.19-.3,.47-.35,.84h1.98Z"/><path d="M769.6,369.2c-.03-.13-.05-.31-.06-.56-.15,.18-.35,.33-.59,.45-.24,.12-.51,.18-.81,.18-.23,0-.44-.05-.63-.14-.19-.09-.33-.23-.44-.4-.11-.18-.16-.4-.16-.65,0-.39,.14-.7,.42-.94,.28-.24,.75-.35,1.4-.35,.25,0,.51,.02,.78,.05v-.1c0-.42-.08-.71-.25-.88-.17-.17-.41-.25-.71-.25-.2,0-.41,.03-.63,.09s-.41,.13-.58,.21l-.12-.53c.15-.07,.35-.14,.61-.21,.26-.06,.53-.1,.82-.1,.33,0,.61,.05,.83,.16,.23,.11,.4,.29,.53,.55,.13,.26,.19,.61,.19,1.05v1.6c0,.17,0,.42,.03,.77h-.64Zm-.61-.64c.23-.11,.4-.25,.53-.41v-.88c-.25-.03-.49-.04-.7-.04-.45,0-.76,.07-.94,.22-.17,.15-.26,.34-.26,.59,0,.23,.06,.41,.19,.52,.13,.11,.29,.17,.51,.17,.23,0,.45-.06,.68-.17Z"/><path d="M771.45,366.17c0-.23,0-.57-.03-1.02h.64c.01,.11,.03,.25,.04,.41,.01,.16,.02,.29,.03,.38,.11-.18,.22-.33,.32-.45s.23-.22,.37-.3c.14-.08,.31-.12,.49-.12,.13,0,.26,.02,.37,.05l-.1,.62c-.1-.02-.2-.04-.3-.04-.22,0-.42,.06-.59,.19s-.36,.33-.55,.62v2.7h-.7v-3.03Z"/><path d="M774.47,363.73h.71v4.83h2.37l-.08,.64h-3v-5.47Z"/><path d="M778.33,364.34c-.09-.09-.13-.2-.13-.33s.04-.25,.13-.33,.19-.13,.33-.13,.25,.04,.33,.13,.13,.19,.13,.33-.05,.25-.13,.33-.2,.13-.33,.13-.24-.04-.33-.13Zm-.02,.81h.69v4.05h-.69v-4.05Z"/><path d="M780.27,366.18c0-.38,0-.72-.03-1.03h.64c.01,.09,.03,.19,.04,.32s.02,.23,.03,.31c.2-.22,.42-.39,.64-.52,.22-.13,.49-.19,.79-.19,.4,0,.71,.13,.92,.39,.21,.26,.31,.64,.31,1.15v2.59h-.69v-2.55c0-.67-.25-1.01-.74-1.01-.22,0-.43,.06-.63,.19-.2,.13-.39,.29-.57,.49v2.88h-.7v-3.02Z"/><path d="M784.8,363.41l.69-.08v3.72l1.77-1.91h.79l-1.59,1.69,1.75,2.36h-.83l-1.39-1.92-.5,.43v1.5h-.69v-5.79Z"/><path d="M788.46,366.33l.34-.31c.32-.3,.56-.53,.72-.7,.16-.17,.28-.33,.37-.49,.09-.16,.13-.32,.13-.49,0-.2-.06-.35-.17-.45-.11-.1-.26-.15-.44-.15-.14,0-.28,.03-.4,.09s-.25,.15-.36,.27l-.16-.31c.12-.12,.25-.22,.42-.29,.16-.07,.35-.1,.55-.1,.18,0,.34,.03,.49,.1,.15,.07,.27,.17,.36,.31s.13,.31,.13,.5-.05,.38-.15,.56c-.1,.18-.23,.36-.4,.54-.17,.18-.41,.41-.71,.69l-.19,.17h1.59l-.04,.35h-2.07v-.3Z"/><path d="M793.84,363.41h.54v7.42h-.54v-7.42Z"/><path d="M798.22,363.73h1.65c.6,0,1.11,.1,1.53,.29,.42,.19,.75,.48,.97,.87,.23,.38,.34,.85,.34,1.41s-.12,1.07-.35,1.51-.57,.78-1,1.03-.95,.37-1.55,.37h-1.59v-5.47Zm1.53,4.88c.48,0,.89-.1,1.22-.29,.33-.19,.58-.46,.75-.8,.16-.34,.25-.74,.25-1.2,0-.67-.18-1.17-.54-1.5-.36-.34-.91-.51-1.63-.51h-.86v4.3h.82Z"/><path d="M806.82,367.2h-2.71c0,.51,.12,.89,.35,1.14,.23,.25,.55,.38,.98,.38,.39,0,.77-.09,1.14-.26l.16,.5c-.2,.1-.42,.18-.65,.24s-.49,.08-.79,.08c-.41,0-.75-.08-1.03-.25-.28-.16-.5-.4-.64-.71-.14-.31-.22-.68-.22-1.11s.08-.83,.23-1.15c.15-.32,.36-.57,.63-.74,.27-.17,.58-.25,.93-.25s.66,.09,.91,.26c.24,.17,.42,.4,.54,.69,.12,.28,.17,.59,.17,.92v.26Zm-.7-.49c-.02-.37-.12-.65-.28-.84-.17-.19-.39-.28-.66-.28s-.5,.1-.68,.29c-.18,.19-.3,.47-.35,.84h1.98Z"/><path d="M808.17,368.98c-.19-.2-.29-.52-.29-.98v-2.31h-.54l.09-.47,.46-.07,.05-.94,.61-.1v1.04h1.21l-.09,.54h-1.11v2.25c0,.27,.05,.47,.15,.59s.26,.18,.47,.18c.16,0,.35-.04,.58-.12l.12,.49c-.12,.06-.25,.1-.4,.14-.15,.04-.32,.06-.49,.06-.36,0-.64-.1-.83-.29Z"/><path d="M813.01,369.2c-.03-.13-.05-.31-.06-.56-.15,.18-.35,.33-.59,.45-.24,.12-.51,.18-.81,.18-.23,0-.44-.05-.63-.14-.19-.09-.33-.23-.44-.4-.11-.18-.16-.4-.16-.65,0-.39,.14-.7,.42-.94,.28-.24,.75-.35,1.4-.35,.25,0,.51,.02,.78,.05v-.1c0-.42-.08-.71-.25-.88-.17-.17-.41-.25-.71-.25-.2,0-.41,.03-.63,.09s-.41,.13-.58,.21l-.12-.53c.15-.07,.35-.14,.61-.21,.26-.06,.53-.1,.82-.1,.33,0,.61,.05,.83,.16,.23,.11,.4,.29,.53,.55,.13,.26,.19,.61,.19,1.05v1.6c0,.17,0,.42,.03,.77h-.64Zm-.61-.64c.23-.11,.4-.25,.53-.41v-.88c-.25-.03-.49-.04-.7-.04-.45,0-.76,.07-.94,.22-.17,.15-.26,.34-.26,.59,0,.23,.06,.41,.19,.52,.13,.11,.29,.17,.51,.17,.23,0,.45-.06,.68-.17Z"/><path d="M815.42,369.05c-.27-.15-.48-.38-.63-.68-.15-.3-.22-.66-.22-1.1s.08-.83,.24-1.17c.16-.33,.38-.59,.66-.77,.28-.18,.61-.27,.99-.27,.21,0,.42,.03,.64,.08s.4,.12,.55,.21l-.19,.52c-.15-.08-.31-.14-.48-.18-.17-.05-.34-.07-.49-.07-.25,0-.47,.07-.65,.2-.18,.13-.31,.32-.4,.56-.09,.24-.14,.52-.14,.85,0,.5,.11,.87,.31,1.12,.21,.25,.51,.37,.89,.37,.15,0,.31-.02,.46-.06,.15-.04,.32-.1,.49-.17l.15,.5c-.17,.09-.36,.16-.57,.21-.21,.05-.42,.08-.65,.08-.37,0-.69-.08-.96-.23Z"/><path d="M821.43,365.45c.21,.25,.32,.63,.32,1.13v2.62h-.69v-2.56c0-.35-.06-.61-.19-.76s-.32-.24-.56-.24c-.4,0-.79,.22-1.19,.66v2.9h-.69v-5.79l.69-.08v2.43c.19-.2,.4-.37,.62-.5,.22-.13,.48-.2,.77-.2,.41,0,.72,.13,.93,.38Z"/><path d="M825.36,369.2c-.03-.13-.05-.31-.06-.56-.15,.18-.35,.33-.59,.45-.24,.12-.51,.18-.81,.18-.23,0-.44-.05-.63-.14-.19-.09-.33-.23-.44-.4-.11-.18-.16-.4-.16-.65,0-.39,.14-.7,.42-.94,.28-.24,.75-.35,1.4-.35,.25,0,.51,.02,.78,.05v-.1c0-.42-.08-.71-.25-.88-.17-.17-.41-.25-.71-.25-.2,0-.41,.03-.63,.09s-.41,.13-.58,.21l-.12-.53c.15-.07,.35-.14,.61-.21,.26-.06,.53-.1,.82-.1,.33,0,.61,.05,.83,.16,.23,.11,.4,.29,.53,.55,.13,.26,.19,.61,.19,1.05v1.6c0,.17,0,.42,.03,.77h-.64Zm-.61-.64c.23-.11,.4-.25,.53-.41v-.88c-.25-.03-.49-.04-.7-.04-.45,0-.76,.07-.94,.22-.17,.15-.26,.34-.26,.59,0,.23,.06,.41,.19,.52,.13,.11,.29,.17,.51,.17,.23,0,.45-.06,.68-.17Z"/><path d="M829.92,365.28c.23,.14,.42,.35,.56,.65,.14,.3,.22,.68,.22,1.14s-.07,.85-.22,1.18c-.15,.33-.37,.59-.66,.77-.29,.18-.64,.27-1.06,.27-.22,0-.48-.02-.77-.07-.29-.05-.54-.11-.76-.19v-5.61l.7-.08v2.3c.37-.38,.78-.57,1.24-.57,.28,0,.53,.07,.76,.21Zm-.26,3.05c.21-.28,.31-.68,.31-1.22s-.09-.89-.27-1.12c-.18-.23-.42-.35-.72-.35-.21,0-.41,.05-.59,.15-.18,.1-.34,.22-.49,.37v2.45c.13,.05,.26,.08,.4,.1,.14,.02,.27,.03,.4,.03,.42,0,.74-.14,.95-.42Z"/><path d="M831.85,369.04c-.15-.16-.22-.41-.22-.74v-4.89l.69-.08v4.84c0,.19,.03,.33,.09,.4,.06,.08,.16,.12,.29,.12,.05,0,.12-.01,.22-.04l.1,.53c-.07,.02-.15,.05-.25,.06-.1,.01-.19,.02-.26,.02-.28,0-.5-.08-.65-.24Z"/><path d="M836.9,367.2h-2.71c0,.51,.12,.89,.35,1.14,.23,.25,.55,.38,.98,.38,.39,0,.77-.09,1.14-.26l.16,.5c-.2,.1-.42,.18-.65,.24s-.49,.08-.79,.08c-.41,0-.75-.08-1.03-.25-.28-.16-.5-.4-.64-.71-.14-.31-.22-.68-.22-1.11s.08-.83,.23-1.15c.15-.32,.36-.57,.63-.74,.27-.17,.58-.25,.93-.25s.66,.09,.91,.26c.24,.17,.42,.4,.54,.69,.12,.28,.17,.59,.17,.92v.26Zm-.7-.49c-.02-.37-.12-.65-.28-.84-.17-.19-.39-.28-.66-.28s-.5,.1-.68,.29c-.18,.19-.3,.47-.35,.84h1.98Z"/><path d="M840.39,363.73h.71v2.88c.23-.28,.41-.51,.54-.67l1.73-2.21h.82l-1.97,2.44,2.13,3.03h-.83l-1.76-2.54-.67,.7v1.84h-.71v-5.47Z"/><path d="M848.1,367.2h-2.71c0,.51,.12,.89,.35,1.14,.23,.25,.55,.38,.98,.38,.39,0,.77-.09,1.14-.26l.16,.5c-.2,.1-.42,.18-.65,.24s-.49,.08-.79,.08c-.41,0-.75-.08-1.03-.25-.28-.16-.5-.4-.64-.71s-.22-.68-.22-1.11,.08-.83,.23-1.15c.15-.32,.36-.57,.63-.74,.27-.17,.58-.25,.93-.25s.66,.09,.91,.26c.24,.17,.42,.4,.54,.69,.12,.28,.17,.59,.17,.92v.26Zm-.7-.49c-.02-.37-.12-.65-.28-.84-.17-.19-.39-.28-.66-.28s-.5,.1-.68,.29c-.18,.19-.3,.47-.35,.84h1.98Z"/><path d="M848.28,370.8l.13-.54c.05,.01,.13,.03,.23,.05,.1,.02,.19,.03,.28,.03,.23,0,.42-.08,.58-.24,.16-.16,.3-.4,.42-.7l.08-.2-1.53-4.04h.75l.85,2.43c.14,.42,.24,.73,.28,.94,.09-.29,.18-.59,.29-.91l.84-2.46h.73l-1.56,4.17c-.14,.38-.28,.68-.43,.9s-.32,.4-.53,.51c-.2,.12-.45,.17-.74,.17-.25,0-.48-.04-.67-.11Z"/><path d="M855.58,365.28c.23,.14,.42,.35,.56,.65,.14,.3,.22,.68,.22,1.14s-.07,.85-.22,1.18c-.15,.33-.37,.59-.66,.77-.29,.18-.64,.27-1.06,.27-.22,0-.48-.02-.77-.07-.29-.05-.54-.11-.76-.19v-5.61l.7-.08v2.3c.37-.38,.78-.57,1.24-.57,.28,0,.53,.07,.76,.21Zm-.26,3.05c.21-.28,.31-.68,.31-1.22s-.09-.89-.27-1.12c-.18-.23-.42-.35-.72-.35-.21,0-.41,.05-.59,.15-.18,.1-.34,.22-.49,.37v2.45c.13,.05,.26,.08,.4,.1,.14,.02,.27,.03,.4,.03,.42,0,.74-.14,.95-.42Z"/><path d="M857.93,369.03c-.28-.16-.51-.4-.67-.71-.16-.31-.24-.68-.24-1.11s.08-.81,.24-1.13c.16-.32,.38-.57,.67-.75,.29-.17,.62-.26,1-.26s.69,.09,.98,.26,.51,.42,.66,.73c.16,.32,.24,.69,.24,1.12s-.08,.81-.25,1.13c-.17,.32-.39,.56-.68,.72-.29,.17-.62,.25-.99,.25s-.69-.08-.97-.24Zm1.88-.71c.19-.26,.28-.63,.28-1.1s-.1-.88-.3-1.17-.49-.43-.88-.43-.68,.14-.87,.42c-.19,.28-.29,.66-.29,1.13,0,.32,.05,.6,.14,.83s.23,.41,.41,.53c.18,.12,.4,.19,.66,.19,.38,0,.66-.13,.85-.4Z"/><path d="M864.2,369.2c-.03-.13-.05-.31-.06-.56-.15,.18-.35,.33-.59,.45-.24,.12-.51,.18-.81,.18-.23,0-.44-.05-.63-.14-.19-.09-.33-.23-.44-.4-.11-.18-.16-.4-.16-.65,0-.39,.14-.7,.42-.94,.28-.24,.75-.35,1.4-.35,.25,0,.51,.02,.78,.05v-.1c0-.42-.08-.71-.25-.88-.17-.17-.41-.25-.71-.25-.2,0-.41,.03-.63,.09s-.41,.13-.58,.21l-.12-.53c.15-.07,.35-.14,.61-.21,.26-.06,.53-.1,.82-.1,.33,0,.61,.05,.83,.16,.23,.11,.4,.29,.53,.55,.13,.26,.19,.61,.19,1.05v1.6c0,.17,0,.42,.03,.77h-.64Zm-.61-.64c.23-.11,.4-.25,.53-.41v-.88c-.25-.03-.49-.04-.7-.04-.45,0-.76,.07-.94,.22-.17,.15-.26,.34-.26,.59,0,.23,.06,.41,.19,.52,.13,.11,.29,.17,.51,.17,.23,0,.45-.06,.68-.17Z"/><path d="M866.05,366.17c0-.23,0-.57-.03-1.02h.64c.01,.11,.03,.25,.04,.41,.01,.16,.02,.29,.03,.38,.11-.18,.22-.33,.32-.45s.23-.22,.37-.3c.14-.08,.31-.12,.49-.12,.13,0,.26,.02,.37,.05l-.1,.62c-.1-.02-.2-.04-.3-.04-.22,0-.42,.06-.59,.19s-.36,.33-.55,.62v2.7h-.7v-3.03Z"/><path d="M871.38,369.2c-.03-.16-.05-.32-.07-.51-.16,.18-.34,.32-.55,.42-.21,.11-.45,.16-.71,.16-.28,0-.54-.07-.77-.2s-.42-.35-.56-.64-.21-.67-.21-1.12,.07-.85,.22-1.19c.15-.34,.36-.6,.64-.78,.28-.18,.61-.27,1-.27,.15,0,.31,.02,.48,.05,.16,.03,.31,.07,.44,.11v-1.81l.69-.08v4.84c0,.33,0,.67,.03,1.02h-.63Zm-.56-.65c.2-.11,.35-.23,.47-.38v-2.42c-.14-.04-.28-.08-.44-.11-.16-.03-.3-.04-.42-.04-.25,0-.46,.06-.64,.19-.18,.13-.32,.32-.42,.57-.1,.25-.15,.56-.15,.92,0,.5,.09,.86,.27,1.08,.18,.23,.41,.34,.7,.34,.22,0,.43-.05,.63-.16Z"/><path d="M875.68,363.41h.54v7.42h-.54v-7.42Z"/><path d="M880.05,363.73h.71v2.33h2.94v-2.33h.71v5.47h-.71v-2.54h-2.94v2.54h-.71v-5.47Z"/><path d="M886.85,369.05c-.32-.15-.57-.38-.74-.67s-.26-.64-.26-1.05v-3.59h.7v3.45c0,.49,.12,.86,.36,1.11,.24,.25,.6,.38,1.08,.38s.85-.13,1.07-.39c.23-.26,.34-.63,.34-1.12v-3.43h.7v3.58c0,.41-.09,.77-.26,1.06-.17,.29-.41,.52-.73,.67-.32,.15-.69,.23-1.13,.23s-.82-.08-1.14-.23Z"/><path d="M894.42,367.61h-2.33l-.6,1.59h-.75l2.19-5.47h.65l2.24,5.47h-.77l-.62-1.59Zm-2.11-.58h1.88l-.68-1.75c-.06-.15-.14-.35-.23-.62l-.04-.13c-.07,.23-.15,.47-.25,.73l-.68,1.76Z"/><path d="M895.78,363.73h.75l.94,3.43c.12,.43,.21,.81,.25,1.14,.11-.45,.22-.87,.33-1.26l.97-3.31h.73l1.02,3.37c.15,.47,.25,.87,.29,1.2,.03-.16,.07-.33,.12-.5,.04-.18,.09-.36,.15-.55,0,0,0-.03,.02-.07l.93-3.45h.72l-1.55,5.47h-.73l-.97-3.22c-.09-.28-.16-.53-.21-.75s-.11-.44-.16-.68c-.12,.5-.24,.96-.37,1.39l-.95,3.26h-.73l-1.56-5.47Z"/><path d="M903.89,363.73h3.12l-.09,.61h-2.31v1.74h2.19v.59h-2.19v1.92h2.43l-.08,.62h-3.06v-5.47Z"/><path d="M908.13,363.73h.71v5.47h-.71v-5.47Z"/><path d="M912.74,363.73h.81l2.96,4.51c-.02-.41-.03-.78-.03-1.11v-3.4h.68v5.47h-.78l-3.01-4.58c.01,.18,.02,.4,.03,.65,0,.25,.01,.47,.01,.67v3.26h-.67v-5.47Z"/><path d="M919.14,369.03c-.28-.16-.51-.4-.67-.71s-.24-.68-.24-1.11,.08-.81,.24-1.13c.16-.32,.38-.57,.67-.75,.29-.17,.62-.26,1-.26s.69,.09,.98,.26,.51,.42,.66,.73c.16,.32,.24,.69,.24,1.12s-.08,.81-.25,1.13c-.17,.32-.39,.56-.68,.72-.29,.17-.62,.25-.99,.25s-.69-.08-.97-.24Zm1.88-.71c.19-.26,.28-.63,.28-1.1s-.1-.88-.3-1.17c-.2-.29-.49-.43-.88-.43s-.68,.14-.87,.42c-.19,.28-.29,.66-.29,1.13,0,.32,.05,.6,.14,.83s.23,.41,.41,.53c.18,.12,.4,.19,.66,.19,.38,0,.66-.13,.85-.4Z"/><path d="M923.38,368.98c-.19-.2-.29-.52-.29-.98v-2.31h-.54l.09-.47,.46-.07,.05-.94,.61-.1v1.04h1.21l-.09,.54h-1.11v2.25c0,.27,.05,.47,.15,.59s.26,.18,.47,.18c.16,0,.35-.04,.58-.12l.12,.49c-.12,.06-.25,.1-.4,.14-.15,.04-.32,.06-.49,.06-.36,0-.64-.1-.83-.29Z"/><path d="M928.91,367.2h-2.71c0,.51,.12,.89,.35,1.14,.23,.25,.55,.38,.98,.38,.39,0,.77-.09,1.14-.26l.16,.5c-.2,.1-.42,.18-.65,.24s-.49,.08-.79,.08c-.41,0-.75-.08-1.03-.25-.28-.16-.5-.4-.64-.71s-.22-.68-.22-1.11,.08-.83,.23-1.15c.15-.32,.36-.57,.63-.74,.27-.17,.58-.25,.93-.25s.66,.09,.91,.26c.24,.17,.42,.4,.54,.69,.12,.28,.17,.59,.17,.92v.26Zm-.7-.49c-.02-.37-.12-.65-.28-.84-.17-.19-.39-.28-.66-.28s-.5,.1-.68,.29c-.18,.19-.3,.47-.35,.84h1.98Z"/><path d="M930.05,369.21c-.21-.05-.39-.11-.54-.18l.17-.52c.14,.07,.3,.12,.49,.17,.19,.04,.38,.07,.56,.07,.29,0,.51-.06,.65-.17,.15-.11,.22-.27,.22-.47,0-.12-.03-.23-.1-.31-.07-.09-.16-.16-.29-.22-.13-.06-.31-.14-.56-.24-.24-.1-.44-.19-.59-.29-.15-.1-.27-.22-.36-.36-.09-.14-.13-.32-.13-.52,0-.22,.05-.41,.16-.58,.1-.16,.26-.29,.46-.38,.2-.09,.44-.13,.73-.13,.41,0,.81,.09,1.2,.28l-.14,.5c-.17-.08-.34-.14-.52-.19-.18-.04-.35-.07-.51-.07-.23,0-.4,.05-.53,.14-.12,.09-.19,.21-.19,.36,0,.11,.03,.2,.1,.27s.15,.14,.27,.2c.11,.06,.29,.13,.53,.23,.26,.11,.46,.21,.61,.29,.15,.09,.28,.21,.38,.36s.15,.35,.15,.58c0,.25-.06,.47-.18,.66-.12,.19-.3,.33-.53,.44-.23,.11-.51,.16-.84,.16-.23,0-.45-.02-.66-.07Z"/></g><g><path d="M591.35,291.85h5.18c2.5,0,4.41,.51,5.73,1.54s1.98,2.52,1.98,4.47c0,1.36-.31,2.54-.93,3.56-.62,1.02-1.49,1.81-2.61,2.36-1.12,.55-2.4,.83-3.84,.83-.94,0-1.88-.11-2.83-.33v8.15h-2.67v-20.59Zm8.87,9.42c.89-.79,1.33-1.89,1.33-3.31s-.43-2.4-1.3-3.03c-.87-.63-2.13-.94-3.78-.94h-2.44v8.22c.89,.16,1.67,.24,2.33,.24,1.69,0,2.97-.4,3.86-1.19Z"/><path d="M616.29,312.44c-.1-.47-.18-1.18-.23-2.12-.57,.67-1.31,1.24-2.23,1.71-.91,.46-1.93,.7-3.04,.7-.88,0-1.67-.17-2.37-.51-.7-.34-1.26-.85-1.66-1.52-.41-.67-.61-1.49-.61-2.46,0-1.47,.53-2.65,1.59-3.53,1.06-.89,2.82-1.33,5.29-1.33,.94,0,1.92,.07,2.94,.2v-.38c0-1.57-.32-2.68-.95-3.31-.64-.64-1.53-.95-2.67-.95-.76,0-1.55,.11-2.37,.33-.82,.22-1.55,.48-2.18,.78l-.46-2.01c.56-.27,1.33-.53,2.31-.77,.98-.24,2.01-.36,3.08-.36,1.23,0,2.28,.2,3.14,.61,.86,.41,1.53,1.1,2.01,2.08,.48,.98,.72,2.29,.72,3.95v6.03c0,.64,.04,1.6,.11,2.89h-2.42Zm-2.31-2.4c.85-.42,1.52-.93,2-1.53v-3.3c-.95-.1-1.82-.16-2.63-.16-1.7,0-2.87,.27-3.53,.82-.66,.55-.99,1.29-.99,2.22,0,.88,.23,1.53,.7,1.95,.47,.42,1.1,.63,1.9,.63,.85,0,1.7-.21,2.55-.63Z"/><path d="M623.27,300.85c0-1.35-.04-2.57-.11-3.67h2.43c.12,.71,.2,1.33,.24,1.86,.64-.64,1.37-1.17,2.16-1.56,.8-.4,1.66-.6,2.6-.6,1.03,0,1.98,.26,2.85,.78s1.57,1.34,2.11,2.47c.54,1.12,.81,2.55,.81,4.29s-.29,3.24-.86,4.49c-.57,1.25-1.39,2.2-2.45,2.85-1.06,.65-2.3,.98-3.73,.98-.62,0-1.22-.06-1.82-.18-.6-.12-1.13-.27-1.61-.46v6.46l-2.63,.3v-18Zm9.19,8.26c.79-1.05,1.19-2.58,1.19-4.59s-.34-3.32-1.02-4.19c-.68-.87-1.58-1.3-2.7-1.3-1.44,0-2.78,.66-4.02,1.98v9.03c.43,.21,.9,.37,1.44,.48s1.07,.17,1.61,.17c1.55,0,2.73-.53,3.52-1.58Z"/><path d="M651.72,304.9h-10.19c.02,1.91,.45,3.33,1.3,4.29,.85,.95,2.07,1.43,3.68,1.43,1.47,0,2.91-.33,4.31-.98l.61,1.88c-.77,.39-1.58,.69-2.44,.9s-1.86,.31-2.99,.31c-1.53,0-2.82-.31-3.89-.92-1.07-.62-1.87-1.5-2.42-2.67-.54-1.16-.82-2.56-.82-4.19s.28-3.12,.85-4.34c.57-1.21,1.36-2.14,2.38-2.77,1.02-.64,2.19-.95,3.52-.95s2.5,.33,3.42,.98c.91,.65,1.59,1.51,2.03,2.58,.44,1.07,.65,2.23,.65,3.48v.98Zm-2.63-1.85c-.09-1.4-.45-2.46-1.07-3.16-.62-.71-1.45-1.06-2.5-1.06s-1.89,.36-2.57,1.07-1.12,1.77-1.31,3.15h7.45Z"/><path d="M655.33,301.02c0-.85-.04-2.13-.11-3.84h2.42c.06,.43,.11,.94,.16,1.54,.05,.6,.08,1.08,.1,1.43,.42-.67,.82-1.24,1.22-1.71,.4-.47,.87-.84,1.41-1.13,.54-.29,1.16-.43,1.85-.43,.51,0,.98,.06,1.39,.18l-.37,2.32c-.36-.1-.74-.14-1.14-.14-.84,0-1.59,.24-2.23,.72-.64,.48-1.34,1.25-2.08,2.32v10.15h-2.62v-11.42Z"/><path d="M670.43,298.76c-.24-.56-.49-1.22-.76-1.98-.27-.76-.49-1.42-.66-1.97,.04,.53,.07,1.28,.1,2.25s.04,1.89,.04,2.76v12.63h-2.46v-20.59h3.53l5.42,12.91c.82,1.93,1.37,3.48,1.68,4.64,.42-1.28,1.01-2.81,1.78-4.59l5.53-12.95h3.44v20.59h-2.64v-12.63c0-1.17,.07-2.83,.2-5-.5,1.57-1.05,3.03-1.63,4.36l-5.72,13.29h-2.09l-5.74-13.71Z"/><path d="M702.36,312.44c-.1-.47-.18-1.18-.23-2.12-.57,.67-1.31,1.24-2.23,1.71s-1.93,.7-3.04,.7c-.88,0-1.67-.17-2.37-.51-.7-.34-1.26-.85-1.66-1.52-.41-.67-.61-1.49-.61-2.46,0-1.47,.53-2.65,1.59-3.53,1.06-.89,2.82-1.33,5.29-1.33,.94,0,1.92,.07,2.94,.2v-.38c0-1.57-.32-2.68-.95-3.31-.64-.64-1.53-.95-2.67-.95-.76,0-1.55,.11-2.37,.33-.82,.22-1.55,.48-2.18,.78l-.46-2.01c.56-.27,1.33-.53,2.31-.77,.98-.24,2.01-.36,3.08-.36,1.23,0,2.28,.2,3.14,.61s1.53,1.1,2.01,2.08c.48,.98,.72,2.29,.72,3.95v6.03c0,.64,.04,1.6,.11,2.89h-2.42Zm-2.31-2.4c.85-.42,1.52-.93,2-1.53v-3.3c-.95-.1-1.82-.16-2.63-.16-1.7,0-2.87,.27-3.53,.82-.66,.55-.99,1.29-.99,2.22,0,.88,.23,1.53,.7,1.95,.47,.42,1.1,.63,1.9,.63,.85,0,1.7-.21,2.55-.63Z"/><path d="M710.83,311.61c-.73-.74-1.09-1.97-1.09-3.68v-8.72h-2.02l.36-1.78,1.75-.26,.2-3.54,2.3-.37v3.91h4.55l-.36,2.03h-4.19v8.46c0,1.02,.19,1.75,.57,2.22s.97,.7,1.78,.7c.6,0,1.33-.15,2.19-.44l.45,1.83c-.44,.21-.94,.38-1.51,.53-.57,.14-1.18,.21-1.85,.21-1.37,0-2.41-.37-3.14-1.11Z"/><path d="M721.14,311.61c-.73-.74-1.09-1.97-1.09-3.68v-8.72h-2.02l.36-1.78,1.75-.26,.2-3.54,2.3-.37v3.91h4.55l-.36,2.03h-4.19v8.46c0,1.02,.19,1.75,.57,2.22,.38,.46,.97,.7,1.78,.7,.6,0,1.33-.15,2.19-.44l.45,1.83c-.44,.21-.94,.38-1.51,.53-.57,.14-1.18,.21-1.85,.21-1.37,0-2.41-.37-3.14-1.11Z"/><path d="M741.98,304.9h-10.19c.02,1.91,.45,3.33,1.3,4.29,.85,.95,2.07,1.43,3.68,1.43,1.47,0,2.91-.33,4.31-.98l.61,1.88c-.77,.39-1.58,.69-2.44,.9s-1.86,.31-2.99,.31c-1.53,0-2.82-.31-3.89-.92-1.07-.62-1.87-1.5-2.42-2.67-.54-1.16-.82-2.56-.82-4.19s.28-3.12,.85-4.34c.57-1.21,1.36-2.14,2.38-2.77,1.02-.64,2.19-.95,3.52-.95s2.5,.33,3.42,.98c.91,.65,1.59,1.51,2.03,2.58,.44,1.07,.65,2.23,.65,3.48v.98Zm-2.63-1.85c-.09-1.4-.45-2.46-1.07-3.16-.62-.71-1.45-1.06-2.5-1.06s-1.89,.36-2.57,1.07c-.68,.72-1.12,1.77-1.31,3.15h7.45Z"/><path d="M747.63,292.24l-2.31,1.51-.63-1.13,3.03-1.95h1.46v12.07h-1.54v-10.5Z"/><path d="M753.56,316.56c.55-1.16,.97-2.39,1.26-3.69,.29-1.3,.43-2.61,.43-3.93l2.64,.26c0,1.43-.26,2.83-.78,4.2-.52,1.37-1.11,2.54-1.78,3.51l-1.78-.34Z"/><path d="M771.56,291.85h5.96c2.18,0,3.86,.46,5.05,1.37,1.18,.91,1.78,2.24,1.78,3.96,0,1.1-.23,2.07-.68,2.9-.46,.83-1.02,1.52-1.7,2.05-.68,.53-1.39,.94-2.13,1.22l6.44,9.09h-3.18l-5.79-8.4h-3.07v8.4h-2.67v-20.59Zm5.09,10.04c.98,0,1.84-.19,2.59-.56,.75-.38,1.33-.91,1.74-1.59,.41-.69,.62-1.48,.62-2.37,0-1.18-.38-2.03-1.12-2.57-.75-.53-1.84-.8-3.27-.8h-2.97v7.89h2.42Z"/><path d="M800.62,304.9h-10.19c.02,1.91,.45,3.33,1.3,4.29,.85,.95,2.07,1.43,3.68,1.43,1.47,0,2.91-.33,4.31-.98l.61,1.88c-.77,.39-1.58,.69-2.44,.9s-1.86,.31-2.99,.31c-1.53,0-2.82-.31-3.89-.92-1.07-.62-1.87-1.5-2.42-2.67-.54-1.16-.82-2.56-.82-4.19s.28-3.12,.85-4.34c.57-1.21,1.36-2.14,2.38-2.77,1.02-.64,2.19-.95,3.52-.95s2.5,.33,3.42,.98c.91,.65,1.59,1.51,2.03,2.58,.44,1.07,.65,2.23,.65,3.48v.98Zm-2.63-1.85c-.09-1.4-.45-2.46-1.07-3.16-.62-.71-1.45-1.06-2.5-1.06s-1.89,.36-2.57,1.07-1.12,1.77-1.31,3.15h7.45Z"/><path d="M805.21,299.22h-2.42l.37-1.78,2.05-.26v-1.46c0-3.58,1.46-5.37,4.37-5.37,.53,0,1.06,.05,1.6,.16,.53,.1,1.01,.23,1.41,.38l-.43,1.92c-.79-.26-1.51-.38-2.17-.38-.74,0-1.29,.26-1.64,.78-.36,.52-.53,1.41-.53,2.66v1.32h3.98l-.37,2.03h-3.61v13.22h-2.6v-13.22Z"/><path d="M814.43,301.02c0-.85-.04-2.13-.11-3.84h2.42c.06,.43,.11,.94,.16,1.54,.05,.6,.08,1.08,.1,1.43,.42-.67,.82-1.24,1.22-1.71,.4-.47,.87-.84,1.41-1.13,.54-.29,1.16-.43,1.85-.43,.51,0,.98,.06,1.39,.18l-.37,2.32c-.36-.1-.74-.14-1.14-.14-.84,0-1.59,.24-2.23,.72-.64,.48-1.34,1.25-2.08,2.32v10.15h-2.62v-11.42Z"/><path d="M836.49,304.9h-10.19c.02,1.91,.45,3.33,1.3,4.29,.85,.95,2.07,1.43,3.68,1.43,1.47,0,2.91-.33,4.31-.98l.61,1.88c-.77,.39-1.58,.69-2.44,.9s-1.86,.31-2.99,.31c-1.53,0-2.82-.31-3.89-.92-1.07-.62-1.87-1.5-2.42-2.67-.54-1.16-.82-2.56-.82-4.19s.28-3.12,.85-4.34c.57-1.21,1.36-2.14,2.38-2.77s2.19-.95,3.52-.95,2.5,.33,3.42,.98c.91,.65,1.59,1.51,2.03,2.58,.44,1.07,.65,2.23,.65,3.48v.98Zm-2.63-1.85c-.09-1.4-.45-2.46-1.07-3.16-.62-.71-1.45-1.06-2.5-1.06s-1.89,.36-2.57,1.07c-.68,.72-1.12,1.77-1.31,3.15h7.45Z"/><path d="M840.76,312.46c-.8-.17-1.48-.4-2.05-.69l.65-1.95c.52,.25,1.14,.47,1.86,.63s1.42,.25,2.09,.25c1.08,0,1.9-.21,2.46-.64,.56-.43,.84-1.01,.84-1.75,0-.46-.13-.86-.38-1.17-.25-.32-.61-.6-1.09-.84-.47-.24-1.17-.54-2.1-.9-.9-.36-1.64-.73-2.22-1.1-.58-.37-1.04-.83-1.37-1.37-.33-.54-.49-1.19-.49-1.95,0-.83,.2-1.56,.59-2.17,.39-.62,.97-1.09,1.73-1.42s1.67-.5,2.74-.5c1.53,0,3.03,.35,4.52,1.04l-.51,1.88c-.64-.3-1.29-.54-1.97-.71-.68-.17-1.32-.25-1.93-.25-.85,0-1.51,.17-1.98,.52-.47,.35-.7,.8-.7,1.37,0,.4,.12,.74,.36,1.02s.58,.53,1.01,.75c.43,.22,1.09,.51,1.98,.87,.97,.41,1.73,.78,2.3,1.11,.57,.33,1.04,.78,1.41,1.36,.38,.57,.56,1.3,.56,2.18,0,.95-.23,1.78-.68,2.48-.45,.71-1.11,1.26-1.99,1.65-.88,.39-1.94,.59-3.18,.59-.86,0-1.69-.09-2.49-.26Z"/><path d="M863.81,298.32c.8,.96,1.19,2.37,1.19,4.25v9.87h-2.62v-9.64c0-1.32-.24-2.27-.72-2.87-.48-.6-1.19-.9-2.13-.9-1.5,0-2.99,.83-4.48,2.47v10.93h-2.62v-21.81l2.62-.28v9.16c.72-.77,1.5-1.4,2.34-1.88,.84-.49,1.81-.73,2.91-.73,1.53,0,2.7,.48,3.5,1.44Z"/><path d="M883.03,304.23l-6.85-12.38h2.89l3.8,7.11c.79,1.45,1.29,2.49,1.51,3.13,.33-.74,.83-1.73,1.51-2.97l3.97-7.26h2.69l-6.88,12.38v8.2h-2.62v-8.2Z"/><path d="M895.28,311.81c-1.07-.61-1.9-1.5-2.51-2.67s-.91-2.56-.91-4.18,.3-3.05,.91-4.27,1.45-2.16,2.54-2.82c1.09-.66,2.33-.99,3.75-.99s2.61,.32,3.68,.97c1.07,.64,1.91,1.57,2.5,2.77,.6,1.2,.9,2.6,.9,4.2s-.31,3.06-.93,4.24c-.62,1.19-1.48,2.1-2.57,2.72-1.09,.63-2.33,.94-3.71,.94s-2.58-.31-3.65-.92Zm7.06-2.67c.71-1,1.07-2.37,1.07-4.14s-.38-3.3-1.13-4.39c-.75-1.09-1.86-1.63-3.32-1.63s-2.57,.53-3.29,1.58c-.72,1.06-1.09,2.47-1.09,4.24,0,1.21,.17,2.26,.53,3.13,.35,.87,.87,1.54,1.55,2,.68,.47,1.51,.7,2.47,.7,1.43,0,2.5-.5,3.21-1.49Z"/><path d="M910.65,311.28c-.77-.96-1.16-2.41-1.16-4.34v-9.75h2.57v9.61c0,1.33,.24,2.29,.72,2.89,.48,.6,1.18,.89,2.11,.89,.84,0,1.65-.23,2.42-.69,.77-.46,1.48-1.05,2.11-1.77v-10.93h2.62v11.43c0,1.06,.04,2.34,.13,3.82h-2.35c-.07-.29-.13-.67-.18-1.13-.06-.46-.1-.86-.13-1.19-.8,.79-1.61,1.42-2.45,1.89-.83,.47-1.81,.71-2.92,.71-1.56,0-2.73-.48-3.5-1.44Z"/><path d="M926.78,301.02c0-.85-.04-2.13-.11-3.84h2.42c.06,.43,.11,.94,.16,1.54,.05,.6,.08,1.08,.1,1.43,.42-.67,.82-1.24,1.22-1.71,.4-.47,.87-.84,1.41-1.13,.54-.29,1.16-.43,1.85-.43,.51,0,.98,.06,1.39,.18l-.37,2.32c-.36-.1-.74-.14-1.14-.14-.84,0-1.59,.24-2.23,.72s-1.34,1.25-2.08,2.32v10.15h-2.62v-11.42Z"/><path d="M944.4,291.85h2.94l5.67,15.24c.17,.48,.41,1.28,.71,2.4,.27-.93,.54-1.73,.78-2.4l5.64-15.24h2.74l-7.93,20.59h-2.65l-7.92-20.59Z"/><path d="M965.36,294.13c-.32-.33-.48-.75-.48-1.26s.16-.92,.48-1.24c.32-.31,.73-.47,1.24-.47s.92,.16,1.25,.48c.33,.32,.5,.73,.5,1.23s-.17,.93-.51,1.26c-.34,.33-.75,.49-1.24,.49s-.91-.16-1.24-.49Zm-.09,3.05h2.62v15.26h-2.62v-15.26Z"/><path d="M973.32,312.46c-.8-.17-1.48-.4-2.05-.69l.65-1.95c.52,.25,1.14,.47,1.86,.63s1.42,.25,2.09,.25c1.08,0,1.9-.21,2.46-.64,.56-.43,.84-1.01,.84-1.75,0-.46-.13-.86-.38-1.17-.25-.32-.61-.6-1.09-.84-.47-.24-1.17-.54-2.1-.9-.9-.36-1.64-.73-2.22-1.1-.58-.37-1.04-.83-1.37-1.37-.33-.54-.49-1.19-.49-1.95,0-.83,.2-1.56,.59-2.17,.39-.62,.97-1.09,1.73-1.42s1.67-.5,2.74-.5c1.53,0,3.03,.35,4.52,1.04l-.51,1.88c-.64-.3-1.29-.54-1.97-.71-.68-.17-1.32-.25-1.93-.25-.85,0-1.51,.17-1.98,.52-.47,.35-.7,.8-.7,1.37,0,.4,.12,.74,.36,1.02s.58,.53,1.01,.75c.43,.22,1.09,.51,1.98,.87,.97,.41,1.73,.78,2.3,1.11,.57,.33,1.04,.78,1.41,1.36,.38,.57,.56,1.3,.56,2.18,0,.95-.23,1.78-.68,2.48-.45,.71-1.11,1.26-1.99,1.65-.88,.39-1.94,.59-3.18,.59-.86,0-1.69-.09-2.49-.26Z"/><path d="M985.09,294.13c-.32-.33-.48-.75-.48-1.26s.16-.92,.48-1.24c.32-.31,.73-.47,1.24-.47s.92,.16,1.25,.48c.33,.32,.5,.73,.5,1.23s-.17,.93-.51,1.26c-.34,.33-.75,.49-1.24,.49s-.91-.16-1.24-.49Zm-.09,3.05h2.62v15.26h-2.62v-15.26Z"/><path d="M994.71,311.81c-1.07-.61-1.9-1.5-2.51-2.67-.61-1.17-.91-2.56-.91-4.18s.3-3.05,.91-4.27c.61-1.22,1.45-2.16,2.54-2.82,1.09-.66,2.33-.99,3.75-.99s2.61,.32,3.68,.97c1.07,.64,1.91,1.57,2.5,2.77,.6,1.2,.9,2.6,.9,4.2s-.31,3.06-.93,4.24c-.62,1.19-1.48,2.1-2.57,2.72-1.09,.63-2.33,.94-3.71,.94s-2.58-.31-3.65-.92Zm7.06-2.67c.71-1,1.07-2.37,1.07-4.14s-.38-3.3-1.13-4.39c-.75-1.09-1.86-1.63-3.32-1.63s-2.57,.53-3.29,1.58c-.72,1.06-1.09,2.47-1.09,4.24,0,1.21,.17,2.26,.53,3.13,.35,.87,.87,1.54,1.55,2,.68,.47,1.51,.7,2.47,.7,1.43,0,2.5-.5,3.21-1.49Z"/><path d="M1009.18,301.08c0-1.43-.04-2.73-.11-3.9h2.42c.06,.32,.11,.73,.16,1.21,.05,.48,.08,.88,.1,1.18,.77-.82,1.57-1.48,2.41-1.96,.84-.48,1.83-.73,2.96-.73,1.52,0,2.67,.49,3.45,1.47,.78,.98,1.17,2.42,1.17,4.32v9.77h-2.62v-9.6c0-2.54-.93-3.81-2.8-3.81-.83,0-1.63,.24-2.37,.7-.75,.47-1.46,1.09-2.15,1.86v10.85h-2.62v-11.36Z"/></g><g><g><path d="M788.51,338.64c-.15-.34-.3-.75-.47-1.22-.17-.47-.3-.87-.41-1.21,.02,.33,.04,.79,.06,1.38,.02,.59,.03,1.16,.03,1.69v7.76h-1.51v-12.65h2.17l3.33,7.93c.5,1.19,.84,2.14,1.03,2.85,.26-.79,.62-1.73,1.09-2.82l3.4-7.96h2.11v12.65h-1.62v-7.76c0-.72,.04-1.74,.12-3.07-.31,.97-.64,1.86-1,2.68l-3.51,8.17h-1.28l-3.53-8.42Z"/><path d="M808.12,347.04c-.06-.29-.11-.73-.14-1.3-.35,.41-.8,.76-1.37,1.05-.56,.29-1.18,.43-1.86,.43-.54,0-1.03-.1-1.46-.31-.43-.21-.77-.52-1.02-.93-.25-.41-.38-.92-.38-1.51,0-.9,.33-1.63,.98-2.17,.65-.54,1.73-.82,3.25-.82,.58,0,1.18,.04,1.81,.12v-.24c0-.97-.2-1.64-.59-2.04-.39-.39-.94-.59-1.64-.59-.47,0-.95,.07-1.45,.2-.5,.13-.95,.29-1.34,.48l-.28-1.23c.34-.17,.82-.33,1.42-.48s1.23-.22,1.89-.22c.76,0,1.4,.13,1.93,.38,.53,.25,.94,.68,1.23,1.28,.29,.6,.44,1.41,.44,2.43v3.7c0,.39,.02,.98,.07,1.77h-1.48Zm-1.42-1.47c.52-.26,.93-.57,1.23-.94v-2.03c-.58-.06-1.12-.1-1.62-.1-1.04,0-1.77,.17-2.17,.51-.4,.34-.61,.79-.61,1.36s.14,.94,.43,1.2c.29,.26,.68,.38,1.17,.38,.52,0,1.05-.13,1.57-.39Z"/><path d="M813.32,346.53c-.45-.45-.67-1.21-.67-2.26v-5.35h-1.24l.22-1.09,1.07-.16,.12-2.17,1.42-.23v2.4h2.79l-.22,1.25h-2.58v5.2c0,.62,.12,1.08,.35,1.36s.6,.43,1.09,.43c.37,0,.82-.09,1.35-.27l.28,1.13c-.27,.13-.58,.24-.93,.32-.35,.09-.73,.13-1.14,.13-.84,0-1.48-.23-1.93-.68Z"/><path d="M826.12,342.41h-6.26c.01,1.17,.28,2.05,.8,2.63,.52,.59,1.27,.88,2.26,.88,.9,0,1.78-.2,2.65-.6l.38,1.15c-.47,.24-.97,.42-1.5,.55s-1.14,.19-1.84,.19c-.94,0-1.73-.19-2.39-.57-.66-.38-1.15-.92-1.48-1.64-.33-.71-.5-1.57-.5-2.57s.17-1.92,.52-2.66c.35-.75,.84-1.31,1.46-1.7,.63-.39,1.35-.59,2.16-.59s1.54,.2,2.1,.6c.56,.4,.98,.93,1.24,1.59,.27,.66,.4,1.37,.4,2.14v.6Zm-1.62-1.14c-.06-.86-.28-1.51-.66-1.94-.38-.43-.89-.65-1.53-.65s-1.16,.22-1.58,.66c-.42,.44-.69,1.08-.81,1.93h4.58Z"/><path d="M828.62,334.39h3.18c1.54,0,2.71,.32,3.52,.95,.81,.63,1.21,1.55,1.21,2.75,0,.83-.19,1.56-.57,2.19-.38,.63-.92,1.11-1.6,1.45-.69,.34-1.47,.51-2.36,.51-.58,0-1.16-.07-1.74-.2v5h-1.64v-12.65Zm5.45,5.79c.54-.49,.82-1.16,.82-2.03s-.27-1.48-.8-1.86c-.53-.38-1.31-.58-2.32-.58h-1.5v5.05c.55,.1,1.02,.15,1.43,.15,1.04,0,1.83-.24,2.37-.73Z"/><path d="M844.11,347.04c-.06-.29-.11-.73-.14-1.3-.35,.41-.8,.76-1.37,1.05-.56,.29-1.18,.43-1.86,.43-.54,0-1.03-.1-1.46-.31-.43-.21-.77-.52-1.02-.93-.25-.41-.38-.92-.38-1.51,0-.9,.33-1.63,.98-2.17,.65-.54,1.73-.82,3.25-.82,.58,0,1.18,.04,1.81,.12v-.24c0-.97-.2-1.64-.59-2.04-.39-.39-.94-.59-1.64-.59-.47,0-.95,.07-1.45,.2-.5,.13-.95,.29-1.34,.48l-.28-1.23c.34-.17,.82-.33,1.42-.48s1.23-.22,1.89-.22c.76,0,1.4,.13,1.93,.38,.53,.25,.94,.68,1.23,1.28,.29,.6,.44,1.41,.44,2.43v3.7c0,.39,.02,.98,.07,1.77h-1.48Zm-1.42-1.47c.52-.26,.93-.57,1.23-.94v-2.03c-.58-.06-1.12-.1-1.62-.1-1.04,0-1.77,.17-2.17,.51-.4,.34-.61,.79-.61,1.36s.14,.94,.43,1.2c.29,.26,.68,.38,1.17,.38,.52,0,1.05-.13,1.57-.39Z"/><path d="M854.39,347.04c-.07-.36-.13-.75-.17-1.17-.36,.41-.79,.74-1.28,.98s-1.04,.36-1.65,.36c-.66,0-1.26-.16-1.79-.47-.54-.31-.97-.81-1.29-1.48-.33-.68-.49-1.54-.49-2.59s.17-1.97,.52-2.75c.34-.78,.84-1.38,1.49-1.8s1.42-.63,2.32-.63c.36,0,.72,.03,1.1,.1,.38,.07,.72,.15,1.02,.24v-4.19l1.61-.17v11.21c0,.77,.02,1.56,.07,2.37h-1.46Zm-1.3-1.52c.46-.25,.82-.54,1.08-.87v-5.59c-.31-.1-.65-.18-1.01-.25-.36-.07-.68-.1-.97-.1-.57,0-1.06,.15-1.48,.44-.42,.29-.74,.73-.97,1.31-.23,.58-.34,1.3-.34,2.14,0,1.15,.21,1.98,.62,2.5,.42,.52,.95,.78,1.61,.78,.51,0,.99-.12,1.45-.37Z"/></g><g><path d="M865.28,335.97l-2.44,1.59-.66-1.19,3.19-2.05h1.54v12.71h-1.62v-11.06Z"/><path d="M875.28,335.97l-2.44,1.59-.66-1.19,3.19-2.05h1.54v12.71h-1.62v-11.06Z"/><path d="M881.95,346.86c-.2-.19-.3-.44-.3-.74s.1-.57,.3-.76,.45-.29,.76-.29,.57,.1,.76,.3,.29,.45,.29,.76-.1,.56-.29,.75c-.19,.19-.45,.28-.76,.28s-.55-.1-.76-.29Z"/><path d="M885.44,346.04l.5-1.32c.43,.34,.93,.62,1.48,.84,.56,.22,1.16,.33,1.79,.33,.59,0,1.1-.12,1.52-.35,.42-.23,.74-.56,.96-.99,.22-.42,.32-.92,.32-1.49,0-.85-.26-1.49-.79-1.93-.53-.44-1.27-.66-2.22-.66-.56,0-1.08,.05-1.58,.16-.49,.1-.93,.23-1.32,.38l.51-6.62h6.38l-.17,1.39h-4.94l-.3,3.67c.56-.17,1.17-.26,1.83-.26,.8,0,1.52,.14,2.17,.43,.65,.29,1.16,.71,1.54,1.29,.38,.57,.57,1.28,.57,2.11s-.18,1.58-.55,2.22c-.36,.63-.88,1.12-1.55,1.47-.67,.34-1.45,.52-2.34,.52-1.5,0-2.77-.39-3.82-1.17Z"/><path d="M895.27,338.44c.34-.71,.6-1.47,.77-2.27,.18-.8,.27-1.61,.27-2.41l1.62,.16c0,.88-.16,1.74-.48,2.58s-.68,1.56-1.09,2.15l-1.09-.21Zm3.1,0c.34-.71,.6-1.47,.77-2.27,.18-.8,.27-1.61,.27-2.41l1.62,.16c0,.88-.16,1.74-.48,2.58-.32,.84-.68,1.56-1.09,2.15l-1.09-.21Z"/><path d="M904.7,346.98c-.65-.16-1.25-.37-1.8-.64l.56-1.35c.51,.26,1.05,.47,1.64,.63,.59,.16,1.14,.24,1.65,.24,.55,0,1.02-.09,1.39-.28,.37-.18,.65-.43,.83-.75,.18-.31,.28-.67,.28-1.07,0-.44-.12-.8-.35-1.1-.23-.3-.52-.55-.88-.74-.36-.19-.86-.43-1.51-.71-.72-.31-1.31-.61-1.77-.89-.46-.29-.85-.66-1.15-1.1-.3-.45-.45-1-.45-1.64s.16-1.25,.49-1.75c.33-.5,.79-.89,1.39-1.17,.6-.28,1.31-.41,2.13-.41,.61,0,1.21,.07,1.8,.21,.6,.14,1.1,.32,1.51,.54l-.33,1.34c-1.06-.48-2.05-.72-2.96-.72-.72,0-1.3,.15-1.74,.45-.44,.3-.66,.76-.66,1.36,0,.4,.11,.74,.32,1.03,.22,.28,.52,.53,.9,.75,.38,.22,.93,.48,1.63,.78,.73,.31,1.32,.61,1.76,.89,.45,.28,.81,.64,1.09,1.09s.41,.99,.41,1.65c0,.74-.17,1.38-.5,1.93-.33,.54-.82,.96-1.45,1.25-.63,.29-1.39,.44-2.27,.44-.65,0-1.3-.08-1.96-.24Z"/></g><g><polygon points="710.55 339.5 704.76 339.5 704.76 334.39 702.19 334.39 702.19 347.04 704.76 347.04 704.76 341.9 710.55 341.9 710.55 347.04 713.12 347.04 713.12 334.39 710.55 334.39 710.55 339.5"/><path d="M725.01,341.63c0,2.06-1.02,3.15-2.87,3.15s-2.89-1.13-2.89-3.24v-7.14h-2.57v7.23c0,3.56,1.98,5.6,5.42,5.6s5.47-2.08,5.47-5.7v-7.13h-2.57v7.24Z"/><polygon points="754.67 343.09 751.8 334.39 749.7 334.39 746.83 343.09 744.04 334.4 741.3 334.4 745.71 347.04 747.84 347.04 750.71 338.74 753.59 347.04 755.73 347.04 760.13 334.4 757.47 334.4 754.67 343.09"/><polygon points="764.73 341.6 769.4 341.6 769.4 339.29 764.73 339.29 764.73 336.71 771.5 336.71 771.5 334.4 762.2 334.4 762.2 347.03 771.75 347.03 771.75 344.73 764.73 344.73 764.73 341.6"/><rect x="774.81" y="334.39" width="2.53" height="12.63"/><path d="M738.44,344.4l1.14,2.63h2.69l-5.55-12.64h-2.26l-5.57,12.64h2.62l1.15-2.63h5.79Zm-2.9-6.81l1.95,4.53h-3.88l1.93-4.53Z"/></g></g></g></g><text class="cls-11" transform="translate(1181.91 149.41)"><tspan x="0" y="0">1.7N</tspan></text><text class="cls-11" transform="translate(1181.26 337.62)"><tspan x="0" y="0">Centered</tspan></text><text class="cls-10" transform="translate(1103.15 15.31)"><tspan x="0" y="0">2X</tspan></text><text class="cls-11" transform="translate(1181.26 67.44)"><tspan x="0" y="0">2X</tspan></text><text class="cls-11" transform="translate(1181.26 98.03)"><tspan x="0" y="0">1X</tspan></text><g><line class="cls-5" x1="106.33" y1="669.27" x2="337.68" y2="669.27"/><line class="cls-5" x1="411.13" y1="669.27" x2="678.66" y2="669.27"/><line class="cls-5" x1="106.33" y1="680.09" x2="106.33" y2="140.76"/><line class="cls-5" x1="678.66" y1="680.09" x2="678.66" y2="140.76"/></g><text class="cls-11" transform="translate(779.36 643.48) scale(.99 1)"><tspan x="0" y="0">38% W</tspan></text><text class="cls-11" transform="translate(347.09 675.83) scale(.99 1)"><tspan x="0" y="0">50% W</tspan></text><g><line class="cls-2" x1="591.07" y1="638.82" x2="766.26" y2="638.82"/><line class="cls-2" x1="848.26" y1="638.82" x2="1021.45" y2="638.82"/><line class="cls-2" x1="591.07" y1="651.92" x2="591.07" y2="274.22"/><line class="cls-2" x1="1021.45" y1="651.92" x2="1021.45" y2="274.22"/></g><text class="cls-11" transform="translate(1181.25 601.48)"><tspan x="0" y="0">2X</tspan></text><text class="cls-11" transform="translate(1101.8 658.76)"><tspan x="0" y="0">2X</tspan></text><polyline class="cls-4" points="1128.2 568.71 1128.2 635.48 1094.26 635.48 1094.26 568.71"/><rect class="cls-1" x="3.85" y="50.32" width="1121.2" height="560.6"/><g><line class="cls-6" x1="1127.83" y1="48.61" x2="1164.29" y2="48.61"/><line class="cls-6" x1="1127.83" y1="105.01" x2="1164.29" y2="105.01"/><line class="cls-6" x1="1127.83" y1="161.42" x2="1164.29" y2="161.42"/><line class="cls-6" x1="1127.83" y1="217.82" x2="1164.29" y2="217.82"/><line class="cls-6" x1="1127.83" y1="274.22" x2="1164.29" y2="274.22"/><line class="cls-6" x1="1127.83" y1="330.62" x2="1164.29" y2="330.62"/><line class="cls-6" x1="1127.83" y1="387.03" x2="1164.29" y2="387.03"/><line class="cls-6" x1="1127.83" y1="443.43" x2="1164.29" y2="443.43"/><line class="cls-6" x1="1127.83" y1="499.83" x2="1164.29" y2="499.83"/><line class="cls-6" x1="1127.83" y1="556.24" x2="1164.29" y2="556.24"/><line class="cls-6" x1="1127.83" y1="612.64" x2="1164.29" y2="612.64"/></g><path class="cls-9" d="M1141.49,578.49h2.08l7.62,11.6c-.06-1.05-.09-2-.09-2.86v-8.74h1.74v14.05h-2.01l-7.73-11.76c.03,.47,.06,1.03,.08,1.67,.02,.64,.03,1.22,.03,1.72v8.37h-1.73v-14.05Z"/><rect class="cls-8" x="1095.82" y="49.22" width="33.27" height="33.27"/><g><polyline class="cls-4" points="1095.65 78.79 1095.65 25.49 1129.09 25.49 1129.09 78.79"/><polyline class="cls-4" points="990.11 82.24 1164.75 82.24 1164.75 99.32 990.11 99.32"/><polyline class="cls-4" points="1011.6 49.22 1164.75 49.22 1164.75 82.24 1011.6 82.24"/></g><rect class="cls-3" x=".74" y="48.61" width="1127.42" height="564.03"/><line class="cls-5" y1="140.76" x2="1170.49" y2="140.76"/><line class="cls-4" y1="330.62" x2="1170.49" y2="330.62"/><rect class="cls-8" x="1094.29" y="578.91" width="33.89" height="33.89"/><polyline class="cls-4" points="1074.11 578.88 1173.32 578.88 1173.32 612.83 1074.11 612.83"/></svg>