<?xml version="1.0" encoding="UTF-8"?><svg id="_层_1" xmlns="http://www.w3.org/2000/svg" xmlns:xlink="http://www.w3.org/1999/xlink" viewBox="0 0 460.92 687.49"><defs><style>.cls-1{font-family:FZLTHJW--GB1-0, FZLanTingHeiS-R-GB;}.cls-1,.cls-2{fill:#e6006c;font-size:13.36px;}.cls-3{stroke-dasharray:0 3.22;}.cls-3,.cls-4,.cls-5,.cls-6,.cls-7{stroke:#e6006c;}.cls-3,.cls-4,.cls-5,.cls-6,.cls-7,.cls-8,.cls-9,.cls-10{fill:none;stroke-miterlimit:10;}.cls-3,.cls-6,.cls-7{stroke-width:.43px;}.cls-4{stroke-dasharray:0 3.24;}.cls-4,.cls-5{stroke-width:.41px;}.cls-5{stroke-dasharray:0 3.24;}.cls-6{stroke-dasharray:0 2.86;}.cls-11{fill:#d9d9d9;}.cls-12{fill:#9b9c9c;}.cls-7{stroke-dasharray:0 3.47;}.cls-2{font-family:HuaweiSans, 'Huawei Sans';}.cls-8{stroke-dasharray:0 0 4.85 4.85;stroke-width:1.34px;}.cls-8,.cls-9{stroke:#9b9c9c;}.cls-9{stroke-dasharray:0 0 3.13 3.13;stroke-width:.87px;}.cls-10{stroke:#000;stroke-width:.67px;}</style></defs><image width="8000" height="12000" transform="translate(.67 49.43) scale(.05)" xlink:href="../MKT_Tagore KV_HQ_Product KV Guideline_HQ_CN_20250221文件夹(_F)/Links/0221MKT_Tagore_Product KV_竖版_CN_HQ_JPG_RGB 拷贝2 拷贝.jpg"/><rect class="cls-11" x="378.74" y="49.43" width="17.94" height="17.94"/><path class="cls-12" d="M407.42,546.67h1.68l6.15,9.36c-.05-.85-.07-1.62-.07-2.31v-7.05h1.4v11.34h-1.62l-6.23-9.49c.03,.38,.05,.83,.07,1.35,.02,.52,.03,.98,.03,1.39v6.75h-1.39v-11.34Z"/><line class="cls-9" x1="396.68" y1="49.43" x2="427.74" y2="49.43"/><g><line class="cls-9" x1="396.68" y1="108.96" x2="427.74" y2="108.96"/><line class="cls-9" x1="396.68" y1="168.34" x2="427.74" y2="168.34"/><line class="cls-9" x1="396.68" y1="227.72" x2="427.74" y2="227.72"/><line class="cls-9" x1="396.68" y1="288.47" x2="427.74" y2="288.47"/><line class="cls-9" x1="396.68" y1="346.48" x2="427.74" y2="346.48"/><line class="cls-9" x1="396.68" y1="405.87" x2="427.74" y2="405.87"/><line class="cls-9" x1="396.68" y1="465.25" x2="427.74" y2="465.25"/><line class="cls-9" x1="396.68" y1="524.63" x2="427.74" y2="524.63"/><line class="cls-9" x1="396.68" y1="584.01" x2="427.74" y2="584.01"/><line class="cls-9" x1="396.68" y1="643.39" x2="427.74" y2="643.39"/></g><text class="cls-2" transform="translate(432.69 146.47)"><tspan x="0" y="0">2.6N</tspan></text><line class="cls-4" x1="425.76" y1="143.18" x2="46.4" y2="143.18"/><text class="cls-2" transform="translate(432.69 262.8)"><tspan x="0" y="0">3.5N</tspan></text><line class="cls-5" x1="425.76" y1="257.55" x2="30.4" y2="257.55"/><line class="cls-7" x1="297.68" y1="36.36" x2="297.68" y2="78.21"/><g><line class="cls-8" x1=".67" y1="26.5" x2=".67" y2="49.94"/><line class="cls-8" x1="99.67" y1="28.44" x2="99.67" y2="49.94"/><line class="cls-8" x1="198.68" y1="28.44" x2="198.68" y2="49.94"/><line class="cls-8" x1="297.68" y1="28.44" x2="297.68" y2="49.94"/><line class="cls-8" x1="396.68" y1="26.5" x2="396.68" y2="49.94"/></g><rect class="cls-10" x=".67" y="49.43" width="396.01" height="594.02"/><text class="cls-2" transform="translate(432.69 61.6)"><tspan x="0" y="0">2X</tspan></text><text class="cls-2" transform="translate(432.69 76.48)"><tspan x="0" y="0">1X</tspan></text><polyline class="cls-7" points="373.23 67.31 425.76 67.31 425.76 76.48 373.23 76.48"/><polyline class="cls-7" points="373.23 49.37 425.76 49.37 425.76 67.31 373.23 67.31"/><text class="cls-2" transform="translate(378.53 28.63)"><tspan x="0" y="0">2X</tspan></text><polyline class="cls-7" points="378.58 67.81 378.58 34.52 396.68 34.52 396.68 67.81"/><text class="cls-1" transform="translate(185.31 11.48)"><tspan x="0" y="0">居中</tspan></text><line class="cls-7" x1="198.68" y1="643.45" x2="198.68" y2="21.76"/><text class="cls-2" transform="translate(176.56 683.87)"><tspan x="0" y="0">85% W</tspan></text><line class="cls-3" x1="30.4" y1="684.41" x2="173.61" y2="684.41"/><line class="cls-3" x1="223.09" y1="684.41" x2="367.43" y2="684.41"/><line class="cls-3" x1="30.4" y1="684.93" x2="30.4" y2="257.21"/><line class="cls-3" x1="367.44" y1="684.93" x2="367.44" y2="257.21"/><rect class="cls-11" x="378.75" y="625.45" width="17.94" height="17.94"/><text class="cls-2" transform="translate(432.69 639.68)"><tspan x="0" y="0">2X</tspan></text><text class="cls-2" transform="translate(377.32 675.22)"><tspan x="0" y="0">2X</tspan></text><polyline class="cls-7" points="374.62 643.45 424.02 643.45 424.02 625.45 374.62 625.45"/><polyline class="cls-7" points="378.75 618.49 378.75 661.93 396.69 661.93 396.69 618.49"/><text class="cls-2" transform="translate(176.56 663.8)"><tspan x="0" y="0">75% W</tspan></text><line class="cls-6" x1="345.24" y1="661.1" x2="227.53" y2="661.1"/><line class="cls-6" x1="168.78" y1="661.1" x2="52.59" y2="661.1"/><line class="cls-4" x1="346.25" y1="143.18" x2="346.25" y2="663.8"/><line class="cls-4" x1="51.32" y1="143.18" x2="51.32" y2="663.8"/></svg>