<?xml version="1.0" encoding="UTF-8"?><svg id="_层_1" xmlns="http://www.w3.org/2000/svg" xmlns:xlink="http://www.w3.org/1999/xlink" viewBox="0 0 480.24 696"><defs><style>.cls-1{stroke-dasharray:0 3.56;}.cls-1,.cls-2,.cls-3,.cls-4,.cls-5,.cls-6{fill:none;stroke-miterlimit:10;}.cls-1,.cls-2,.cls-4{stroke:#999;}.cls-1,.cls-4{stroke-width:.45px;}.cls-2{stroke-dasharray:0 3.33;stroke-width:.42px;}.cls-7{fill:#fff;}.cls-8{fill:#d9d9d9;}.cls-9{fill:#9b9c9c;}.cls-3{stroke-dasharray:0 0 3.21 3.21;stroke-width:.89px;}.cls-3,.cls-5{stroke:#9b9c9c;}.cls-4{stroke-dasharray:0 2.94;}.cls-10{fill:#999;font-family:HuaweiSans, 'Huawei Sans';font-size:13.7px;}.cls-5{stroke-dasharray:0 0 4.97 4.97;stroke-width:1.38px;}.cls-6{stroke:#000;stroke-width:.69px;}</style></defs><g><image width="8000" height="12000" transform="translate(.69 50.61) scale(.05)" xlink:href="../../MKT_Tagore KV_HQ_Product KV Guideline_完整版模板_HQ_EN_20241204/Links/MatePad 11.5&quot;S_Product KV_Vertical_EN_HQ_JPG_RGB_20240417.jpg"/><rect class="cls-7" x="43.97" y="143.32" width="320.2" height="74"/><g><g><path d="M103.7,206.67c-.05-.12-.1-.26-.16-.42-.06-.16-.1-.3-.14-.42,0,.11,.02,.27,.02,.47,0,.2,0,.4,0,.58v2.67h-.52v-4.35h.75l1.15,2.73c.17,.41,.29,.74,.35,.98,.09-.27,.21-.59,.38-.97l1.17-2.74h.73v4.35h-.56v-2.67c0-.25,.01-.6,.04-1.06-.11,.33-.22,.64-.35,.92l-1.21,2.81h-.44l-1.22-2.9Z"/><path d="M108.36,207.68h1.72v.45h-1.72v-.45Z"/><path d="M111.03,205.21h1.09c.53,0,.93,.11,1.21,.33,.28,.22,.42,.53,.42,.95,0,.29-.07,.54-.2,.75-.13,.22-.32,.38-.55,.5s-.51,.18-.81,.18c-.2,0-.4-.02-.6-.07v1.72h-.57v-4.35Zm1.87,1.99c.19-.17,.28-.4,.28-.7s-.09-.51-.27-.64c-.18-.13-.45-.2-.8-.2h-.52v1.74c.19,.03,.35,.05,.49,.05,.36,0,.63-.08,.82-.25Z"/><path d="M116.9,207.97h-2.16c0,.4,.1,.7,.27,.91,.18,.2,.44,.3,.78,.3,.31,0,.61-.07,.91-.21l.13,.4c-.16,.08-.33,.14-.52,.19s-.39,.07-.63,.07c-.32,0-.6-.07-.82-.2-.23-.13-.4-.32-.51-.56s-.17-.54-.17-.89,.06-.66,.18-.92c.12-.26,.29-.45,.5-.59,.21-.13,.46-.2,.74-.2s.53,.07,.72,.21c.19,.14,.34,.32,.43,.55,.09,.22,.14,.47,.14,.74v.21Zm-.56-.39c-.02-.3-.1-.52-.23-.67-.13-.15-.31-.22-.53-.22s-.4,.08-.54,.23c-.14,.15-.24,.37-.28,.67h1.58Z"/><path d="M117.66,207.16c0-.3,0-.58-.02-.82h.51c.01,.07,.02,.15,.03,.26s.02,.19,.02,.25c.16-.17,.33-.31,.51-.41s.39-.15,.63-.15c.32,0,.56,.1,.73,.31,.16,.21,.25,.51,.25,.91v2.07h-.55v-2.03c0-.54-.2-.81-.59-.81-.18,0-.34,.05-.5,.15-.16,.1-.31,.23-.45,.39v2.29h-.55v-2.4Z"/><path d="M121.7,209.44c-.21-.12-.38-.3-.5-.54s-.18-.53-.18-.87,.06-.66,.19-.93c.13-.26,.3-.47,.53-.61,.23-.14,.49-.22,.78-.22,.17,0,.34,.02,.51,.07s.32,.1,.44,.17l-.15,.41c-.12-.06-.24-.11-.38-.15-.14-.04-.27-.06-.39-.06-.2,0-.37,.05-.51,.16-.14,.1-.25,.25-.32,.44-.07,.19-.11,.42-.11,.68,0,.4,.08,.69,.25,.89,.17,.2,.4,.3,.71,.3,.12,0,.24-.01,.37-.04,.12-.03,.25-.08,.39-.14l.12,.39c-.14,.07-.29,.13-.45,.17-.16,.04-.34,.06-.52,.06-.29,0-.55-.06-.76-.18Z"/><path d="M124.1,205.69c-.07-.07-.1-.16-.1-.27s.03-.2,.1-.26,.15-.1,.26-.1,.2,.03,.27,.1,.11,.15,.11,.26-.04,.2-.11,.27-.16,.1-.26,.1-.19-.03-.26-.1Zm-.02,.65h.55v3.23h-.55v-3.23Z"/><path d="M125.8,209.43c-.12-.13-.18-.33-.18-.59v-3.89l.55-.06v3.86c0,.15,.02,.26,.07,.32,.05,.06,.12,.09,.23,.09,.04,0,.1,0,.17-.03l.08,.42c-.05,.02-.12,.04-.2,.05-.08,.01-.15,.02-.21,.02-.23,0-.4-.06-.52-.19Z"/><path d="M129.35,205.21h1.09c.53,0,.93,.11,1.21,.33,.28,.22,.42,.53,.42,.95,0,.29-.07,.54-.2,.75-.13,.22-.32,.38-.55,.5s-.51,.18-.81,.18c-.2,0-.4-.02-.6-.07v1.72h-.57v-4.35Zm1.87,1.99c.19-.17,.28-.4,.28-.7s-.09-.51-.27-.64c-.18-.13-.45-.2-.8-.2h-.52v1.74c.19,.03,.35,.05,.49,.05,.36,0,.63-.08,.82-.25Z"/><path d="M133.22,209.43c-.23-.13-.4-.32-.53-.56s-.19-.54-.19-.88,.07-.65,.19-.9c.13-.26,.31-.46,.54-.6,.23-.14,.49-.21,.79-.21s.55,.07,.78,.2,.4,.33,.53,.58c.13,.25,.19,.55,.19,.89s-.07,.65-.2,.9c-.13,.25-.31,.44-.54,.58-.23,.13-.49,.2-.78,.2s-.55-.07-.77-.19Zm1.49-.56c.15-.21,.23-.5,.23-.88s-.08-.7-.24-.93-.39-.35-.7-.35-.54,.11-.7,.34c-.15,.22-.23,.52-.23,.9,0,.26,.04,.48,.11,.66s.18,.33,.33,.42c.14,.1,.32,.15,.52,.15,.3,0,.53-.11,.68-.32Z"/><path d="M135.79,206.34h.57l.6,2.11c.08,.26,.13,.46,.16,.62,.02-.14,.07-.34,.16-.61l.67-2.12h.48l.67,2.12c.08,.27,.14,.47,.16,.61,.02-.15,.07-.36,.14-.62l.62-2.11h.56l-1.03,3.23h-.59l-.65-2.05c-.05-.17-.1-.34-.14-.51-.03,.13-.07,.3-.13,.5l-.64,2.07h-.59l-1.02-3.23Z"/><path d="M143.57,207.97h-2.16c0,.4,.1,.7,.27,.91,.18,.2,.44,.3,.78,.3,.31,0,.61-.07,.91-.21l.13,.4c-.16,.08-.33,.14-.52,.19s-.39,.07-.63,.07c-.32,0-.6-.07-.82-.2-.23-.13-.4-.32-.51-.56s-.17-.54-.17-.89,.06-.66,.18-.92c.12-.26,.29-.45,.5-.59,.21-.13,.46-.2,.74-.2s.53,.07,.72,.21c.19,.14,.34,.32,.43,.55,.09,.22,.14,.47,.14,.74v.21Zm-.56-.39c-.02-.3-.1-.52-.23-.67-.13-.15-.31-.22-.53-.22s-.4,.08-.54,.23c-.14,.15-.24,.37-.28,.67h1.58Z"/><path d="M144.33,207.15c0-.18,0-.45-.02-.81h.51c.01,.09,.02,.2,.03,.33,0,.13,.02,.23,.02,.3,.09-.14,.17-.26,.26-.36s.18-.18,.3-.24c.11-.06,.24-.09,.39-.09,.11,0,.21,.01,.29,.04l-.08,.49c-.08-.02-.16-.03-.24-.03-.18,0-.34,.05-.47,.15s-.28,.27-.44,.49v2.15h-.55v-2.41Z"/><path d="M149,207.97h-2.16c0,.4,.1,.7,.27,.91,.18,.2,.44,.3,.78,.3,.31,0,.61-.07,.91-.21l.13,.4c-.16,.08-.33,.14-.52,.19s-.39,.07-.63,.07c-.32,0-.6-.07-.82-.2-.23-.13-.4-.32-.51-.56s-.17-.54-.17-.89,.06-.66,.18-.92c.12-.26,.29-.45,.5-.59,.21-.13,.46-.2,.74-.2s.53,.07,.72,.21c.19,.14,.34,.32,.43,.55,.09,.22,.14,.47,.14,.74v.21Zm-.56-.39c-.02-.3-.1-.52-.23-.67-.13-.15-.31-.22-.53-.22s-.4,.08-.54,.23c-.14,.15-.24,.37-.28,.67h1.58Z"/><path d="M151.82,209.56c-.02-.12-.04-.26-.06-.4-.12,.14-.27,.26-.44,.34-.17,.08-.36,.13-.57,.13-.23,0-.43-.05-.62-.16s-.33-.28-.45-.51-.17-.53-.17-.89,.06-.68,.18-.95c.12-.27,.29-.48,.51-.62,.22-.15,.49-.22,.8-.22,.12,0,.25,.01,.38,.04,.13,.02,.25,.05,.35,.08v-1.44l.55-.06v3.86c0,.27,0,.54,.02,.81h-.5Zm-.45-.52c.16-.09,.28-.19,.37-.3v-1.92c-.11-.03-.22-.06-.35-.09-.12-.02-.24-.03-.34-.03-.2,0-.37,.05-.51,.15-.14,.1-.25,.25-.33,.45-.08,.2-.12,.45-.12,.74,0,.4,.07,.68,.21,.86,.14,.18,.33,.27,.55,.27,.17,0,.34-.04,.5-.13Z"/><path d="M157.38,206.44c.18,.11,.33,.28,.45,.52,.11,.24,.17,.54,.17,.9s-.06,.68-.18,.94c-.12,.27-.29,.47-.52,.61-.23,.14-.51,.21-.85,.21-.18,0-.38-.02-.61-.06-.23-.04-.43-.09-.61-.15v-4.46l.56-.06v1.83c.3-.3,.62-.45,.99-.45,.22,0,.42,.06,.61,.16Zm-.2,2.42c.17-.22,.25-.54,.25-.97s-.07-.71-.22-.89c-.14-.18-.33-.28-.57-.28-.17,0-.33,.04-.47,.12-.15,.08-.27,.18-.39,.29v1.95c.1,.04,.21,.06,.32,.08,.11,.02,.22,.02,.32,.02,.34,0,.59-.11,.75-.33Z"/><path d="M158.13,210.83l.11-.43s.1,.03,.18,.04c.08,.02,.15,.02,.22,.02,.18,0,.33-.06,.46-.19,.13-.13,.24-.32,.33-.56l.07-.16-1.22-3.22h.6l.68,1.94c.11,.33,.19,.58,.22,.75,.07-.23,.14-.47,.23-.72l.67-1.96h.58l-1.24,3.32c-.11,.3-.22,.54-.34,.72s-.26,.32-.42,.41c-.16,.09-.36,.14-.59,.14-.2,0-.38-.03-.54-.08Z"/><path d="M163.8,205.21h.64l2.36,3.59c-.02-.32-.03-.62-.03-.89v-2.71h.54v4.35h-.62l-2.39-3.64c.01,.15,.02,.32,.03,.52,0,.2,.01,.38,.01,.53v2.59h-.54v-4.35Z"/><path d="M170.88,207.97h-2.16c0,.4,.1,.7,.27,.91,.18,.2,.44,.3,.78,.3,.31,0,.61-.07,.91-.21l.13,.4c-.16,.08-.33,.14-.52,.19s-.39,.07-.63,.07c-.32,0-.6-.07-.82-.2-.23-.13-.4-.32-.51-.56s-.17-.54-.17-.89,.06-.66,.18-.92c.12-.26,.29-.45,.5-.59,.21-.13,.46-.2,.74-.2s.53,.07,.72,.21c.19,.14,.34,.32,.43,.55,.09,.22,.14,.47,.14,.74v.21Zm-.56-.39c-.02-.3-.1-.52-.23-.67-.13-.15-.31-.22-.53-.22s-.4,.08-.54,.23c-.14,.15-.24,.37-.28,.67h1.58Z"/><path d="M173.58,209.56c-.02-.1-.04-.25-.05-.45-.12,.14-.28,.26-.47,.36-.19,.1-.41,.15-.64,.15-.19,0-.35-.04-.5-.11-.15-.07-.27-.18-.35-.32-.09-.14-.13-.32-.13-.52,0-.31,.11-.56,.34-.75,.22-.19,.6-.28,1.12-.28,.2,0,.41,.01,.62,.04v-.08c0-.33-.07-.57-.2-.7-.14-.13-.32-.2-.57-.2-.16,0-.33,.02-.5,.07s-.33,.1-.46,.17l-.1-.42c.12-.06,.28-.11,.49-.16,.21-.05,.42-.08,.65-.08,.26,0,.48,.04,.66,.13,.18,.09,.32,.23,.42,.44,.1,.21,.15,.48,.15,.84v1.28c0,.13,0,.34,.02,.61h-.51Zm-.49-.51c.18-.09,.32-.2,.42-.32v-.7c-.2-.02-.39-.03-.56-.03-.36,0-.61,.06-.75,.17-.14,.12-.21,.27-.21,.47,0,.19,.05,.32,.15,.41,.1,.09,.23,.13,.4,.13,.18,0,.36-.05,.54-.13Z"/><path d="M175.05,207.15c0-.18,0-.45-.02-.81h.51c.01,.09,.02,.2,.03,.33,0,.13,.02,.23,.02,.3,.09-.14,.17-.26,.26-.36s.18-.18,.3-.24c.11-.06,.24-.09,.39-.09,.11,0,.21,.01,.29,.04l-.08,.49c-.08-.02-.16-.03-.24-.03-.18,0-.34,.05-.47,.15s-.28,.27-.44,.49v2.15h-.55v-2.41Z"/><path d="M177.46,205.21h.57v3.85h1.89l-.06,.51h-2.39v-4.35Z"/><path d="M180.53,205.69c-.07-.07-.1-.16-.1-.27s.03-.2,.1-.26,.15-.1,.26-.1,.2,.03,.27,.1,.11,.15,.11,.26-.04,.2-.11,.27-.16,.1-.26,.1-.19-.03-.26-.1Zm-.02,.65h.55v3.23h-.55v-3.23Z"/><path d="M182.07,207.16c0-.3,0-.58-.02-.82h.51c.01,.07,.02,.15,.03,.26s.02,.19,.02,.25c.16-.17,.33-.31,.51-.41s.39-.15,.63-.15c.32,0,.56,.1,.73,.31,.16,.21,.25,.51,.25,.91v2.07h-.55v-2.03c0-.54-.2-.81-.59-.81-.18,0-.34,.05-.5,.15-.16,.1-.31,.23-.45,.39v2.29h-.55v-2.4Z"/><path d="M185.68,204.95l.55-.06v2.96l1.41-1.52h.63l-1.27,1.34,1.39,1.88h-.66l-1.1-1.53-.4,.34v1.19h-.55v-4.61Z"/><path d="M188.59,207.27l.27-.25c.26-.24,.45-.43,.57-.56,.13-.13,.23-.26,.29-.39,.07-.13,.1-.26,.1-.39,0-.16-.04-.28-.14-.36-.09-.08-.21-.12-.35-.12-.12,0-.22,.03-.32,.07s-.2,.12-.29,.21l-.13-.24c.09-.1,.2-.17,.33-.23,.13-.06,.27-.08,.43-.08,.14,0,.27,.03,.39,.08,.12,.06,.21,.14,.29,.25s.11,.24,.11,.4-.04,.3-.12,.44c-.08,.14-.19,.29-.32,.43-.14,.14-.32,.33-.57,.55l-.15,.14h1.27l-.04,.28h-1.65v-.24Z"/><path d="M192.88,204.95h.43v5.9h-.43v-5.9Z"/><path d="M196.36,205.21h1.31c.47,0,.88,.08,1.22,.23,.34,.15,.6,.38,.78,.69s.27,.68,.27,1.12-.09,.85-.28,1.2-.45,.62-.8,.82-.76,.29-1.23,.29h-1.27v-4.35Zm1.22,3.89c.38,0,.71-.08,.97-.23,.27-.15,.46-.37,.59-.64,.13-.27,.2-.59,.2-.95,0-.53-.14-.93-.43-1.2-.29-.27-.72-.4-1.3-.4h-.68v3.42h.65Z"/><path d="M203.21,207.97h-2.16c0,.4,.1,.7,.27,.91,.18,.2,.44,.3,.78,.3,.31,0,.61-.07,.91-.21l.13,.4c-.16,.08-.33,.14-.52,.19s-.39,.07-.63,.07c-.32,0-.6-.07-.82-.2-.23-.13-.4-.32-.51-.56s-.17-.54-.17-.89,.06-.66,.18-.92c.12-.26,.29-.45,.5-.59,.21-.13,.46-.2,.74-.2s.53,.07,.72,.21c.19,.14,.34,.32,.43,.55,.09,.22,.14,.47,.14,.74v.21Zm-.56-.39c-.02-.3-.1-.52-.23-.67-.13-.15-.31-.22-.53-.22s-.4,.08-.54,.23c-.14,.15-.24,.37-.28,.67h1.58Z"/><path d="M204.29,209.39c-.15-.16-.23-.42-.23-.78v-1.84h-.43l.07-.38,.37-.05,.04-.75,.49-.08v.83h.96l-.07,.43h-.89v1.79c0,.21,.04,.37,.12,.47s.21,.15,.38,.15c.13,0,.28-.03,.46-.09l.1,.39c-.09,.04-.2,.08-.32,.11-.12,.03-.25,.05-.39,.05-.29,0-.51-.08-.66-.23Z"/><path d="M208.14,209.56c-.02-.1-.04-.25-.05-.45-.12,.14-.28,.26-.47,.36-.19,.1-.41,.15-.64,.15-.19,0-.35-.04-.5-.11-.15-.07-.27-.18-.35-.32-.09-.14-.13-.32-.13-.52,0-.31,.11-.56,.34-.75,.22-.19,.6-.28,1.12-.28,.2,0,.41,.01,.62,.04v-.08c0-.33-.07-.57-.2-.7-.14-.13-.32-.2-.57-.2-.16,0-.33,.02-.5,.07s-.33,.1-.46,.17l-.1-.42c.12-.06,.28-.11,.49-.16,.21-.05,.42-.08,.65-.08,.26,0,.48,.04,.66,.13,.18,.09,.32,.23,.42,.44,.1,.21,.15,.48,.15,.84v1.28c0,.13,0,.34,.02,.61h-.51Zm-.49-.51c.18-.09,.32-.2,.42-.32v-.7c-.2-.02-.39-.03-.56-.03-.36,0-.61,.06-.75,.17-.14,.12-.21,.27-.21,.47,0,.19,.05,.32,.15,.41,.1,.09,.23,.13,.4,.13,.18,0,.36-.05,.54-.13Z"/><path d="M210.06,209.44c-.21-.12-.38-.3-.5-.54s-.18-.53-.18-.87,.06-.66,.19-.93c.13-.26,.3-.47,.53-.61,.23-.14,.49-.22,.78-.22,.17,0,.34,.02,.51,.07s.32,.1,.44,.17l-.15,.41c-.12-.06-.24-.11-.38-.15-.14-.04-.27-.06-.39-.06-.2,0-.37,.05-.51,.16-.14,.1-.25,.25-.32,.44-.07,.19-.11,.42-.11,.68,0,.4,.08,.69,.25,.89,.17,.2,.4,.3,.71,.3,.12,0,.24-.01,.37-.04,.12-.03,.25-.08,.39-.14l.12,.39c-.14,.07-.29,.13-.45,.17-.16,.04-.34,.06-.52,.06-.29,0-.55-.06-.76-.18Z"/><path d="M214.84,206.58c.17,.2,.25,.5,.25,.9v2.09h-.55v-2.04c0-.28-.05-.48-.15-.61s-.25-.19-.45-.19c-.32,0-.63,.17-.95,.52v2.31h-.55v-4.61l.55-.06v1.94c.15-.16,.32-.3,.49-.4,.18-.1,.38-.16,.61-.16,.32,0,.57,.1,.74,.3Z"/><path d="M217.97,209.56c-.02-.1-.04-.25-.05-.45-.12,.14-.28,.26-.47,.36-.19,.1-.41,.15-.64,.15-.19,0-.35-.04-.5-.11-.15-.07-.27-.18-.35-.32-.09-.14-.13-.32-.13-.52,0-.31,.11-.56,.34-.75,.22-.19,.6-.28,1.12-.28,.2,0,.41,.01,.62,.04v-.08c0-.33-.07-.57-.2-.7-.14-.13-.32-.2-.57-.2-.16,0-.33,.02-.5,.07s-.33,.1-.46,.17l-.1-.42c.12-.06,.28-.11,.49-.16,.21-.05,.42-.08,.65-.08,.26,0,.48,.04,.66,.13,.18,.09,.32,.23,.42,.44,.1,.21,.15,.48,.15,.84v1.28c0,.13,0,.34,.02,.61h-.51Zm-.49-.51c.18-.09,.32-.2,.42-.32v-.7c-.2-.02-.39-.03-.56-.03-.36,0-.61,.06-.75,.17-.14,.12-.21,.27-.21,.47,0,.19,.05,.32,.15,.41,.1,.09,.23,.13,.4,.13,.18,0,.36-.05,.54-.13Z"/><path d="M221.6,206.44c.18,.11,.33,.28,.45,.52,.11,.24,.17,.54,.17,.9s-.06,.68-.18,.94c-.12,.27-.29,.47-.52,.61-.23,.14-.51,.21-.85,.21-.18,0-.38-.02-.61-.06-.23-.04-.43-.09-.61-.15v-4.46l.56-.06v1.83c.3-.3,.62-.45,.99-.45,.22,0,.42,.06,.61,.16Zm-.2,2.42c.17-.22,.25-.54,.25-.97s-.07-.71-.22-.89c-.14-.18-.33-.28-.57-.28-.17,0-.33,.04-.47,.12-.15,.08-.27,.18-.39,.29v1.95c.1,.04,.21,.06,.32,.08,.11,.02,.22,.02,.32,.02,.34,0,.59-.11,.75-.33Z"/><path d="M223.14,209.43c-.12-.13-.18-.33-.18-.59v-3.89l.55-.06v3.86c0,.15,.02,.26,.07,.32,.05,.06,.12,.09,.23,.09,.04,0,.1,0,.17-.03l.08,.42c-.05,.02-.12,.04-.2,.05-.08,.01-.15,.02-.21,.02-.23,0-.4-.06-.52-.19Z"/><path d="M227.15,207.97h-2.16c0,.4,.1,.7,.27,.91,.18,.2,.44,.3,.78,.3,.31,0,.61-.07,.91-.21l.13,.4c-.16,.08-.33,.14-.52,.19s-.39,.07-.63,.07c-.32,0-.6-.07-.82-.2-.23-.13-.4-.32-.51-.56s-.17-.54-.17-.89,.06-.66,.18-.92c.12-.26,.29-.45,.5-.59,.21-.13,.46-.2,.74-.2s.53,.07,.72,.21c.19,.14,.34,.32,.43,.55,.09,.22,.14,.47,.14,.74v.21Zm-.56-.39c-.02-.3-.1-.52-.23-.67-.13-.15-.31-.22-.53-.22s-.4,.08-.54,.23c-.14,.15-.24,.37-.28,.67h1.58Z"/><path d="M229.93,205.21h.57v2.29c.19-.22,.33-.4,.43-.54l1.38-1.76h.65l-1.57,1.94,1.7,2.41h-.66l-1.4-2.02-.53,.56v1.47h-.57v-4.35Z"/><path d="M236.07,207.97h-2.16c0,.4,.1,.7,.27,.91,.18,.2,.44,.3,.78,.3,.31,0,.61-.07,.91-.21l.13,.4c-.16,.08-.33,.14-.52,.19s-.39,.07-.63,.07c-.32,0-.6-.07-.82-.2-.23-.13-.4-.32-.51-.56s-.17-.54-.17-.89,.06-.66,.18-.92c.12-.26,.29-.45,.5-.59,.21-.13,.46-.2,.74-.2s.53,.07,.72,.21c.19,.14,.34,.32,.43,.55,.09,.22,.14,.47,.14,.74v.21Zm-.56-.39c-.02-.3-.1-.52-.23-.67-.13-.15-.31-.22-.53-.22s-.4,.08-.54,.23c-.14,.15-.24,.37-.28,.67h1.58Z"/><path d="M236.22,210.83l.11-.43s.1,.03,.18,.04c.08,.02,.15,.02,.22,.02,.18,0,.33-.06,.46-.19,.13-.13,.24-.32,.33-.56l.07-.16-1.22-3.22h.6l.68,1.94c.11,.33,.19,.58,.22,.75,.07-.23,.14-.47,.23-.72l.67-1.96h.58l-1.24,3.32c-.11,.3-.22,.54-.34,.72s-.26,.32-.42,.41c-.16,.09-.36,.14-.59,.14-.2,0-.38-.03-.54-.08Z"/><path d="M242.02,206.44c.18,.11,.33,.28,.45,.52,.11,.24,.17,.54,.17,.9s-.06,.68-.18,.94c-.12,.27-.29,.47-.52,.61-.23,.14-.51,.21-.85,.21-.18,0-.38-.02-.61-.06-.23-.04-.43-.09-.61-.15v-4.46l.56-.06v1.83c.3-.3,.62-.45,.99-.45,.22,0,.42,.06,.61,.16Zm-.2,2.42c.17-.22,.25-.54,.25-.97s-.07-.71-.22-.89c-.14-.18-.33-.28-.57-.28-.17,0-.33,.04-.47,.12-.15,.08-.27,.18-.39,.29v1.95c.1,.04,.21,.06,.32,.08,.11,.02,.22,.02,.32,.02,.34,0,.59-.11,.75-.33Z"/><path d="M243.89,209.43c-.23-.13-.4-.32-.53-.56s-.19-.54-.19-.88,.07-.65,.19-.9c.13-.26,.31-.46,.54-.6,.23-.14,.49-.21,.79-.21s.55,.07,.78,.2,.4,.33,.53,.58c.13,.25,.19,.55,.19,.89s-.07,.65-.2,.9c-.13,.25-.31,.44-.54,.58-.23,.13-.49,.2-.78,.2s-.55-.07-.77-.19Zm1.49-.56c.15-.21,.23-.5,.23-.88s-.08-.7-.24-.93-.39-.35-.7-.35-.54,.11-.7,.34c-.15,.22-.23,.52-.23,.9,0,.26,.04,.48,.11,.66s.18,.33,.33,.42c.14,.1,.32,.15,.52,.15,.3,0,.53-.11,.68-.32Z"/><path d="M248.88,209.56c-.02-.1-.04-.25-.05-.45-.12,.14-.28,.26-.47,.36-.19,.1-.41,.15-.64,.15-.19,0-.35-.04-.5-.11-.15-.07-.27-.18-.35-.32-.09-.14-.13-.32-.13-.52,0-.31,.11-.56,.34-.75,.22-.19,.6-.28,1.12-.28,.2,0,.41,.01,.62,.04v-.08c0-.33-.07-.57-.2-.7-.14-.13-.32-.2-.57-.2-.16,0-.33,.02-.5,.07s-.33,.1-.46,.17l-.1-.42c.12-.06,.28-.11,.49-.16,.21-.05,.42-.08,.65-.08,.26,0,.48,.04,.66,.13,.18,.09,.32,.23,.42,.44,.1,.21,.15,.48,.15,.84v1.28c0,.13,0,.34,.02,.61h-.51Zm-.49-.51c.18-.09,.32-.2,.42-.32v-.7c-.2-.02-.39-.03-.56-.03-.36,0-.61,.06-.75,.17-.14,.12-.21,.27-.21,.47,0,.19,.05,.32,.15,.41,.1,.09,.23,.13,.4,.13,.18,0,.36-.05,.54-.13Z"/><path d="M250.36,207.15c0-.18,0-.45-.02-.81h.51c.01,.09,.02,.2,.03,.33,0,.13,.02,.23,.02,.3,.09-.14,.17-.26,.26-.36s.18-.18,.3-.24c.11-.06,.24-.09,.39-.09,.11,0,.21,.01,.29,.04l-.08,.49c-.08-.02-.16-.03-.24-.03-.18,0-.34,.05-.47,.15s-.28,.27-.44,.49v2.15h-.55v-2.41Z"/><path d="M254.6,209.56c-.02-.12-.04-.26-.06-.4-.12,.14-.27,.26-.44,.34-.17,.08-.36,.13-.57,.13-.23,0-.43-.05-.62-.16s-.33-.28-.45-.51-.17-.53-.17-.89,.06-.68,.18-.95c.12-.27,.29-.48,.51-.62,.22-.15,.49-.22,.8-.22,.12,0,.25,.01,.38,.04,.13,.02,.25,.05,.35,.08v-1.44l.55-.06v3.86c0,.27,0,.54,.02,.81h-.5Zm-.45-.52c.16-.09,.28-.19,.37-.3v-1.92c-.11-.03-.22-.06-.35-.09-.12-.02-.24-.03-.34-.03-.2,0-.37,.05-.51,.15-.14,.1-.25,.25-.33,.45-.08,.2-.12,.45-.12,.74,0,.4,.07,.68,.21,.86,.14,.18,.33,.27,.55,.27,.17,0,.34-.04,.5-.13Z"/><path d="M258.02,204.95h.43v5.9h-.43v-5.9Z"/><path d="M261.5,205.21h.57v1.85h2.34v-1.85h.56v4.35h-.56v-2.02h-2.34v2.02h-.57v-4.35Z"/><path d="M266.92,209.44c-.26-.12-.45-.3-.59-.54s-.21-.51-.21-.84v-2.86h.56v2.75c0,.39,.1,.68,.29,.88,.19,.2,.48,.3,.86,.3s.67-.1,.86-.31c.18-.21,.27-.5,.27-.89v-2.73h.56v2.85c0,.33-.07,.61-.2,.85-.14,.23-.33,.41-.58,.54-.25,.12-.55,.18-.9,.18s-.65-.06-.91-.19Z"/><path d="M272.94,208.3h-1.85l-.48,1.27h-.6l1.74-4.35h.51l1.78,4.35h-.61l-.5-1.27Zm-1.68-.46h1.5l-.54-1.4c-.05-.12-.11-.28-.18-.49l-.04-.1c-.06,.18-.12,.37-.2,.58l-.54,1.4Z"/><path d="M274.03,205.21h.6l.74,2.73c.1,.34,.16,.64,.2,.91,.08-.36,.17-.69,.26-1l.78-2.64h.58l.81,2.68c.12,.38,.2,.7,.23,.96,.03-.13,.06-.26,.09-.4,.04-.14,.07-.28,.12-.43v-.06l.75-2.75h.57l-1.23,4.35h-.58l-.77-2.56c-.07-.22-.12-.42-.17-.6s-.09-.35-.13-.54c-.09,.4-.19,.76-.29,1.11l-.76,2.59h-.58l-1.24-4.35Z"/><path d="M280.48,205.21h2.48l-.07,.48h-1.84v1.39h1.74v.47h-1.74v1.53h1.93l-.06,.49h-2.43v-4.35Z"/><path d="M283.85,205.21h.57v4.35h-.57v-4.35Z"/><path d="M287.53,205.21h.64l2.36,3.59c-.02-.32-.03-.62-.03-.89v-2.71h.54v4.35h-.62l-2.39-3.64c.01,.15,.02,.32,.03,.52,0,.2,.01,.38,.01,.53v2.59h-.54v-4.35Z"/><path d="M292.62,209.43c-.23-.13-.4-.32-.53-.56s-.19-.54-.19-.88,.07-.65,.19-.9c.13-.26,.31-.46,.54-.6,.23-.14,.49-.21,.79-.21s.55,.07,.78,.2,.4,.33,.53,.58c.13,.25,.19,.55,.19,.89s-.07,.65-.2,.9c-.13,.25-.31,.44-.54,.58-.23,.13-.49,.2-.78,.2s-.55-.07-.77-.19Zm1.49-.56c.15-.21,.23-.5,.23-.88s-.08-.7-.24-.93-.39-.35-.7-.35-.54,.11-.7,.34c-.15,.22-.23,.52-.23,.9,0,.26,.04,.48,.11,.66s.18,.33,.33,.42c.14,.1,.32,.15,.52,.15,.3,0,.53-.11,.68-.32Z"/><path d="M295.99,209.39c-.15-.16-.23-.42-.23-.78v-1.84h-.43l.07-.38,.37-.05,.04-.75,.49-.08v.83h.96l-.07,.43h-.89v1.79c0,.21,.04,.37,.12,.47s.21,.15,.38,.15c.13,0,.28-.03,.46-.09l.1,.39c-.09,.04-.2,.08-.32,.11-.12,.03-.25,.05-.39,.05-.29,0-.51-.08-.66-.23Z"/><path d="M300.4,207.97h-2.16c0,.4,.1,.7,.27,.91,.18,.2,.44,.3,.78,.3,.31,0,.61-.07,.91-.21l.13,.4c-.16,.08-.33,.14-.52,.19s-.39,.07-.63,.07c-.32,0-.6-.07-.82-.2-.23-.13-.4-.32-.51-.56s-.17-.54-.17-.89,.06-.66,.18-.92c.12-.26,.29-.45,.5-.59,.21-.13,.46-.2,.74-.2s.53,.07,.72,.21c.19,.14,.34,.32,.43,.55,.09,.22,.14,.47,.14,.74v.21Zm-.56-.39c-.02-.3-.1-.52-.23-.67-.13-.15-.31-.22-.53-.22s-.4,.08-.54,.23c-.14,.15-.24,.37-.28,.67h1.58Z"/><path d="M301.3,209.57c-.17-.04-.31-.09-.43-.15l.14-.41c.11,.05,.24,.1,.39,.13,.15,.04,.3,.05,.44,.05,.23,0,.4-.05,.52-.14,.12-.09,.18-.21,.18-.37,0-.1-.03-.18-.08-.25-.05-.07-.13-.13-.23-.18-.1-.05-.25-.12-.44-.19-.19-.08-.35-.15-.47-.23-.12-.08-.22-.18-.29-.29-.07-.11-.1-.25-.1-.41,0-.18,.04-.33,.13-.46,.08-.13,.2-.23,.37-.3,.16-.07,.35-.11,.58-.11,.32,0,.64,.07,.96,.22l-.11,.4c-.14-.06-.27-.11-.42-.15-.14-.04-.28-.05-.41-.05-.18,0-.32,.04-.42,.11-.1,.07-.15,.17-.15,.29,0,.08,.03,.16,.08,.21s.12,.11,.21,.16c.09,.05,.23,.11,.42,.18,.2,.09,.37,.16,.49,.23,.12,.07,.22,.17,.3,.29s.12,.27,.12,.46c0,.2-.05,.38-.14,.53-.1,.15-.24,.27-.42,.35-.19,.08-.41,.13-.67,.13-.18,0-.36-.02-.53-.06Z"/></g><g><path d="M31.68,147.99h4.12c1.99,0,3.51,.41,4.56,1.23,1.05,.82,1.57,2.01,1.57,3.56,0,1.08-.25,2.02-.74,2.84-.49,.81-1.19,1.44-2.08,1.88-.89,.44-1.91,.66-3.06,.66-.75,0-1.5-.09-2.25-.26v6.49h-2.13v-16.39Zm7.06,7.5c.71-.63,1.06-1.51,1.06-2.63s-.34-1.91-1.04-2.41c-.69-.5-1.69-.75-3.01-.75h-1.95v6.54c.71,.13,1.33,.19,1.86,.19,1.34,0,2.37-.32,3.07-.95Z"/><path d="M51.53,164.38c-.08-.38-.14-.94-.18-1.69-.45,.54-1.04,.99-1.77,1.36-.73,.37-1.53,.55-2.42,.55-.7,0-1.33-.14-1.89-.41-.56-.27-1-.68-1.32-1.21-.32-.54-.49-1.19-.49-1.96,0-1.17,.42-2.11,1.27-2.81,.84-.71,2.25-1.06,4.21-1.06,.75,0,1.53,.05,2.34,.16v-.31c0-1.25-.25-2.13-.76-2.64-.51-.51-1.22-.76-2.13-.76-.6,0-1.23,.09-1.88,.26-.65,.17-1.23,.38-1.74,.62l-.36-1.6c.45-.22,1.06-.42,1.84-.62,.78-.19,1.6-.29,2.45-.29,.98,0,1.81,.16,2.5,.49,.68,.32,1.22,.88,1.6,1.65,.38,.78,.57,1.83,.57,3.15v4.8c0,.51,.03,1.27,.09,2.3h-1.92Zm-1.84-1.91c.68-.34,1.21-.74,1.59-1.22v-2.63c-.75-.08-1.45-.12-2.09-.12-1.35,0-2.29,.22-2.81,.66-.52,.44-.79,1.03-.79,1.77,0,.7,.19,1.22,.56,1.55,.37,.33,.88,.5,1.51,.5,.68,0,1.36-.17,2.03-.5Z"/><path d="M57.09,155.15c0-1.07-.03-2.04-.09-2.92h1.94c.1,.57,.16,1.06,.19,1.48,.51-.51,1.09-.93,1.72-1.25,.63-.32,1.32-.47,2.07-.47,.82,0,1.58,.21,2.27,.62s1.25,1.07,1.68,1.96c.43,.89,.65,2.03,.65,3.41s-.23,2.58-.68,3.57c-.46,.99-1.11,1.75-1.95,2.27-.84,.52-1.83,.78-2.97,.78-.49,0-.97-.05-1.45-.14-.48-.09-.9-.22-1.28-.37v5.14l-2.09,.24v-14.33Zm7.32,6.58c.63-.84,.95-2.06,.95-3.66s-.27-2.64-.81-3.33c-.54-.69-1.26-1.04-2.15-1.04-1.15,0-2.21,.53-3.2,1.57v7.19c.34,.17,.72,.29,1.14,.38s.85,.14,1.28,.14c1.24,0,2.17-.42,2.8-1.26Z"/><path d="M79.74,158.38h-8.11c.01,1.52,.36,2.65,1.04,3.41,.68,.76,1.65,1.14,2.93,1.14,1.17,0,2.31-.26,3.43-.78l.49,1.49c-.61,.31-1.26,.55-1.94,.71s-1.48,.25-2.38,.25c-1.22,0-2.25-.25-3.1-.74-.85-.49-1.49-1.2-1.92-2.12-.43-.92-.65-2.03-.65-3.33s.23-2.49,.68-3.45c.45-.97,1.08-1.7,1.9-2.21,.81-.51,1.75-.76,2.8-.76s1.99,.26,2.72,.78c.73,.52,1.27,1.21,1.61,2.05,.35,.85,.52,1.77,.52,2.77v.78Zm-2.09-1.47c-.07-1.12-.36-1.96-.85-2.52-.49-.56-1.16-.84-1.99-.84s-1.5,.28-2.04,.85-.89,1.41-1.05,2.51h5.93Z"/><path d="M82.61,155.29c0-.68-.03-1.7-.09-3.06h1.92c.05,.34,.09,.75,.13,1.23,.04,.48,.06,.86,.08,1.14,.33-.54,.66-.99,.97-1.36,.32-.37,.69-.67,1.12-.9,.43-.23,.92-.34,1.47-.34,.41,0,.78,.05,1.11,.15l-.29,1.85c-.29-.08-.59-.11-.9-.11-.67,0-1.26,.19-1.78,.57s-1.06,1-1.65,1.85v8.08h-2.08v-9.09Z"/><path d="M94.63,153.49c-.19-.44-.39-.97-.61-1.58-.22-.61-.39-1.13-.53-1.57,.03,.42,.06,1.02,.08,1.79,.02,.77,.03,1.5,.03,2.2v10.05h-1.96v-16.39h2.81l4.31,10.28c.65,1.54,1.09,2.77,1.34,3.69,.33-1.02,.8-2.24,1.42-3.66l4.4-10.31h2.74v16.39h-2.1v-10.05c0-.93,.05-2.26,.16-3.98-.4,1.25-.83,2.41-1.3,3.47l-4.55,10.58h-1.66l-4.57-10.91Z"/><path d="M120.05,164.38c-.08-.38-.14-.94-.18-1.69-.45,.54-1.04,.99-1.77,1.36s-1.53,.55-2.42,.55c-.7,0-1.33-.14-1.89-.41-.56-.27-1-.68-1.32-1.21-.32-.54-.49-1.19-.49-1.96,0-1.17,.42-2.11,1.27-2.81,.84-.71,2.25-1.06,4.21-1.06,.75,0,1.53,.05,2.34,.16v-.31c0-1.25-.25-2.13-.76-2.64-.51-.51-1.22-.76-2.13-.76-.6,0-1.23,.09-1.88,.26-.65,.17-1.23,.38-1.74,.62l-.36-1.6c.45-.22,1.06-.42,1.84-.62,.78-.19,1.6-.29,2.45-.29,.98,0,1.81,.16,2.5,.49,.68,.32,1.22,.88,1.6,1.65,.38,.78,.57,1.83,.57,3.15v4.8c0,.51,.03,1.27,.09,2.3h-1.92Zm-1.84-1.91c.68-.34,1.21-.74,1.59-1.22v-2.63c-.75-.08-1.45-.12-2.09-.12-1.35,0-2.29,.22-2.81,.66s-.79,1.03-.79,1.77c0,.7,.19,1.22,.56,1.55,.37,.33,.88,.5,1.51,.5,.68,0,1.36-.17,2.03-.5Z"/><path d="M126.79,163.72c-.58-.59-.87-1.57-.87-2.93v-6.94h-1.61l.28-1.42,1.39-.2,.16-2.82,1.83-.29v3.11h3.62l-.28,1.62h-3.34v6.73c0,.81,.15,1.4,.45,1.77,.3,.37,.77,.55,1.42,.55,.47,0,1.06-.12,1.74-.35l.36,1.46c-.35,.17-.75,.31-1.2,.42-.45,.11-.94,.17-1.47,.17-1.09,0-1.92-.29-2.5-.88Z"/><path d="M135,163.72c-.58-.59-.87-1.57-.87-2.93v-6.94h-1.61l.28-1.42,1.39-.2,.16-2.82,1.83-.29v3.11h3.62l-.28,1.62h-3.34v6.73c0,.81,.15,1.4,.45,1.77s.77,.55,1.42,.55c.47,0,1.06-.12,1.74-.35l.36,1.46c-.35,.17-.75,.31-1.2,.42-.45,.11-.94,.17-1.47,.17-1.09,0-1.92-.29-2.5-.88Z"/><path d="M151.59,158.38h-8.11c.01,1.52,.36,2.65,1.04,3.41,.68,.76,1.65,1.14,2.93,1.14,1.17,0,2.31-.26,3.43-.78l.49,1.49c-.61,.31-1.26,.55-1.94,.71s-1.48,.25-2.38,.25c-1.22,0-2.25-.25-3.1-.74-.85-.49-1.49-1.2-1.92-2.12-.43-.92-.65-2.03-.65-3.33s.23-2.49,.68-3.45c.45-.97,1.08-1.7,1.9-2.21s1.75-.76,2.8-.76,1.99,.26,2.72,.78c.73,.52,1.27,1.21,1.61,2.05,.35,.85,.52,1.77,.52,2.77v.78Zm-2.09-1.47c-.07-1.12-.36-1.96-.85-2.52-.49-.56-1.16-.84-1.99-.84s-1.5,.28-2.04,.85c-.54,.57-.89,1.41-1.05,2.51h5.93Z"/><path d="M156.09,148.3l-1.84,1.2-.5-.9,2.41-1.55h1.16v9.61h-1.23v-8.36Z"/><path d="M160.81,167.66c.44-.92,.77-1.9,1-2.94,.23-1.04,.35-2.08,.35-3.13l2.1,.2c0,1.14-.21,2.25-.62,3.34-.41,1.09-.89,2.02-1.42,2.79l-1.41-.27Z"/><path d="M175.14,147.99h4.74c1.74,0,3.07,.36,4.02,1.09,.94,.73,1.41,1.78,1.41,3.15,0,.88-.18,1.65-.54,2.31-.36,.66-.81,1.21-1.35,1.63-.54,.42-1.1,.75-1.69,.97l5.13,7.23h-2.54l-4.61-6.69h-2.44v6.69h-2.13v-16.39Zm4.05,7.99c.78,0,1.46-.15,2.06-.45,.6-.3,1.06-.72,1.39-1.27s.49-1.18,.49-1.88c0-.94-.3-1.62-.89-2.04-.6-.43-1.46-.64-2.6-.64h-2.36v6.28h1.92Z"/><path d="M198.27,158.38h-8.11c.01,1.52,.36,2.65,1.04,3.41,.68,.76,1.65,1.14,2.93,1.14,1.17,0,2.31-.26,3.43-.78l.49,1.49c-.61,.31-1.26,.55-1.94,.71s-1.48,.25-2.38,.25c-1.22,0-2.25-.25-3.1-.74-.85-.49-1.49-1.2-1.92-2.12-.43-.92-.65-2.03-.65-3.33s.23-2.49,.68-3.45c.45-.97,1.08-1.7,1.9-2.21s1.75-.76,2.8-.76,1.99,.26,2.72,.78c.73,.52,1.27,1.21,1.61,2.05,.35,.85,.52,1.77,.52,2.77v.78Zm-2.09-1.47c-.07-1.12-.36-1.96-.85-2.52-.49-.56-1.16-.84-1.99-.84s-1.5,.28-2.04,.85-.89,1.41-1.05,2.51h5.93Z"/><path d="M201.93,153.85h-1.92l.29-1.42,1.63-.2v-1.17c0-2.85,1.16-4.28,3.48-4.28,.42,0,.85,.04,1.27,.13,.43,.08,.8,.18,1.13,.31l-.34,1.53c-.63-.2-1.2-.31-1.73-.31-.59,0-1.02,.21-1.31,.62s-.42,1.12-.42,2.12v1.05h3.17l-.29,1.62h-2.88v10.53h-2.07v-10.53Z"/><path d="M209.26,155.29c0-.68-.03-1.7-.09-3.06h1.92c.05,.34,.09,.75,.13,1.23,.04,.48,.06,.86,.08,1.14,.33-.54,.66-.99,.97-1.36,.32-.37,.69-.67,1.12-.9,.43-.23,.92-.34,1.47-.34,.41,0,.78,.05,1.11,.15l-.29,1.85c-.29-.08-.59-.11-.9-.11-.67,0-1.26,.19-1.78,.57s-1.06,1-1.65,1.85v8.08h-2.08v-9.09Z"/><path d="M226.83,158.38h-8.11c.01,1.52,.36,2.65,1.04,3.41,.68,.76,1.65,1.14,2.93,1.14,1.17,0,2.31-.26,3.43-.78l.49,1.49c-.61,.31-1.26,.55-1.94,.71s-1.48,.25-2.38,.25c-1.22,0-2.25-.25-3.1-.74-.85-.49-1.49-1.2-1.92-2.12-.43-.92-.65-2.03-.65-3.33s.23-2.49,.68-3.45c.45-.97,1.08-1.7,1.9-2.21,.81-.51,1.75-.76,2.8-.76s1.99,.26,2.72,.78c.73,.52,1.27,1.21,1.61,2.05,.35,.85,.52,1.77,.52,2.77v.78Zm-2.09-1.47c-.07-1.12-.36-1.96-.85-2.52-.49-.56-1.16-.84-1.99-.84s-1.5,.28-2.04,.85-.89,1.41-1.05,2.51h5.93Z"/><path d="M230.22,164.39c-.63-.14-1.18-.32-1.63-.55l.52-1.55c.41,.2,.91,.37,1.48,.5s1.13,.2,1.66,.2c.86,0,1.51-.17,1.96-.51,.44-.34,.67-.8,.67-1.39,0-.37-.1-.68-.3-.93-.2-.25-.49-.47-.87-.67-.38-.19-.94-.43-1.68-.72-.72-.29-1.31-.58-1.77-.88-.46-.3-.83-.66-1.09-1.09-.26-.43-.39-.95-.39-1.55,0-.66,.16-1.24,.47-1.73,.31-.49,.77-.87,1.38-1.13s1.33-.4,2.18-.4c1.22,0,2.41,.28,3.6,.83l-.41,1.49c-.51-.24-1.03-.43-1.57-.57-.54-.14-1.05-.2-1.53-.2-.68,0-1.21,.14-1.58,.41-.37,.28-.56,.64-.56,1.09,0,.32,.1,.59,.29,.81s.46,.42,.8,.59c.34,.17,.87,.4,1.58,.69,.77,.33,1.38,.62,1.83,.88,.45,.26,.83,.62,1.13,1.08,.3,.46,.45,1.04,.45,1.74,0,.75-.18,1.41-.54,1.98-.36,.56-.89,1-1.58,1.31-.7,.31-1.54,.47-2.53,.47-.69,0-1.35-.07-1.98-.21Z"/><path d="M248.57,153.14c.63,.76,.95,1.89,.95,3.38v7.85h-2.08v-7.67c0-1.05-.19-1.81-.57-2.29-.38-.47-.95-.71-1.69-.71-1.19,0-2.38,.66-3.57,1.97v8.7h-2.08v-17.36l2.08-.23v7.29c.57-.61,1.19-1.11,1.86-1.5,.67-.39,1.44-.58,2.31-.58,1.22,0,2.15,.38,2.78,1.14Z"/><path d="M263.87,157.84l-5.46-9.86h2.3l3.02,5.66c.63,1.15,1.03,1.98,1.2,2.49,.26-.59,.66-1.38,1.2-2.37l3.16-5.78h2.14l-5.48,9.86v6.53h-2.08v-6.53Z"/><path d="M273.63,163.87c-.85-.49-1.51-1.19-2-2.12s-.72-2.04-.72-3.33,.24-2.43,.72-3.4,1.16-1.72,2.02-2.24c.86-.52,1.86-.79,2.98-.79s2.08,.26,2.93,.77c.85,.51,1.52,1.25,1.99,2.2,.48,.95,.71,2.07,.71,3.34s-.25,2.43-.74,3.38c-.49,.95-1.18,1.67-2.04,2.17-.87,.5-1.85,.75-2.95,.75s-2.05-.24-2.9-.73Zm5.62-2.12c.57-.79,.85-1.89,.85-3.29s-.3-2.63-.9-3.5c-.6-.87-1.48-1.3-2.64-1.3s-2.04,.42-2.62,1.26c-.58,.84-.87,1.97-.87,3.38,0,.97,.14,1.8,.42,2.49,.28,.69,.69,1.23,1.23,1.6,.54,.37,1.2,.55,1.97,.55,1.14,0,1.99-.4,2.56-1.19Z"/><path d="M285.86,163.45c-.61-.77-.92-1.92-.92-3.46v-7.76h2.05v7.65c0,1.06,.19,1.82,.57,2.3,.38,.47,.94,.71,1.68,.71,.67,0,1.31-.18,1.93-.55,.61-.37,1.18-.84,1.68-1.41v-8.7h2.08v9.1c0,.85,.03,1.86,.1,3.04h-1.87c-.05-.23-.1-.53-.15-.9s-.08-.68-.1-.95c-.63,.63-1.28,1.13-1.95,1.5-.66,.38-1.44,.57-2.32,.57-1.24,0-2.17-.38-2.79-1.15Z"/><path d="M298.7,155.29c0-.68-.03-1.7-.09-3.06h1.92c.05,.34,.09,.75,.13,1.23,.04,.48,.06,.86,.08,1.14,.33-.54,.66-.99,.97-1.36,.32-.37,.69-.67,1.12-.9,.43-.23,.92-.34,1.47-.34,.41,0,.78,.05,1.11,.15l-.29,1.85c-.29-.08-.59-.11-.9-.11-.67,0-1.26,.19-1.78,.57-.51,.38-1.06,1-1.65,1.85v8.08h-2.08v-9.09Z"/><path d="M312.73,147.99h2.34l4.52,12.13c.14,.39,.32,1.02,.57,1.91,.22-.74,.43-1.38,.62-1.91l4.49-12.13h2.18l-6.32,16.39h-2.11l-6.3-16.39Z"/><path d="M329.41,149.8c-.26-.26-.39-.59-.39-1s.13-.74,.39-.98c.26-.25,.58-.37,.98-.37s.73,.13,1,.38c.26,.25,.4,.58,.4,.98s-.13,.74-.4,1c-.27,.26-.6,.39-.99,.39s-.73-.13-.98-.39Zm-.07,2.43h2.08v12.15h-2.08v-12.15Z"/><path d="M335.75,164.39c-.63-.14-1.18-.32-1.63-.55l.52-1.55c.41,.2,.91,.37,1.48,.5s1.13,.2,1.66,.2c.86,0,1.51-.17,1.96-.51,.44-.34,.67-.8,.67-1.39,0-.37-.1-.68-.3-.93-.2-.25-.49-.47-.87-.67-.38-.19-.94-.43-1.68-.72-.72-.29-1.31-.58-1.77-.88-.46-.3-.83-.66-1.09-1.09-.26-.43-.39-.95-.39-1.55,0-.66,.16-1.24,.47-1.73,.31-.49,.77-.87,1.38-1.13s1.33-.4,2.18-.4c1.22,0,2.41,.28,3.6,.83l-.41,1.49c-.51-.24-1.03-.43-1.57-.57-.54-.14-1.05-.2-1.53-.2-.68,0-1.21,.14-1.58,.41-.37,.28-.56,.64-.56,1.09,0,.32,.1,.59,.29,.81s.46,.42,.8,.59c.34,.17,.87,.4,1.58,.69,.77,.33,1.38,.62,1.83,.88,.45,.26,.83,.62,1.13,1.08,.3,.46,.45,1.04,.45,1.74,0,.75-.18,1.41-.54,1.98-.36,.56-.89,1-1.58,1.31-.7,.31-1.54,.47-2.53,.47-.69,0-1.35-.07-1.98-.21Z"/><path d="M345.12,149.8c-.26-.26-.39-.59-.39-1s.13-.74,.39-.98c.26-.25,.58-.37,.98-.37s.73,.13,1,.38c.26,.25,.4,.58,.4,.98s-.13,.74-.4,1c-.27,.26-.6,.39-.99,.39s-.73-.13-.98-.39Zm-.07,2.43h2.08v12.15h-2.08v-12.15Z"/><path d="M352.78,163.87c-.85-.49-1.51-1.19-2-2.12s-.72-2.04-.72-3.33,.24-2.43,.72-3.4,1.16-1.72,2.02-2.24c.86-.52,1.86-.79,2.98-.79s2.08,.26,2.93,.77c.85,.51,1.52,1.25,1.99,2.2,.48,.95,.71,2.07,.71,3.34s-.25,2.43-.74,3.38c-.49,.95-1.18,1.67-2.04,2.17-.87,.5-1.85,.75-2.95,.75s-2.05-.24-2.9-.73Zm5.62-2.12c.57-.79,.85-1.89,.85-3.29s-.3-2.63-.9-3.5c-.6-.87-1.48-1.3-2.64-1.3s-2.04,.42-2.62,1.26c-.58,.84-.87,1.97-.87,3.38,0,.97,.14,1.8,.42,2.49,.28,.69,.69,1.23,1.23,1.6,.54,.37,1.2,.55,1.97,.55,1.14,0,1.99-.4,2.56-1.19Z"/><path d="M364.3,155.33c0-1.14-.03-2.17-.09-3.1h1.92c.05,.26,.09,.58,.13,.96,.04,.38,.06,.7,.08,.94,.61-.66,1.25-1.18,1.92-1.56,.67-.39,1.45-.58,2.36-.58,1.21,0,2.12,.39,2.74,1.17,.62,.78,.93,1.93,.93,3.44v7.78h-2.08v-7.64c0-2.02-.74-3.03-2.23-3.03-.66,0-1.29,.19-1.89,.56-.6,.37-1.17,.87-1.71,1.48v8.64h-2.08v-9.04Z"/></g><g><g><path d="M188.63,185.23c-.12-.27-.24-.6-.37-.97-.13-.37-.24-.69-.32-.96,.02,.26,.03,.63,.05,1.1,.01,.47,.02,.92,.02,1.35v6.17h-1.2v-10.07h1.72l2.65,6.31c.4,.95,.67,1.7,.82,2.27,.2-.63,.49-1.37,.87-2.25l2.7-6.33h1.68v10.07h-1.29v-6.17c0-.57,.03-1.39,.1-2.45-.25,.77-.51,1.48-.8,2.13l-2.79,6.5h-1.02l-2.81-6.7Z"/><path d="M204.24,191.92c-.05-.23-.09-.58-.11-1.04-.28,.33-.64,.61-1.09,.83-.45,.23-.94,.34-1.48,.34-.43,0-.82-.08-1.16-.25-.34-.17-.61-.41-.81-.74-.2-.33-.3-.73-.3-1.2,0-.72,.26-1.29,.78-1.73,.52-.43,1.38-.65,2.59-.65,.46,0,.94,.03,1.44,.1v-.19c0-.77-.16-1.31-.47-1.62-.31-.31-.75-.47-1.31-.47-.37,0-.76,.05-1.16,.16-.4,.11-.76,.23-1.07,.38l-.22-.98c.27-.13,.65-.26,1.13-.38s.98-.18,1.51-.18c.6,0,1.11,.1,1.53,.3,.42,.2,.75,.54,.98,1.02,.23,.48,.35,1.12,.35,1.93v2.95c0,.31,.02,.78,.06,1.41h-1.18Zm-1.13-1.17c.41-.21,.74-.46,.98-.75v-1.61c-.46-.05-.89-.08-1.29-.08-.83,0-1.41,.13-1.73,.4-.32,.27-.48,.63-.48,1.08s.11,.75,.34,.95c.23,.2,.54,.31,.93,.31,.42,0,.83-.1,1.25-.31Z"/><path d="M208.38,191.52c-.35-.36-.53-.96-.53-1.8v-4.26h-.99l.17-.87,.86-.13,.1-1.73,1.13-.18v1.91h2.22l-.17,.99h-2.05v4.14c0,.5,.09,.86,.28,1.08s.48,.34,.87,.34c.29,0,.65-.07,1.07-.22l.22,.9c-.21,.1-.46,.19-.74,.26-.28,.07-.58,.1-.9,.1-.67,0-1.18-.18-1.53-.54Z"/><path d="M218.57,188.23h-4.99c0,.93,.22,1.63,.64,2.1,.41,.47,1.01,.7,1.8,.7,.72,0,1.42-.16,2.11-.48l.3,.92c-.38,.19-.77,.34-1.19,.44s-.91,.15-1.46,.15c-.75,0-1.38-.15-1.9-.45s-.92-.74-1.18-1.3c-.27-.57-.4-1.25-.4-2.05s.14-1.53,.42-2.12c.28-.59,.67-1.05,1.16-1.36,.5-.31,1.07-.47,1.72-.47s1.22,.16,1.67,.48c.45,.32,.78,.74,.99,1.26,.21,.52,.32,1.09,.32,1.7v.48Zm-1.29-.9c-.05-.69-.22-1.2-.53-1.55-.3-.35-.71-.52-1.22-.52s-.92,.18-1.26,.53c-.33,.35-.55,.86-.64,1.54h3.64Z"/><path d="M220.56,181.85h2.53c1.22,0,2.16,.25,2.8,.75,.64,.5,.97,1.23,.97,2.19,0,.66-.15,1.24-.46,1.74-.3,.5-.73,.88-1.28,1.15-.55,.27-1.17,.41-1.88,.41-.46,0-.92-.05-1.38-.16v3.98h-1.31v-10.07Zm4.34,4.61c.43-.39,.65-.93,.65-1.62s-.21-1.17-.64-1.48c-.42-.31-1.04-.46-1.85-.46h-1.2v4.02c.44,.08,.82,.12,1.14,.12,.83,0,1.45-.19,1.89-.58Z"/><path d="M232.9,191.92c-.05-.23-.09-.58-.11-1.04-.28,.33-.64,.61-1.09,.83-.45,.23-.94,.34-1.48,.34-.43,0-.82-.08-1.16-.25-.34-.17-.61-.41-.81-.74-.2-.33-.3-.73-.3-1.2,0-.72,.26-1.29,.78-1.73,.52-.43,1.38-.65,2.59-.65,.46,0,.94,.03,1.44,.1v-.19c0-.77-.16-1.31-.47-1.62-.31-.31-.75-.47-1.31-.47-.37,0-.76,.05-1.16,.16-.4,.11-.76,.23-1.07,.38l-.22-.98c.27-.13,.65-.26,1.13-.38s.98-.18,1.51-.18c.6,0,1.11,.1,1.53,.3,.42,.2,.75,.54,.98,1.02,.23,.48,.35,1.12,.35,1.93v2.95c0,.31,.02,.78,.06,1.41h-1.18Zm-1.13-1.17c.41-.21,.74-.46,.98-.75v-1.61c-.46-.05-.89-.08-1.29-.08-.83,0-1.41,.13-1.73,.4-.32,.27-.48,.63-.48,1.08s.11,.75,.34,.95c.23,.2,.54,.31,.93,.31,.42,0,.83-.1,1.25-.31Z"/><path d="M241.07,191.92c-.06-.29-.1-.6-.13-.93-.29,.33-.63,.59-1.02,.78s-.83,.29-1.31,.29c-.52,0-1-.12-1.43-.37-.43-.25-.77-.64-1.03-1.18-.26-.54-.39-1.23-.39-2.06s.14-1.57,.41-2.19,.67-1.1,1.19-1.44,1.13-.5,1.85-.5c.28,0,.58,.03,.88,.08,.3,.06,.57,.12,.81,.19v-3.34l1.28-.14v8.92c0,.61,.02,1.24,.06,1.88h-1.16Zm-1.04-1.21c.37-.2,.65-.43,.86-.69v-4.45c-.25-.08-.52-.14-.8-.2-.29-.05-.54-.08-.78-.08-.45,0-.85,.12-1.18,.35-.33,.23-.59,.58-.77,1.05-.18,.46-.27,1.03-.27,1.7,0,.91,.17,1.58,.5,1.99,.33,.41,.76,.62,1.28,.62,.4,0,.79-.1,1.15-.3Z"/></g><g><path d="M249.75,183.11l-1.94,1.27-.53-.95,2.54-1.63h1.22v10.12h-1.29v-8.81Z"/><path d="M257.7,183.11l-1.94,1.27-.53-.95,2.54-1.63h1.22v10.12h-1.29v-8.81Z"/><path d="M263.01,191.78c-.16-.15-.24-.35-.24-.59s.08-.45,.24-.61,.36-.23,.6-.23,.45,.08,.61,.24,.23,.36,.23,.6-.08,.44-.23,.59c-.16,.15-.36,.23-.61,.23s-.44-.08-.6-.23Z"/><path d="M265.8,191.12l.4-1.05c.34,.27,.74,.5,1.18,.67,.44,.17,.92,.26,1.43,.26,.47,0,.88-.09,1.21-.28,.34-.19,.59-.45,.76-.79,.17-.34,.26-.73,.26-1.19,0-.68-.21-1.19-.63-1.54-.42-.35-1.01-.52-1.77-.52-.44,0-.86,.04-1.25,.13-.39,.08-.74,.19-1.05,.31l.4-5.27h5.08l-.14,1.11h-3.93l-.24,2.92c.44-.14,.93-.21,1.46-.21,.63,0,1.21,.11,1.73,.34,.52,.23,.93,.57,1.23,1.03s.45,1.02,.45,1.68-.14,1.26-.43,1.77c-.29,.51-.7,.89-1.23,1.17-.53,.27-1.15,.41-1.86,.41-1.2,0-2.21-.31-3.04-.93Z"/><path d="M273.62,185.07c.27-.57,.47-1.17,.62-1.8,.14-.64,.21-1.28,.21-1.92l1.29,.13c0,.7-.13,1.38-.38,2.05s-.54,1.24-.87,1.71l-.87-.17Zm2.47,0c.27-.57,.47-1.17,.62-1.8,.14-.64,.21-1.28,.21-1.92l1.29,.13c0,.7-.13,1.38-.38,2.05-.25,.67-.54,1.24-.87,1.71l-.87-.17Z"/><path d="M281.13,191.87c-.52-.13-1-.29-1.43-.51l.44-1.08c.4,.21,.84,.38,1.31,.5,.47,.13,.91,.19,1.31,.19,.44,0,.81-.07,1.11-.22,.3-.15,.52-.34,.66-.59,.15-.25,.22-.54,.22-.86,0-.35-.09-.64-.27-.88-.18-.24-.42-.44-.7-.59-.28-.16-.69-.34-1.21-.57-.57-.25-1.04-.48-1.41-.71-.37-.23-.67-.52-.91-.88-.24-.36-.36-.79-.36-1.31s.13-.99,.39-1.39c.26-.4,.63-.71,1.11-.93,.48-.22,1.04-.33,1.69-.33,.48,0,.96,.06,1.44,.17,.47,.11,.87,.26,1.2,.43l-.26,1.07c-.84-.38-1.63-.58-2.36-.58-.57,0-1.03,.12-1.38,.36-.35,.24-.53,.6-.53,1.08,0,.32,.09,.59,.26,.82,.17,.22,.41,.42,.72,.6,.31,.17,.74,.38,1.3,.62,.58,.25,1.05,.49,1.4,.71,.36,.22,.65,.51,.87,.87s.33,.79,.33,1.31c0,.59-.13,1.1-.4,1.53-.27,.43-.65,.77-1.16,1-.51,.23-1.11,.35-1.81,.35-.52,0-1.04-.06-1.56-.19Z"/></g><g><polygon points="126.57 185.91 121.96 185.91 121.96 181.85 119.92 181.85 119.92 191.92 121.96 191.92 121.96 187.83 126.57 187.83 126.57 191.92 128.62 191.92 128.62 181.85 126.57 181.85 126.57 185.91"/><path d="M138.08,187.61c0,1.64-.81,2.51-2.29,2.51s-2.3-.9-2.3-2.58v-5.69h-2.04v5.76c0,2.83,1.57,4.46,4.32,4.46s4.36-1.65,4.36-4.54v-5.68h-2.04v5.76Z"/><polygon points="161.69 188.77 159.4 181.85 157.74 181.85 155.45 188.77 153.23 181.86 151.05 181.86 154.56 191.92 156.25 191.92 158.54 185.31 160.83 191.92 162.54 191.92 166.04 181.86 163.92 181.86 161.69 188.77"/><polygon points="169.7 187.59 173.42 187.59 173.42 185.75 169.7 185.75 169.7 183.69 175.09 183.69 175.09 181.86 167.69 181.86 167.69 191.91 175.29 191.91 175.29 190.08 169.7 190.08 169.7 187.59"/><rect x="177.72" y="181.85" width="2.02" height="10.05"/><path d="M148.77,189.82l.9,2.1h2.14l-4.42-10.06h-1.8l-4.44,10.06h2.09l.92-2.1h4.61Zm-2.31-5.42l1.55,3.6h-3.09l1.54-3.6Z"/></g></g></g></g><path class="cls-9" d="M417.77,563.08h1.72l6.3,9.59c-.05-.87-.07-1.66-.07-2.37v-7.23h1.44v11.63h-1.66l-6.39-9.73c.03,.39,.05,.85,.07,1.39,.02,.53,.03,1.01,.03,1.43v6.92h-1.43v-11.63Z"/><g><line class="cls-3" x1="406.76" y1="51.04" x2="438.6" y2="51.04"/><line class="cls-3" x1="406.76" y1="111.84" x2="438.6" y2="111.84"/><line class="cls-3" x1="406.76" y1="172.64" x2="438.6" y2="172.64"/><line class="cls-3" x1="406.76" y1="233.44" x2="438.6" y2="233.44"/><line class="cls-3" x1="406.76" y1="295.64" x2="438.6" y2="295.64"/><line class="cls-3" x1="406.76" y1="355.03" x2="438.6" y2="355.03"/><line class="cls-3" x1="406.76" y1="415.83" x2="438.6" y2="415.83"/><line class="cls-3" x1="406.76" y1="476.63" x2="438.6" y2="476.63"/><line class="cls-3" x1="406.76" y1="537.43" x2="438.6" y2="537.43"/><line class="cls-3" x1="406.76" y1="598.23" x2="438.6" y2="598.23"/><line class="cls-3" x1="406.76" y1="659.03" x2="443.07" y2="659.03"/></g><text class="cls-10" transform="translate(451.29 151.07)"><tspan x="0" y="0">1.6N</tspan></text><line class="cls-2" x1="445.27" y1="147.69" x2="31.68" y2="147.69"/><text class="cls-10" transform="translate(451.29 304.29)"><tspan x="0" y="0">4.1N</tspan></text><line class="cls-2" x1="445.27" y1="299.44" x2="49.82" y2="299.44"/><line class="cls-1" x1="305.24" y1="37.21" x2="305.24" y2="80.11"/><g><line class="cls-5" x1=".69" y1="27.1" x2=".69" y2="51.13"/><line class="cls-5" x1="102.21" y1="29.08" x2="102.21" y2="51.13"/><line class="cls-5" x1="203.72" y1="29.08" x2="203.72" y2="51.13"/><line class="cls-5" x1="305.24" y1="29.08" x2="305.24" y2="51.13"/><line class="cls-5" x1="406.76" y1="27.1" x2="406.76" y2="51.13"/></g><rect class="cls-6" x=".69" y="50.6" width="406.07" height="609.11"/><text class="cls-10" transform="translate(443.68 63.08)"><tspan x="0" y="0">2X</tspan></text><text class="cls-10" transform="translate(448.83 78.34)"><tspan x="0" y="0">X</tspan></text><polyline class="cls-1" points="382.71 68.94 436.58 68.94 436.58 78.34 382.71 78.34"/><polyline class="cls-1" points="382.71 51.13 436.58 51.13 436.58 68.94 382.71 68.94"/><rect class="cls-8" x="388.2" y="50.54" width="18.4" height="18.4"/><text class="cls-10" transform="translate(388.15 29.28)"><tspan x="0" y="0">2X</tspan></text><polyline class="cls-1" points="388.2 69.45 388.2 35.32 406.76 35.32 406.76 69.45"/><text class="cls-10" transform="translate(175.91 11.7)"><tspan x="0" y="0">Centered</tspan></text><line class="cls-1" x1="203.72" y1="659.72" x2="203.72" y2="22.23"/><rect class="cls-8" x="388.37" y="641.26" width="18.4" height="18.4"/><text class="cls-10" transform="translate(443.07 655.85)"><tspan x="0" y="0">2X</tspan></text><text class="cls-10" transform="translate(386.9 692.29)"><tspan x="0" y="0">2X</tspan></text><polyline class="cls-1" points="384.14 659.72 435.44 659.72 435.44 641.26 384.14 641.26"/><polyline class="cls-1" points="388.37 634.12 388.37 678.67 406.77 678.67 406.77 634.12"/><text class="cls-10" transform="translate(182.53 682.5)"><tspan x="0" y="0">76% W</tspan></text><text class="cls-10" transform="translate(180.06 238.62)"><tspan x="0" y="0">84% W</tspan></text><g><g><line class="cls-4" x1="374.29" y1="235.85" x2="225.68" y2="235.85"/><line class="cls-4" x1="176.6" y1="235.85" x2="31.51" y2="235.85"/></g><g><line class="cls-2" x1="374.29" y1="148.79" x2="374.29" y2="245.18"/><line class="cls-2" x1="31.51" y1="148.79" x2="31.51" y2="245.18"/></g></g><g><g><line class="cls-4" x1="360.91" y1="679.74" x2="234.26" y2="679.74"/><line class="cls-4" x1="173.28" y1="679.74" x2="49.82" y2="679.74"/></g><line class="cls-2" x1="360.91" y1="299.44" x2="360.91" y2="687.33"/></g><line class="cls-2" x1="49.82" y1="299.44" x2="49.82" y2="687.33"/></svg>