<?xml version="1.0" encoding="UTF-8"?><svg id="_层_1" xmlns="http://www.w3.org/2000/svg" xmlns:xlink="http://www.w3.org/1999/xlink" viewBox="0 0 1104.21 619.28"><defs><style>.cls-1,.cls-2,.cls-3,.cls-4,.cls-5{fill:none;}.cls-6{fill:#717071;}.cls-7{fill:#e4007f;font-family:FZLTZHJW--GB1-0, 'FZLTZHJW -GB1-0';font-size:12.57px;}.cls-2{stroke:#e4007f;stroke-dasharray:0 2.2;stroke-width:.79px;}.cls-2,.cls-3,.cls-4,.cls-5{stroke-miterlimit:10;}.cls-8{opacity:.4;}.cls-3,.cls-4,.cls-5{stroke:#717071;stroke-width:.93px;}.cls-4{stroke-dasharray:0 0 2.59 2.59;}.cls-5{stroke-dasharray:0 0 2.58 2.58;}</style></defs><image width="7874" height="4429" transform="translate(64.9 45.04) scale(.13)" xlink:href="../../问界F1A_KV_蓝车_HQ_KV Guideline_CN_0520文件夹(_F)/Links/问界F1A_KV_蓝车_HQ_2_1_AI_RGB_20240824-02.jpg"/><rect class="cls-1" x="64.43" y="44.95" width="1020.21" height="573.87"/><g><path class="cls-6" d="M1095.9,46.27c.8-.51,1.96-.76,3.47-.76s2.73,.26,3.58,.78c.84,.52,1.26,1.3,1.26,2.35s-.4,1.78-1.19,2.29c-.79,.5-1.95,.75-3.47,.75s-2.74-.26-3.58-.78c-.84-.52-1.27-1.31-1.27-2.36s.4-1.77,1.2-2.28Zm.74,3.75c.66,.31,1.61,.46,2.86,.46s2.12-.14,2.77-.43c.66-.29,.98-.76,.98-1.42,0-1.27-1.3-1.9-3.89-1.9-1.21,0-2.13,.14-2.77,.43-.64,.29-.95,.76-.95,1.41s.33,1.14,.98,1.45Z"/><path class="cls-6" d="M1102.93,101.44l-1.16-1.78,.87-.49,1.5,2.33v1.12h-9.3v-1.19h8.1Z"/><path class="cls-6" d="M1095.7,158.4l.9,.98c.87,.93,1.56,1.63,2.04,2.1,.49,.46,.97,.82,1.43,1.07,.46,.25,.94,.38,1.43,.38,.58,0,1.02-.17,1.31-.49,.29-.33,.43-.75,.43-1.27,0-.42-.09-.81-.27-1.18-.18-.36-.44-.71-.78-1.05l.89-.47c.35,.34,.62,.74,.83,1.22,.2,.47,.3,1,.3,1.58,0,.52-.1,1-.3,1.43-.2,.43-.51,.78-.91,1.04-.4,.26-.89,.39-1.46,.39s-1.09-.14-1.61-.43c-.53-.29-1.05-.68-1.57-1.18s-1.19-1.18-2-2.06l-.5-.55v4.61l-1.02-.13v-6h.87Z"/><path class="cls-6" d="M1094.92,216.13c.14-.51,.36-.95,.63-1.34l1.01,.37c-.27,.35-.49,.74-.65,1.17-.16,.43-.24,.87-.24,1.32s.07,.8,.22,1.1c.14,.3,.35,.53,.61,.69,.26,.15,.56,.23,.89,.23,.54,0,.96-.2,1.27-.6,.31-.4,.46-.97,.46-1.73v-.97h.95v.66c0,.45,.07,.84,.22,1.18,.15,.33,.36,.59,.62,.77,.26,.18,.57,.27,.92,.27,.43,0,.78-.14,1.04-.42s.38-.66,.38-1.14c0-.43-.09-.84-.28-1.22-.19-.39-.4-.7-.64-.95l.87-.4c.29,.32,.53,.71,.72,1.16,.19,.46,.29,.97,.29,1.53s-.09,1.01-.28,1.41c-.19,.4-.45,.72-.79,.93-.34,.22-.73,.33-1.18,.33-.57,0-1.05-.18-1.44-.53-.4-.35-.66-.82-.81-1.4-.1,.69-.35,1.24-.75,1.67-.4,.43-.94,.64-1.62,.64-.52,0-.99-.13-1.38-.4s-.7-.64-.92-1.12c-.22-.49-.33-1.05-.33-1.69,0-.52,.07-1.04,.22-1.54Z"/><path class="cls-6" d="M1096.92,275.16v-4.29h.88l6.37,4.3v1.18h-6.26v1.38l-.99-.16v-1.21h-2.09v-1.19h2.09Zm.99,0h4.72l-4.72-3.17v3.17Z"/><path class="cls-6" d="M1095.56,327.57l.97,.36c-.25,.32-.46,.68-.62,1.09-.16,.41-.24,.85-.24,1.31,0,.43,.09,.81,.26,1.12,.17,.31,.41,.54,.72,.7,.31,.16,.68,.23,1.09,.23,.62,0,1.09-.19,1.42-.57,.32-.39,.48-.93,.48-1.63,0-.41-.04-.8-.12-1.15-.08-.36-.17-.68-.28-.97l4.84,.37v4.67l-1.02-.13v-3.62l-2.68-.22c.13,.41,.19,.86,.19,1.34,0,.58-.1,1.11-.31,1.59-.21,.47-.52,.85-.94,1.13-.42,.28-.94,.41-1.54,.41s-1.16-.13-1.62-.4c-.46-.27-.82-.65-1.07-1.14-.25-.49-.38-1.06-.38-1.71,0-1.1,.29-2.03,.86-2.79Z"/><path class="cls-6" d="M1095.22,388.97c.34-.49,.85-.87,1.54-1.14,.68-.27,1.51-.4,2.49-.4,1.08,0,1.99,.15,2.73,.46,.74,.31,1.3,.74,1.67,1.3,.37,.56,.56,1.23,.56,1.99,0,.84-.21,1.55-.63,2.12l-.93-.32c.19-.22,.34-.49,.45-.82,.11-.32,.17-.65,.17-.98,0-.76-.29-1.37-.86-1.82-.58-.45-1.44-.7-2.6-.75,.29,.27,.52,.61,.69,1.04,.17,.43,.26,.88,.26,1.35,0,.52-.11,.97-.34,1.35-.23,.39-.55,.69-.98,.91-.43,.21-.94,.32-1.53,.32-.64,0-1.21-.12-1.69-.37-.48-.24-.85-.59-1.12-1.03-.26-.44-.39-.95-.39-1.52,0-.65,.17-1.22,.52-1.7Zm.69,2.58c.17,.26,.42,.46,.76,.61,.33,.15,.74,.23,1.22,.23,.63,0,1.11-.14,1.43-.42,.32-.28,.48-.69,.48-1.24,0-.43-.09-.83-.27-1.2-.18-.37-.4-.67-.65-.91-.72,0-1.32,.1-1.8,.29-.49,.19-.84,.44-1.07,.75-.23,.31-.35,.65-.35,1.03,0,.32,.09,.61,.26,.87Z"/><path class="cls-6" d="M1103.09,448.6v-4.83l.99,.13v6.11l-.71-.13-8.54-3.58v-1.26l8.26,3.55Z"/><path class="cls-6" d="M1098.9,506c-.4,.3-.89,.45-1.47,.45-.52,0-.98-.13-1.4-.38-.42-.26-.74-.62-.98-1.1-.23-.48-.35-1.04-.35-1.67s.11-1.22,.34-1.69c.23-.47,.53-.83,.93-1.07,.39-.24,.84-.36,1.33-.36,.59,0,1.09,.15,1.5,.46,.4,.31,.73,.77,.96,1.39,.52-.97,1.26-1.46,2.22-1.46,.41,0,.78,.11,1.12,.34,.34,.23,.61,.55,.81,.97,.2,.42,.3,.9,.3,1.46s-.09,1.01-.28,1.42c-.19,.41-.45,.74-.78,.97-.34,.23-.71,.35-1.14,.35-.46,0-.87-.13-1.23-.39-.36-.26-.66-.62-.88-1.09-.27,.63-.6,1.1-1,1.41Zm-3.07-1.58c.15,.29,.36,.51,.62,.65,.26,.14,.56,.21,.9,.21,.5,0,.93-.19,1.28-.56,.35-.38,.6-.97,.75-1.77-.39-1.07-1.07-1.61-2.05-1.61-.32,0-.61,.08-.87,.22-.26,.15-.47,.37-.62,.66-.15,.29-.23,.66-.23,1.09s.07,.8,.23,1.09Zm7.29-1.93c-.12-.25-.28-.43-.49-.57-.21-.13-.44-.2-.7-.2-.4,0-.75,.14-1.04,.42-.29,.28-.52,.75-.68,1.4,.37,.93,.93,1.4,1.67,1.4,.46,0,.81-.14,1.05-.43,.24-.29,.36-.68,.36-1.15,0-.33-.06-.62-.17-.87Z"/><path class="cls-6" d="M1095.33,560.18l.93,.32c-.19,.23-.34,.5-.45,.81-.11,.31-.16,.64-.16,.99,0,.77,.29,1.38,.85,1.82,.57,.44,1.44,.69,2.61,.75-.28-.27-.51-.61-.68-1.04-.17-.43-.26-.87-.26-1.34,0-.52,.11-.98,.34-1.37s.55-.69,.98-.91c.43-.21,.94-.32,1.54-.32,.64,0,1.2,.12,1.68,.37,.48,.24,.85,.59,1.12,1.03,.26,.44,.39,.95,.39,1.53,0,.65-.17,1.21-.52,1.7-.34,.49-.86,.87-1.54,1.14-.69,.27-1.53,.41-2.54,.41-1.07,0-1.97-.15-2.7-.46-.73-.31-1.28-.75-1.66-1.32-.37-.57-.56-1.24-.56-2.02,0-.83,.21-1.53,.63-2.1Zm4.06,3.78c.18,.37,.4,.68,.66,.92,.72,0,1.32-.1,1.81-.29,.48-.19,.84-.44,1.07-.75,.23-.31,.35-.65,.35-1.03,0-.32-.09-.62-.26-.88-.17-.26-.42-.46-.76-.61-.34-.15-.74-.22-1.21-.22-.63,0-1.11,.14-1.43,.42-.32,.29-.48,.7-.48,1.24,0,.43,.09,.83,.27,1.2Z"/><path class="cls-6" d="M1102.93,605.94l-1.16-1.78,.87-.49,1.5,2.33v1.12h-9.3v-1.19h8.1Z"/><path class="cls-6" d="M1095.9,610.43c.8-.51,1.96-.76,3.47-.76s2.73,.26,3.58,.78c.84,.52,1.26,1.31,1.26,2.36s-.4,1.78-1.19,2.28c-.79,.5-1.95,.76-3.47,.76s-2.74-.26-3.58-.78c-.84-.52-1.27-1.31-1.27-2.36s.4-1.78,1.2-2.28Zm.74,3.75c.66,.31,1.61,.46,2.86,.46s2.12-.14,2.77-.43c.66-.29,.98-.76,.98-1.42,0-1.27-1.3-1.9-3.89-1.9-1.21,0-2.13,.14-2.77,.43-.64,.29-.95,.76-.95,1.41s.33,1.14,.98,1.44Z"/></g><g><path class="cls-6" d="M62.81,33.04c-.51-.8-.76-1.96-.76-3.47s.26-2.73,.78-3.58c.52-.84,1.31-1.26,2.35-1.26s1.78,.4,2.29,1.19c.5,.79,.76,1.95,.76,3.47s-.26,2.74-.78,3.58c-.52,.84-1.31,1.27-2.36,1.27s-1.77-.4-2.28-1.2Zm3.75-.74c.31-.66,.46-1.61,.46-2.86s-.14-2.12-.43-2.77c-.29-.66-.76-.98-1.42-.98-1.27,0-1.9,1.3-1.9,3.89,0,1.21,.14,2.13,.43,2.77,.29,.64,.76,.95,1.41,.95s1.14-.33,1.45-.98Z"/><path class="cls-6" d="M114.76,26.02l-1.78,1.16-.49-.87,2.33-1.5h1.12v9.3h-1.19v-8.1Z"/><path class="cls-6" d="M165.74,33.25l.98-.9c.93-.87,1.63-1.56,2.1-2.04s.82-.97,1.07-1.43c.25-.46,.38-.94,.38-1.43,0-.58-.16-1.02-.49-1.31-.33-.29-.75-.43-1.27-.43-.42,0-.81,.09-1.17,.27-.36,.18-.71,.44-1.05,.78l-.47-.89c.34-.35,.74-.62,1.22-.83,.47-.2,1-.3,1.58-.3,.52,0,1,.1,1.43,.3,.43,.2,.78,.51,1.04,.91,.26,.4,.39,.89,.39,1.46s-.14,1.09-.43,1.61c-.29,.53-.68,1.05-1.18,1.57-.49,.52-1.18,1.19-2.06,2l-.55,.5h4.61l-.13,1.02h-6v-.87Z"/><path class="cls-6" d="M216.92,34.03c-.51-.14-.95-.36-1.34-.63l.37-1.01c.35,.27,.74,.49,1.17,.65,.43,.16,.87,.24,1.32,.24s.8-.07,1.09-.22c.3-.14,.53-.35,.69-.61,.15-.26,.23-.56,.23-.89,0-.54-.2-.96-.59-1.27-.4-.31-.97-.46-1.73-.46h-.97v-.95h.66c.45,0,.84-.07,1.18-.22,.33-.15,.59-.36,.77-.62,.18-.26,.27-.57,.27-.92,0-.43-.14-.78-.42-1.04s-.66-.38-1.14-.38c-.43,0-.83,.09-1.22,.28-.39,.19-.7,.4-.95,.64l-.4-.87c.32-.29,.71-.53,1.17-.72,.46-.19,.97-.29,1.53-.29s1.01,.09,1.41,.28c.4,.19,.72,.45,.94,.79,.22,.34,.33,.73,.33,1.18,0,.57-.18,1.05-.53,1.44-.35,.4-.82,.66-1.4,.81,.69,.1,1.24,.35,1.67,.75,.43,.4,.64,.94,.64,1.62,0,.52-.13,.99-.4,1.38s-.64,.7-1.12,.92c-.49,.22-1.05,.33-1.69,.33-.52,0-1.03-.07-1.54-.22Z"/><path class="cls-6" d="M269.41,32.03h-4.29v-.88l4.3-6.37h1.18v6.26h1.37l-.16,.99h-1.21v2.09h-1.19v-2.09Zm0-.99v-4.72l-3.18,4.72h3.18Z"/><path class="cls-6" d="M315.28,33.39l.36-.97c.32,.25,.68,.46,1.09,.62,.41,.16,.85,.24,1.31,.24,.43,0,.81-.09,1.12-.26,.31-.17,.54-.41,.7-.72,.16-.31,.24-.68,.24-1.09,0-.62-.19-1.09-.58-1.42-.39-.32-.93-.48-1.63-.48-.41,0-.79,.04-1.15,.11-.36,.08-.68,.17-.97,.28l.37-4.84h4.67l-.13,1.02h-3.62l-.22,2.68c.41-.13,.86-.19,1.34-.19,.58,0,1.11,.1,1.59,.31,.48,.21,.85,.52,1.13,.94,.28,.42,.42,.94,.42,1.54s-.13,1.16-.4,1.62c-.27,.46-.65,.82-1.14,1.07-.49,.25-1.06,.38-1.71,.38-1.1,0-2.03-.29-2.79-.86Z"/><path class="cls-6" d="M366.81,33.73c-.49-.34-.87-.85-1.14-1.54-.27-.68-.41-1.51-.41-2.49,0-1.08,.15-1.99,.46-2.73,.31-.74,.74-1.3,1.3-1.67,.56-.37,1.23-.56,1.99-.56,.84,0,1.55,.21,2.12,.63l-.32,.93c-.22-.19-.49-.34-.82-.45-.32-.11-.65-.17-.99-.17-.76,0-1.37,.29-1.82,.86-.45,.58-.7,1.44-.75,2.6,.27-.29,.62-.52,1.04-.69,.43-.17,.88-.26,1.35-.26,.52,0,.97,.11,1.36,.34,.39,.23,.69,.55,.91,.98,.21,.43,.32,.94,.32,1.53,0,.64-.12,1.21-.37,1.69s-.59,.85-1.03,1.12c-.44,.26-.95,.39-1.52,.39-.65,0-1.22-.17-1.7-.52Zm2.58-.69c.26-.17,.46-.42,.61-.76,.15-.33,.22-.74,.22-1.22,0-.63-.14-1.11-.42-1.43-.28-.32-.69-.48-1.24-.48-.43,0-.83,.09-1.2,.27-.37,.18-.68,.4-.91,.65,0,.72,.1,1.32,.29,1.8,.19,.49,.44,.84,.75,1.07,.31,.23,.65,.35,1.03,.35,.32,0,.61-.09,.87-.26Z"/><path class="cls-6" d="M423.78,25.85h-4.82l.13-.99h6.11l-.13,.71-3.58,8.54h-1.26l3.55-8.26Z"/><path class="cls-6" d="M474.63,30.05c.3,.4,.45,.89,.45,1.47,0,.52-.13,.98-.38,1.4-.25,.42-.62,.74-1.09,.98-.48,.23-1.03,.35-1.67,.35s-1.22-.11-1.69-.34c-.47-.23-.82-.53-1.07-.93-.24-.39-.36-.84-.36-1.33,0-.59,.15-1.09,.46-1.5,.31-.4,.77-.73,1.39-.96-.97-.52-1.46-1.26-1.46-2.22,0-.41,.11-.78,.34-1.12,.23-.34,.55-.61,.97-.81,.42-.2,.9-.3,1.46-.3s1.01,.09,1.42,.28c.41,.19,.74,.45,.97,.78,.23,.34,.35,.71,.35,1.14,0,.46-.13,.87-.39,1.23-.26,.36-.62,.66-1.1,.88,.63,.27,1.1,.6,1.41,1Zm-1.58,3.07c.29-.15,.51-.36,.65-.62,.14-.26,.22-.56,.22-.9,0-.5-.19-.93-.56-1.28-.38-.35-.97-.6-1.77-.75-1.07,.39-1.6,1.07-1.6,2.05,0,.32,.07,.61,.22,.87,.15,.26,.37,.47,.66,.62,.3,.15,.66,.23,1.09,.23s.8-.07,1.1-.23Zm-1.93-7.29c-.25,.12-.44,.28-.57,.49-.13,.21-.2,.44-.2,.7,0,.4,.14,.75,.42,1.04,.28,.29,.75,.52,1.4,.68,.93-.37,1.4-.93,1.4-1.67,0-.46-.15-.81-.44-1.05-.29-.24-.68-.36-1.15-.36-.33,0-.62,.06-.87,.17Z"/><path class="cls-6" d="M518.95,33.62l.32-.93c.23,.19,.5,.34,.81,.45,.31,.11,.64,.16,.99,.16,.77,0,1.38-.29,1.83-.85,.44-.57,.69-1.44,.75-2.61-.27,.28-.62,.51-1.04,.68-.43,.17-.87,.26-1.34,.26-.52,0-.98-.11-1.37-.34s-.7-.55-.91-.98c-.22-.43-.32-.94-.32-1.54,0-.64,.12-1.2,.37-1.68,.24-.48,.59-.85,1.03-1.12,.44-.26,.95-.39,1.53-.39,.65,0,1.21,.17,1.7,.52,.49,.34,.87,.86,1.14,1.54,.27,.69,.41,1.53,.41,2.54,0,1.07-.15,1.97-.46,2.7-.31,.73-.74,1.28-1.31,1.66-.57,.37-1.24,.56-2.02,.56-.83,0-1.53-.21-2.1-.63Zm3.79-4.06c.37-.18,.68-.4,.92-.66,0-.72-.1-1.32-.29-1.81-.19-.48-.44-.84-.75-1.07-.31-.23-.65-.35-1.03-.35-.32,0-.62,.09-.88,.26-.26,.17-.46,.42-.61,.76-.15,.34-.22,.74-.22,1.21,0,.63,.14,1.11,.42,1.43,.28,.32,.7,.48,1.24,.48,.43,0,.83-.09,1.2-.27Z"/><path class="cls-6" d="M567.57,26.02l-1.78,1.16-.49-.87,2.33-1.5h1.12v9.3h-1.19v-8.1Z"/><path class="cls-6" d="M572.62,33.04c-.51-.8-.76-1.96-.76-3.47s.26-2.73,.78-3.58c.52-.84,1.31-1.26,2.35-1.26s1.78,.4,2.29,1.19c.5,.79,.76,1.95,.76,3.47s-.26,2.74-.78,3.58c-.52,.84-1.31,1.27-2.36,1.27s-1.77-.4-2.28-1.2Zm3.75-.74c.31-.66,.46-1.61,.46-2.86s-.15-2.12-.43-2.77c-.29-.66-.76-.98-1.42-.98-1.27,0-1.9,1.3-1.9,3.89,0,1.21,.14,2.13,.43,2.77,.29,.64,.76,.95,1.41,.95s1.14-.33,1.45-.98Z"/><path class="cls-6" d="M620.69,26.02l-1.78,1.16-.49-.87,2.33-1.5h1.12v9.3h-1.19v-8.1Z"/><path class="cls-6" d="M627.81,26.02l-1.78,1.16-.49-.87,2.33-1.5h1.12v9.3h-1.19v-8.1Z"/><path class="cls-6" d="M673.8,26.02l-1.78,1.16-.49-.87,2.33-1.5h1.12v9.3h-1.19v-8.1Z"/><path class="cls-6" d="M678.13,33.25l.98-.9c.93-.87,1.63-1.56,2.1-2.04s.82-.97,1.07-1.43c.25-.46,.38-.94,.38-1.43,0-.58-.16-1.02-.49-1.31-.33-.29-.75-.43-1.27-.43-.42,0-.81,.09-1.17,.27s-.71,.44-1.05,.78l-.47-.89c.34-.35,.74-.62,1.22-.83,.47-.2,1-.3,1.58-.3,.52,0,1,.1,1.43,.3,.43,.2,.78,.51,1.04,.91,.26,.4,.39,.89,.39,1.46s-.14,1.09-.43,1.61c-.29,.53-.68,1.05-1.18,1.57-.49,.52-1.18,1.19-2.06,2l-.55,.5h4.61l-.13,1.02h-6v-.87Z"/><path class="cls-6" d="M723.03,26.02l-1.78,1.16-.49-.87,2.33-1.5h1.12v9.3h-1.19v-8.1Z"/><path class="cls-6" d="M728.66,34.03c-.51-.14-.95-.36-1.34-.63l.37-1.01c.35,.27,.74,.49,1.17,.65,.43,.16,.87,.24,1.32,.24s.8-.07,1.1-.22c.3-.14,.53-.35,.69-.61,.15-.26,.23-.56,.23-.89,0-.54-.2-.96-.59-1.27-.4-.31-.97-.46-1.73-.46h-.97v-.95h.66c.45,0,.84-.07,1.18-.22,.33-.15,.59-.36,.77-.62,.18-.26,.27-.57,.27-.92,0-.43-.14-.78-.42-1.04s-.66-.38-1.14-.38c-.43,0-.83,.09-1.22,.28-.39,.19-.7,.4-.95,.64l-.4-.87c.32-.29,.71-.53,1.17-.72,.46-.19,.97-.29,1.53-.29s1.01,.09,1.41,.28c.4,.19,.72,.45,.94,.79,.22,.34,.33,.73,.33,1.18,0,.57-.18,1.05-.53,1.44-.35,.4-.82,.66-1.4,.81,.69,.1,1.24,.35,1.67,.75,.43,.4,.64,.94,.64,1.62,0,.52-.13,.99-.4,1.38-.26,.4-.64,.7-1.12,.92-.49,.22-1.05,.33-1.69,.33-.52,0-1.03-.07-1.54-.22Z"/><path class="cls-6" d="M775.1,26.02l-1.78,1.16-.49-.87,2.33-1.5h1.12v9.3h-1.19v-8.1Z"/><path class="cls-6" d="M783.33,32.03h-4.29v-.88l4.3-6.37h1.18v6.26h1.37l-.16,.99h-1.21v2.09h-1.19v-2.09Zm0-.99v-4.72l-3.18,4.72h3.18Z"/><path class="cls-6" d="M824.32,26.02l-1.78,1.16-.49-.87,2.33-1.5h1.12v9.3h-1.19v-8.1Z"/><path class="cls-6" d="M828.55,33.39l.36-.97c.32,.25,.68,.46,1.09,.62,.41,.16,.85,.24,1.31,.24,.43,0,.81-.09,1.12-.26,.31-.17,.54-.41,.7-.72,.16-.31,.24-.68,.24-1.09,0-.62-.19-1.09-.58-1.42-.39-.32-.93-.48-1.63-.48-.41,0-.79,.04-1.15,.11-.36,.08-.68,.17-.97,.28l.37-4.84h4.67l-.13,1.02h-3.62l-.22,2.68c.41-.13,.86-.19,1.34-.19,.58,0,1.11,.1,1.59,.31s.85,.52,1.13,.94c.28,.42,.42,.94,.42,1.54s-.13,1.16-.4,1.62c-.27,.46-.65,.82-1.14,1.07-.49,.25-1.06,.38-1.71,.38-1.1,0-2.03-.29-2.79-.86Z"/><path class="cls-6" d="M876.13,26.02l-1.78,1.16-.49-.87,2.33-1.5h1.12v9.3h-1.19v-8.1Z"/><path class="cls-6" d="M882.01,33.73c-.49-.34-.87-.85-1.14-1.54-.27-.68-.41-1.51-.41-2.49,0-1.08,.15-1.99,.46-2.73,.31-.74,.74-1.3,1.3-1.67,.56-.37,1.23-.56,1.99-.56,.84,0,1.55,.21,2.12,.63l-.32,.93c-.22-.19-.49-.34-.82-.45-.32-.11-.65-.17-.99-.17-.76,0-1.37,.29-1.82,.86-.45,.58-.7,1.44-.75,2.6,.27-.29,.62-.52,1.04-.69,.43-.17,.88-.26,1.35-.26,.52,0,.97,.11,1.36,.34,.39,.23,.69,.55,.91,.98,.21,.43,.32,.94,.32,1.53,0,.64-.12,1.21-.37,1.69s-.59,.85-1.03,1.12c-.44,.26-.95,.39-1.52,.39-.65,0-1.22-.17-1.7-.52Zm2.58-.69c.26-.17,.46-.42,.61-.76,.15-.33,.22-.74,.22-1.22,0-.63-.14-1.11-.42-1.43-.28-.32-.69-.48-1.24-.48-.43,0-.83,.09-1.2,.27-.37,.18-.68,.4-.91,.65,0,.72,.1,1.32,.29,1.8,.19,.49,.44,.84,.75,1.07,.31,.23,.65,.35,1.03,.35,.32,0,.61-.09,.87-.26Z"/><path class="cls-6" d="M925.35,26.02l-1.78,1.16-.49-.87,2.33-1.5h1.12v9.3h-1.19v-8.1Z"/><path class="cls-6" d="M934.43,25.85h-4.83l.13-.99h6.11l-.13,.71-3.58,8.54h-1.26l3.55-8.26Z"/><path class="cls-6" d="M974.58,26.02l-1.78,1.16-.49-.87,2.33-1.5h1.12v9.3h-1.19v-8.1Z"/><path class="cls-6" d="M984.64,30.05c.3,.4,.45,.89,.45,1.47,0,.52-.13,.98-.38,1.4-.25,.42-.62,.74-1.1,.98-.48,.23-1.03,.35-1.67,.35s-1.22-.11-1.69-.34c-.47-.23-.82-.53-1.07-.93-.24-.39-.36-.84-.36-1.33,0-.59,.15-1.09,.46-1.5,.31-.4,.77-.73,1.39-.96-.97-.52-1.46-1.26-1.46-2.22,0-.41,.11-.78,.34-1.12,.23-.34,.55-.61,.97-.81s.9-.3,1.46-.3,1.01,.09,1.42,.28c.41,.19,.74,.45,.97,.78,.23,.34,.35,.71,.35,1.14,0,.46-.13,.87-.39,1.23s-.62,.66-1.1,.88c.63,.27,1.1,.6,1.41,1Zm-1.58,3.07c.29-.15,.51-.36,.65-.62,.14-.26,.22-.56,.22-.9,0-.5-.19-.93-.56-1.28-.38-.35-.97-.6-1.77-.75-1.07,.39-1.6,1.07-1.6,2.05,0,.32,.07,.61,.22,.87,.15,.26,.37,.47,.66,.62,.3,.15,.66,.23,1.09,.23s.8-.07,1.09-.23Zm-1.93-7.29c-.25,.12-.44,.28-.57,.49-.13,.21-.2,.44-.2,.7,0,.4,.14,.75,.42,1.04,.28,.29,.75,.52,1.4,.68,.93-.37,1.4-.93,1.4-1.67,0-.46-.15-.81-.44-1.05-.29-.24-.68-.36-1.15-.36-.33,0-.62,.06-.87,.17Z"/><path class="cls-6" d="M1027.69,26.02l-1.78,1.16-.49-.87,2.33-1.5h1.12v9.3h-1.19v-8.1Z"/><path class="cls-6" d="M1032.18,33.62l.32-.93c.23,.19,.5,.34,.81,.45,.31,.11,.64,.16,.99,.16,.77,0,1.38-.29,1.83-.85,.44-.57,.69-1.44,.75-2.61-.27,.28-.62,.51-1.04,.68-.43,.17-.87,.26-1.34,.26-.52,0-.98-.11-1.37-.34-.39-.23-.7-.55-.91-.98-.22-.43-.32-.94-.32-1.54,0-.64,.12-1.2,.37-1.68,.24-.48,.59-.85,1.03-1.12,.44-.26,.95-.39,1.53-.39,.65,0,1.21,.17,1.7,.52s.87,.86,1.14,1.54c.27,.69,.41,1.53,.41,2.54,0,1.07-.15,1.97-.46,2.7-.31,.73-.74,1.28-1.31,1.66-.57,.37-1.24,.56-2.02,.56-.83,0-1.53-.21-2.1-.63Zm3.79-4.06c.37-.18,.68-.4,.92-.66,0-.72-.1-1.32-.29-1.81-.19-.48-.44-.84-.75-1.07-.31-.23-.65-.35-1.03-.35-.32,0-.62,.09-.88,.26-.26,.17-.46,.42-.61,.76-.15,.34-.22,.74-.22,1.21,0,.63,.14,1.11,.42,1.43,.28,.32,.7,.48,1.24,.48,.43,0,.83-.09,1.2-.27Z"/><path class="cls-6" d="M1074.13,33.25l.98-.9c.93-.87,1.63-1.56,2.1-2.04s.82-.97,1.07-1.43c.25-.46,.38-.94,.38-1.43,0-.58-.16-1.02-.49-1.31-.33-.29-.75-.43-1.27-.43-.42,0-.81,.09-1.17,.27s-.71,.44-1.05,.78l-.47-.89c.34-.35,.74-.62,1.22-.83,.47-.2,1-.3,1.58-.3,.52,0,1,.1,1.43,.3,.43,.2,.78,.51,1.04,.91,.26,.4,.39,.89,.39,1.46s-.14,1.09-.43,1.61-.68,1.05-1.18,1.57c-.49,.52-1.18,1.19-2.06,2l-.55,.5h4.61l-.13,1.02h-6v-.87Z"/><path class="cls-6" d="M1081.97,33.04c-.51-.8-.76-1.96-.76-3.47s.26-2.73,.78-3.58c.52-.84,1.31-1.26,2.35-1.26s1.78,.4,2.29,1.19c.5,.79,.76,1.95,.76,3.47s-.26,2.74-.78,3.58c-.52,.84-1.31,1.27-2.36,1.27s-1.77-.4-2.28-1.2Zm3.75-.74c.31-.66,.46-1.61,.46-2.86s-.14-2.12-.43-2.77-.76-.98-1.42-.98c-1.27,0-1.9,1.3-1.9,3.89,0,1.21,.14,2.13,.43,2.77,.29,.64,.76,.95,1.41,.95s1.14-.33,1.45-.98Z"/></g><g class="cls-8"><g><line class="cls-3" x1="64.43" y1="44.95" x2="64.43" y2="618.82"/><line class="cls-3" x1="1084.66" y1="44.95" x2="64.43" y2="44.95"/><line class="cls-3" x1="1084.66" y1="618.82" x2="64.43" y2="618.82"/><line class="cls-3" x1="1084.66" y1="44.95" x2="1084.66" y2="618.82"/><g><line class="cls-3" x1="1084.66" y1="102.33" x2="1083.37" y2="102.33"/><line class="cls-5" x1="1080.79" y1="102.33" x2="67.01" y2="102.33"/><line class="cls-3" x1="65.72" y1="102.33" x2="64.43" y2="102.33"/></g><g><line class="cls-3" x1="1084.66" y1="159.72" x2="1083.37" y2="159.72"/><line class="cls-5" x1="1080.79" y1="159.72" x2="67.01" y2="159.72"/><line class="cls-3" x1="65.72" y1="159.72" x2="64.43" y2="159.72"/></g><g><line class="cls-3" x1="1084.66" y1="217.11" x2="1083.37" y2="217.11"/><line class="cls-5" x1="1080.79" y1="217.11" x2="67.01" y2="217.11"/><line class="cls-3" x1="65.72" y1="217.11" x2="64.43" y2="217.11"/></g><g><line class="cls-3" x1="1084.66" y1="274.5" x2="1083.37" y2="274.5"/><line class="cls-5" x1="1080.79" y1="274.5" x2="67.01" y2="274.5"/><line class="cls-3" x1="65.72" y1="274.5" x2="64.43" y2="274.5"/></g><g><line class="cls-3" x1="1084.66" y1="331.88" x2="1083.37" y2="331.88"/><line class="cls-5" x1="1080.79" y1="331.88" x2="67.01" y2="331.88"/><line class="cls-3" x1="65.72" y1="331.88" x2="64.43" y2="331.88"/></g><g><line class="cls-3" x1="1084.66" y1="389.27" x2="1083.37" y2="389.27"/><line class="cls-5" x1="1080.79" y1="389.27" x2="67.01" y2="389.27"/><line class="cls-3" x1="65.72" y1="389.27" x2="64.43" y2="389.27"/></g><g><line class="cls-3" x1="1084.66" y1="446.66" x2="1083.37" y2="446.66"/><line class="cls-5" x1="1080.79" y1="446.66" x2="67.01" y2="446.66"/><line class="cls-3" x1="65.72" y1="446.66" x2="64.43" y2="446.66"/></g><g><line class="cls-3" x1="1084.66" y1="504.04" x2="1083.37" y2="504.04"/><line class="cls-5" x1="1080.79" y1="504.04" x2="67.01" y2="504.04"/><line class="cls-3" x1="65.72" y1="504.04" x2="64.43" y2="504.04"/></g><g><line class="cls-3" x1="1084.66" y1="561.43" x2="1083.37" y2="561.43"/><line class="cls-5" x1="1080.79" y1="561.43" x2="67.01" y2="561.43"/><line class="cls-3" x1="65.72" y1="561.43" x2="64.43" y2="561.43"/></g><g><line class="cls-3" x1="115.44" y1="618.82" x2="115.44" y2="617.53"/><line class="cls-4" x1="115.44" y1="614.94" x2="115.44" y2="47.53"/><line class="cls-3" x1="115.44" y1="46.24" x2="115.44" y2="44.95"/></g><g><line class="cls-3" x1="166.45" y1="618.82" x2="166.45" y2="617.53"/><line class="cls-4" x1="166.45" y1="614.94" x2="166.45" y2="47.53"/><line class="cls-3" x1="166.45" y1="46.24" x2="166.45" y2="44.95"/></g><g><line class="cls-3" x1="217.47" y1="618.82" x2="217.47" y2="617.53"/><line class="cls-4" x1="217.47" y1="614.94" x2="217.47" y2="47.53"/><line class="cls-3" x1="217.47" y1="46.24" x2="217.47" y2="44.95"/></g><g><line class="cls-3" x1="268.48" y1="618.82" x2="268.48" y2="617.53"/><line class="cls-4" x1="268.48" y1="614.94" x2="268.48" y2="47.53"/><line class="cls-3" x1="268.48" y1="46.24" x2="268.48" y2="44.95"/></g><g><line class="cls-3" x1="319.49" y1="618.82" x2="319.49" y2="617.53"/><line class="cls-4" x1="319.49" y1="614.94" x2="319.49" y2="47.53"/><line class="cls-3" x1="319.49" y1="46.24" x2="319.49" y2="44.95"/></g><g><line class="cls-3" x1="370.5" y1="618.82" x2="370.5" y2="617.53"/><line class="cls-4" x1="370.5" y1="614.94" x2="370.5" y2="47.53"/><line class="cls-3" x1="370.5" y1="46.24" x2="370.5" y2="44.95"/></g><g><line class="cls-3" x1="421.51" y1="618.82" x2="421.51" y2="617.53"/><line class="cls-4" x1="421.51" y1="614.94" x2="421.51" y2="47.53"/><line class="cls-3" x1="421.51" y1="46.24" x2="421.51" y2="44.95"/></g><g><line class="cls-3" x1="472.52" y1="618.82" x2="472.52" y2="617.53"/><line class="cls-4" x1="472.52" y1="614.94" x2="472.52" y2="47.53"/><line class="cls-3" x1="472.52" y1="46.24" x2="472.52" y2="44.95"/></g><g><line class="cls-3" x1="523.54" y1="618.82" x2="523.54" y2="617.53"/><line class="cls-4" x1="523.54" y1="614.94" x2="523.54" y2="47.53"/><line class="cls-3" x1="523.54" y1="46.24" x2="523.54" y2="44.95"/></g><g><line class="cls-3" x1="574.55" y1="618.82" x2="574.55" y2="617.53"/><line class="cls-4" x1="574.55" y1="614.94" x2="574.55" y2="47.53"/><line class="cls-3" x1="574.55" y1="46.24" x2="574.55" y2="44.95"/></g><g><line class="cls-3" x1="625.56" y1="618.82" x2="625.56" y2="617.53"/><line class="cls-4" x1="625.56" y1="614.94" x2="625.56" y2="47.53"/><line class="cls-3" x1="625.56" y1="46.24" x2="625.56" y2="44.95"/></g><g><line class="cls-3" x1="676.57" y1="618.82" x2="676.57" y2="617.53"/><line class="cls-4" x1="676.57" y1="614.94" x2="676.57" y2="47.53"/><line class="cls-3" x1="676.57" y1="46.24" x2="676.57" y2="44.95"/></g><g><line class="cls-3" x1="727.58" y1="618.82" x2="727.58" y2="617.53"/><line class="cls-4" x1="727.58" y1="614.94" x2="727.58" y2="47.53"/><line class="cls-3" x1="727.58" y1="46.24" x2="727.58" y2="44.95"/></g><g><line class="cls-3" x1="778.59" y1="618.82" x2="778.59" y2="617.53"/><line class="cls-4" x1="778.59" y1="614.94" x2="778.59" y2="47.53"/><line class="cls-3" x1="778.59" y1="46.24" x2="778.59" y2="44.95"/></g><g><line class="cls-3" x1="829.6" y1="618.82" x2="829.6" y2="617.53"/><line class="cls-4" x1="829.6" y1="614.94" x2="829.6" y2="47.53"/><line class="cls-3" x1="829.6" y1="46.24" x2="829.6" y2="44.95"/></g><g><line class="cls-3" x1="880.62" y1="618.82" x2="880.62" y2="617.53"/><line class="cls-4" x1="880.62" y1="614.94" x2="880.62" y2="47.53"/><line class="cls-3" x1="880.62" y1="46.24" x2="880.62" y2="44.95"/></g><g><line class="cls-3" x1="931.63" y1="618.82" x2="931.63" y2="617.53"/><line class="cls-4" x1="931.63" y1="614.94" x2="931.63" y2="47.53"/><line class="cls-3" x1="931.63" y1="46.24" x2="931.63" y2="44.95"/></g><g><line class="cls-3" x1="982.64" y1="618.82" x2="982.64" y2="617.53"/><line class="cls-4" x1="982.64" y1="614.94" x2="982.64" y2="47.53"/><line class="cls-3" x1="982.64" y1="46.24" x2="982.64" y2="44.95"/></g><g><line class="cls-3" x1="1033.65" y1="618.82" x2="1033.65" y2="617.53"/><line class="cls-4" x1="1033.65" y1="614.94" x2="1033.65" y2="47.53"/><line class="cls-3" x1="1033.65" y1="46.24" x2="1033.65" y2="44.95"/></g></g></g><line class="cls-2" x1="1084.66" y1="44.95" x2=".03" y2="44.95"/><line class="cls-2" x1="1084.61" y1="553.02" x2="0" y2="553.02"/><line class="cls-2" x1="1084.61" y1="598.66" x2="0" y2="598.66"/><line class="cls-2" x1="1084.66" y1="618.82" x2="1084.66" y2=".77"/><line class="cls-2" x1="1059.44" y1="618.82" x2="1059.44" y2=".77"/><line class="cls-2" x1="875.94" y1="462.85" x2="875.94" y2="162.27"/><line class="cls-2" x1="1084.66" y1="73.56" x2=".03" y2="73.56"/><line class="cls-2" x1="1085.23" y1="108.07" x2=".03" y2="108.07"/><line class="cls-2" x1="1084.11" y1="468.41" x2=".04" y2="468.41"/><line class="cls-2" x1="1084.11" y1="519.62" x2=".04" y2="519.62"/><line class="cls-2" x1="877.05" y1="162.37" x2=".91" y2="162.36"/><line class="cls-2" x1="876.18" y1="462.85" x2=".04" y2="462.85"/><text class="cls-7" transform="translate(1057.39 10.81)"><tspan x="0" y="0">0.5X</tspan></text><text class="cls-7" transform="translate(18.97 316.25)"><tspan x="0" y="0">5.2Y</tspan></text><text class="cls-7" transform="translate(18.75 579.74)"><tspan x="0" y="0">0.8Y</tspan></text><text class="cls-7" transform="translate(18.75 500.7)"><tspan x="0" y="0">0.8Y</tspan></text><text class="cls-7" transform="translate(18.28 95.82)"><tspan x="0" y="0">0.6Y</tspan></text><text class="cls-7" transform="translate(18.3 64.65)"><tspan x="0" y="0">0.5Y</tspan></text></svg>