<?xml version="1.0" encoding="UTF-8"?><svg id="_层_1" xmlns="http://www.w3.org/2000/svg" xmlns:xlink="http://www.w3.org/1999/xlink" viewBox="0 0 609 768"><defs><style>.cls-1{stroke-dasharray:0 0 2.37 2.37;}.cls-1,.cls-2,.cls-3,.cls-4{fill:none;stroke-miterlimit:10;}.cls-1,.cls-3,.cls-4{stroke:#717071;stroke-width:.6px;}.cls-5{fill:#717071;}.cls-2{stroke:#e4007f;stroke-dasharray:0 0 2.38 2.38;stroke-width:.59px;}.cls-6{opacity:.4;}.cls-4{stroke-dasharray:0 0 2.38 2.38;}.cls-7{fill:#e4007f;font-family:FZLTZHJW--GB1-0, 'FZLTZHJW -GB1-0';font-size:9.52px;}</style></defs><image width="4724" height="7087" transform="translate(80.16 62.59) scale(.1)" xlink:href="../../Desktop/问界F1A_KV_蓝车_HQ_KV Guideline_CN_0520文件夹(_F)/Links/问界F1A_KV_蓝车_HQ_1_1.5_AI_RGB_20240824-02.jpg"/><line class="cls-3" x1="535.12" y1="62.02" x2="77.4" y2="62.02"/><line class="cls-3" x1="535.12" y1="748.6" x2="80.66" y2="748.6"/><line class="cls-3" x1="535.12" y1="62.02" x2="535.12" y2="748.6"/><g class="cls-6"><line class="cls-3" x1="79.82" y1="62.02" x2="79.82" y2="748.6"/><g><line class="cls-3" x1="535.07" y1="96.35" x2="533.88" y2="96.35"/><line class="cls-1" x1="531.51" y1="96.35" x2="82.2" y2="96.35"/><line class="cls-3" x1="81.01" y1="96.35" x2="79.82" y2="96.35"/></g><g><line class="cls-3" x1="535.07" y1="130.68" x2="533.88" y2="130.68"/><line class="cls-1" x1="531.51" y1="130.68" x2="82.2" y2="130.68"/><line class="cls-3" x1="81.01" y1="130.68" x2="79.82" y2="130.68"/></g><g><line class="cls-3" x1="535.07" y1="165.01" x2="533.88" y2="165.01"/><line class="cls-1" x1="531.51" y1="165.01" x2="82.2" y2="165.01"/><line class="cls-3" x1="81.01" y1="165.01" x2="79.82" y2="165.01"/></g><g><line class="cls-3" x1="535.07" y1="199.34" x2="533.88" y2="199.34"/><line class="cls-1" x1="531.51" y1="199.34" x2="82.2" y2="199.34"/><line class="cls-3" x1="81.01" y1="199.34" x2="79.82" y2="199.34"/></g><g><line class="cls-3" x1="535.07" y1="233.66" x2="533.88" y2="233.66"/><line class="cls-1" x1="531.51" y1="233.66" x2="82.2" y2="233.66"/><line class="cls-3" x1="81.01" y1="233.66" x2="79.82" y2="233.66"/></g><g><line class="cls-3" x1="535.07" y1="267.99" x2="533.88" y2="267.99"/><line class="cls-1" x1="531.51" y1="267.99" x2="82.2" y2="267.99"/><line class="cls-3" x1="81.01" y1="267.99" x2="79.82" y2="267.99"/></g><g><line class="cls-3" x1="535.07" y1="302.32" x2="533.88" y2="302.32"/><line class="cls-1" x1="531.51" y1="302.32" x2="82.2" y2="302.32"/><line class="cls-3" x1="81.01" y1="302.32" x2="79.82" y2="302.32"/></g><g><line class="cls-3" x1="535.07" y1="336.65" x2="533.88" y2="336.65"/><line class="cls-1" x1="531.51" y1="336.65" x2="82.2" y2="336.65"/><line class="cls-3" x1="81.01" y1="336.65" x2="79.82" y2="336.65"/></g><g><line class="cls-3" x1="535.07" y1="370.98" x2="533.88" y2="370.98"/><line class="cls-1" x1="531.51" y1="370.98" x2="82.2" y2="370.98"/><line class="cls-3" x1="81.01" y1="370.98" x2="79.82" y2="370.98"/></g><g><line class="cls-3" x1="535.07" y1="405.31" x2="533.88" y2="405.31"/><line class="cls-1" x1="531.51" y1="405.31" x2="82.2" y2="405.31"/><line class="cls-3" x1="81.01" y1="405.31" x2="79.82" y2="405.31"/></g><g><line class="cls-3" x1="535.07" y1="439.64" x2="533.88" y2="439.64"/><line class="cls-1" x1="531.51" y1="439.64" x2="82.2" y2="439.64"/><line class="cls-3" x1="81.01" y1="439.64" x2="79.82" y2="439.64"/></g><g><line class="cls-3" x1="535.07" y1="473.97" x2="533.88" y2="473.97"/><line class="cls-1" x1="531.51" y1="473.97" x2="82.2" y2="473.97"/><line class="cls-3" x1="81.01" y1="473.97" x2="79.82" y2="473.97"/></g><g><line class="cls-3" x1="535.07" y1="508.3" x2="533.88" y2="508.3"/><line class="cls-1" x1="531.51" y1="508.3" x2="82.2" y2="508.3"/><line class="cls-3" x1="81.01" y1="508.3" x2="79.82" y2="508.3"/></g><g><line class="cls-3" x1="535.07" y1="542.63" x2="533.88" y2="542.63"/><line class="cls-1" x1="531.51" y1="542.63" x2="82.2" y2="542.63"/><line class="cls-3" x1="81.01" y1="542.63" x2="79.82" y2="542.63"/></g><g><line class="cls-3" x1="535.07" y1="576.96" x2="533.88" y2="576.96"/><line class="cls-1" x1="531.51" y1="576.96" x2="82.2" y2="576.96"/><line class="cls-3" x1="81.01" y1="576.96" x2="79.82" y2="576.96"/></g><g><line class="cls-3" x1="535.07" y1="611.28" x2="533.88" y2="611.28"/><line class="cls-1" x1="531.51" y1="611.28" x2="82.2" y2="611.28"/><line class="cls-3" x1="81.01" y1="611.28" x2="79.82" y2="611.28"/></g><g><line class="cls-3" x1="535.07" y1="645.61" x2="533.88" y2="645.61"/><line class="cls-1" x1="531.51" y1="645.61" x2="82.2" y2="645.61"/><line class="cls-3" x1="81.01" y1="645.61" x2="79.82" y2="645.61"/></g><g><line class="cls-3" x1="535.07" y1="679.94" x2="533.88" y2="679.94"/><line class="cls-1" x1="531.51" y1="679.94" x2="82.2" y2="679.94"/><line class="cls-3" x1="81.01" y1="679.94" x2="79.82" y2="679.94"/></g><g><line class="cls-3" x1="535.07" y1="714.27" x2="533.88" y2="714.27"/><line class="cls-1" x1="531.51" y1="714.27" x2="82.2" y2="714.27"/><line class="cls-3" x1="81.01" y1="714.27" x2="79.82" y2="714.27"/></g><g><line class="cls-3" x1="121.97" y1="748.6" x2="121.97" y2="747.41"/><line class="cls-4" x1="121.97" y1="745.03" x2="121.97" y2="64.4"/><line class="cls-3" x1="121.97" y1="63.21" x2="121.97" y2="62.02"/></g><g><line class="cls-3" x1="168.59" y1="748.6" x2="168.59" y2="747.41"/><line class="cls-4" x1="168.59" y1="745.03" x2="168.59" y2="64.4"/><line class="cls-3" x1="168.59" y1="63.21" x2="168.59" y2="62.02"/></g><g><line class="cls-3" x1="216.4" y1="748.6" x2="216.4" y2="747.41"/><line class="cls-4" x1="216.4" y1="745.03" x2="216.4" y2="64.4"/><line class="cls-3" x1="216.4" y1="63.21" x2="216.4" y2="62.02"/></g><g><line class="cls-3" x1="263.35" y1="748.6" x2="263.35" y2="747.41"/><line class="cls-4" x1="263.35" y1="745.03" x2="263.35" y2="64.4"/><line class="cls-3" x1="263.35" y1="63.21" x2="263.35" y2="62.02"/></g><g><line class="cls-3" x1="310.3" y1="748.6" x2="310.3" y2="747.41"/><line class="cls-4" x1="310.3" y1="745.03" x2="310.3" y2="64.4"/><line class="cls-3" x1="310.3" y1="63.21" x2="310.3" y2="62.02"/></g><g><line class="cls-3" x1="355.58" y1="748.6" x2="355.58" y2="747.41"/><line class="cls-4" x1="355.58" y1="745.03" x2="355.58" y2="64.4"/><line class="cls-3" x1="355.58" y1="63.21" x2="355.58" y2="62.02"/></g><g><line class="cls-3" x1="403.38" y1="748.6" x2="403.38" y2="747.41"/><line class="cls-4" x1="403.38" y1="745.03" x2="403.38" y2="64.4"/><line class="cls-3" x1="403.38" y1="63.21" x2="403.38" y2="62.02"/></g><g><line class="cls-3" x1="452.01" y1="748.32" x2="452.01" y2="747.13"/><line class="cls-4" x1="452.01" y1="744.75" x2="452.01" y2="64.12"/><line class="cls-3" x1="452.01" y1="62.93" x2="452.01" y2="61.74"/></g><g><line class="cls-3" x1="493.94" y1="748.32" x2="493.94" y2="747.13"/><line class="cls-4" x1="493.94" y1="744.75" x2="493.94" y2="64.12"/><line class="cls-3" x1="493.94" y1="62.93" x2="493.94" y2="61.74"/></g></g><line class="cls-3" x1="79.82" y1="62.02" x2="79.82" y2="748.6"/><path class="cls-5" d="M75.98,48.24c-.44-.69-.66-1.69-.66-3s.22-2.37,.68-3.1c.45-.73,1.13-1.09,2.04-1.09s1.54,.34,1.98,1.03c.44,.69,.65,1.69,.65,3.01s-.23,2.37-.67,3.1c-.45,.73-1.13,1.1-2.05,1.1s-1.54-.35-1.97-1.04Zm3.25-.64c.27-.57,.4-1.39,.4-2.48s-.13-1.83-.38-2.4c-.25-.57-.66-.85-1.23-.85-1.1,0-1.64,1.12-1.64,3.36,0,1.04,.13,1.84,.38,2.39,.25,.55,.66,.83,1.22,.83s.98-.28,1.25-.85Z"/><path class="cls-5" d="M121.41,42.16l-1.54,1.01-.42-.75,2.02-1.3h.97v8.06h-1.03v-7.01Z"/><path class="cls-5" d="M163.28,48.42l.85-.78c.81-.76,1.41-1.35,1.81-1.77s.71-.84,.93-1.23c.22-.4,.33-.81,.33-1.24,0-.51-.14-.88-.43-1.13-.28-.25-.65-.37-1.1-.37-.37,0-.7,.08-1.02,.24-.31,.16-.61,.38-.91,.67l-.4-.77c.29-.3,.64-.54,1.05-.72,.41-.17,.87-.26,1.37-.26,.45,0,.86,.09,1.24,.26,.38,.18,.68,.44,.9,.79,.22,.35,.34,.77,.34,1.27s-.13,.94-.38,1.4c-.25,.46-.59,.91-1.02,1.36-.43,.45-1.02,1.03-1.79,1.73l-.48,.44h3.99l-.11,.88h-5.2v-.75Z"/><path class="cls-5" d="M214.01,49.1c-.44-.13-.83-.31-1.16-.55l.32-.87c.3,.24,.64,.42,1.01,.56,.37,.14,.76,.21,1.14,.21s.69-.06,.95-.19c.26-.13,.46-.3,.59-.53,.13-.22,.2-.48,.2-.77,0-.46-.17-.83-.51-1.1s-.84-.4-1.49-.4h-.84v-.82h.58c.39,0,.73-.06,1.02-.19,.29-.13,.51-.31,.67-.54,.16-.23,.24-.49,.24-.79,0-.38-.12-.68-.37-.9-.24-.22-.57-.33-.99-.33-.37,0-.72,.08-1.05,.24-.34,.16-.61,.35-.82,.56l-.35-.75c.28-.25,.61-.46,1.01-.63,.4-.17,.84-.25,1.32-.25s.87,.08,1.22,.24c.35,.16,.62,.39,.81,.69,.19,.29,.29,.63,.29,1.02,0,.49-.15,.91-.46,1.25-.31,.34-.71,.58-1.21,.7,.59,.09,1.08,.31,1.45,.65,.37,.35,.56,.82,.56,1.41,0,.45-.11,.85-.34,1.2s-.55,.61-.97,.8c-.42,.19-.91,.28-1.47,.28-.45,0-.89-.06-1.33-.19Z"/><path class="cls-5" d="M262.38,47.37h-3.71v-.76l3.72-5.52h1.02v5.42h1.19l-.14,.86h-1.05v1.81h-1.03v-1.81Zm0-.86v-4.09l-2.75,4.09h2.75Z"/><path class="cls-5" d="M308.12,48.54l.32-.84c.27,.22,.59,.4,.94,.53,.35,.14,.73,.21,1.13,.21,.38,0,.7-.07,.97-.22,.27-.15,.47-.36,.6-.63,.14-.27,.2-.58,.2-.95,0-.54-.17-.95-.5-1.23-.34-.28-.8-.42-1.41-.42-.35,0-.69,.03-1,.1-.31,.07-.59,.15-.84,.24l.32-4.19h4.04l-.11,.88h-3.13l-.19,2.32c.35-.11,.74-.17,1.16-.17,.51,0,.96,.09,1.37,.27s.74,.45,.98,.82c.24,.37,.36,.81,.36,1.34s-.12,1-.34,1.41c-.23,.4-.56,.71-.98,.93-.42,.22-.92,.33-1.48,.33-.95,0-1.76-.25-2.42-.74Z"/><path class="cls-5" d="M355.72,48.84c-.42-.3-.75-.74-.98-1.33-.24-.59-.35-1.31-.35-2.16,0-.93,.13-1.72,.4-2.36,.27-.64,.64-1.13,1.13-1.45s1.06-.49,1.73-.49c.73,0,1.34,.18,1.84,.54l-.28,.81c-.19-.16-.43-.29-.71-.39-.28-.1-.56-.14-.85-.14-.66,0-1.19,.25-1.57,.75-.39,.5-.61,1.25-.65,2.25,.23-.25,.53-.45,.9-.59,.37-.15,.76-.22,1.17-.22,.45,0,.84,.1,1.17,.29,.34,.2,.6,.48,.78,.85,.18,.37,.28,.81,.28,1.32,0,.56-.11,1.04-.32,1.46-.21,.42-.51,.74-.89,.97-.38,.22-.82,.34-1.32,.34-.56,0-1.05-.15-1.47-.45Zm2.24-.59c.22-.15,.4-.37,.53-.66,.13-.29,.19-.64,.19-1.05,0-.55-.12-.96-.37-1.24s-.6-.41-1.07-.41c-.37,0-.72,.08-1.04,.23s-.58,.34-.79,.56c0,.62,.09,1.14,.25,1.56,.16,.42,.38,.73,.65,.93,.27,.2,.57,.3,.89,.3,.28,0,.53-.07,.76-.22Z"/><path class="cls-5" d="M404.86,42.02h-4.18l.11-.86h5.29l-.11,.61-3.1,7.4h-1.09l3.08-7.15Z"/><path class="cls-5" d="M451.22,45.65c.26,.35,.39,.77,.39,1.27,0,.45-.11,.85-.33,1.21-.22,.36-.53,.64-.95,.85-.41,.2-.89,.31-1.44,.31s-1.06-.1-1.47-.29c-.41-.2-.71-.46-.92-.8s-.32-.72-.32-1.15c0-.51,.13-.94,.4-1.29,.27-.35,.67-.63,1.2-.84-.84-.45-1.26-1.09-1.26-1.92,0-.35,.1-.68,.29-.97,.2-.3,.47-.53,.84-.7s.78-.26,1.26-.26,.87,.08,1.23,.24c.36,.16,.64,.39,.84,.67,.2,.29,.3,.62,.3,.98,0,.4-.11,.75-.34,1.07-.22,.31-.54,.57-.95,.76,.55,.23,.96,.52,1.22,.87Zm-1.36,2.65c.25-.13,.44-.31,.56-.54,.12-.22,.19-.49,.19-.78,0-.44-.16-.8-.49-1.11-.33-.3-.84-.52-1.53-.65-.93,.34-1.39,.93-1.39,1.78,0,.28,.06,.53,.19,.76,.13,.23,.32,.41,.58,.54,.26,.13,.57,.2,.94,.2s.7-.06,.95-.2Zm-1.67-6.32c-.21,.1-.38,.24-.49,.42-.11,.18-.17,.38-.17,.61,0,.35,.12,.65,.36,.9,.24,.25,.65,.45,1.21,.59,.81-.32,1.21-.8,1.21-1.44,0-.39-.13-.7-.38-.91-.25-.21-.58-.32-.99-.32-.29,0-.54,.05-.75,.15Z"/><path class="cls-5" d="M490.07,48.74l.28-.81c.2,.17,.43,.3,.7,.39,.27,.09,.56,.14,.86,.14,.67,0,1.19-.25,1.58-.74,.38-.49,.6-1.24,.65-2.26-.23,.24-.53,.44-.9,.59-.37,.15-.75,.22-1.16,.22-.45,0-.84-.1-1.18-.29-.34-.2-.6-.48-.79-.85-.19-.37-.28-.81-.28-1.33,0-.55,.11-1.04,.32-1.46,.21-.42,.51-.74,.89-.97,.38-.22,.82-.34,1.32-.34,.56,0,1.05,.15,1.47,.45,.42,.3,.75,.74,.98,1.34,.23,.59,.35,1.33,.35,2.2,0,.93-.13,1.71-.4,2.34-.27,.63-.64,1.11-1.14,1.43-.49,.32-1.07,.48-1.74,.48-.72,0-1.33-.18-1.82-.54Zm3.28-3.51c.32-.15,.59-.34,.79-.57,0-.62-.09-1.14-.25-1.56-.16-.42-.38-.73-.65-.93-.27-.2-.57-.3-.89-.3-.28,0-.53,.07-.76,.22-.23,.15-.4,.37-.53,.66-.13,.29-.19,.64-.19,1.05,0,.55,.12,.96,.37,1.24,.25,.28,.6,.42,1.07,.42,.37,0,.72-.08,1.04-.23Z"/><g><path class="cls-5" d="M531.94,42.16l-1.54,1.01-.42-.75,2.02-1.3h.97v8.06h-1.03v-7.01Z"/><path class="cls-5" d="M536.28,48.24c-.44-.69-.66-1.69-.66-3s.23-2.37,.68-3.1c.45-.73,1.13-1.09,2.04-1.09s1.54,.34,1.98,1.03c.44,.69,.65,1.69,.65,3.01s-.22,2.37-.67,3.1-1.13,1.1-2.05,1.1-1.54-.35-1.97-1.04Zm3.25-.64c.27-.57,.4-1.39,.4-2.48s-.13-1.83-.38-2.4c-.25-.57-.66-.85-1.23-.85-1.1,0-1.64,1.12-1.64,3.36,0,1.04,.13,1.84,.38,2.39s.66,.83,1.22,.83,.98-.28,1.25-.85Z"/></g><g><path class="cls-5" d="M549.02,62.43c.69-.46,1.69-.69,3-.69s2.37,.24,3.1,.72c.73,.48,1.09,1.2,1.09,2.15s-.34,1.63-1.03,2.09c-.69,.46-1.69,.69-3.01,.69s-2.37-.24-3.1-.71c-.73-.48-1.1-1.2-1.1-2.16s.35-1.62,1.04-2.08Zm.64,3.43c.57,.28,1.39,.43,2.48,.43s1.83-.13,2.4-.4c.57-.27,.85-.7,.85-1.3,0-1.16-1.12-1.74-3.36-1.74-1.04,0-1.84,.13-2.39,.4-.55,.27-.83,.69-.83,1.29s.28,1.04,.85,1.32Z"/><path class="cls-5" d="M555.1,95.47l-1.01-1.63,.75-.44,1.3,2.14v1.03h-8.06v-1.09h7.01Z"/><path class="cls-5" d="M548.85,127.58l.78,.9c.76,.85,1.35,1.49,1.77,1.92s.84,.75,1.23,.98c.4,.23,.81,.35,1.24,.35,.51,0,.88-.15,1.13-.45,.25-.3,.37-.69,.37-1.16,0-.39-.08-.74-.24-1.07-.16-.33-.38-.65-.67-.96l.77-.43c.3,.31,.54,.68,.72,1.12,.17,.43,.26,.92,.26,1.45,0,.48-.09,.91-.26,1.31-.18,.4-.44,.72-.79,.95-.35,.24-.77,.36-1.27,.36s-.94-.13-1.4-.4-.91-.62-1.36-1.08c-.45-.45-1.03-1.08-1.73-1.89l-.44-.5v4.22l-.88-.12v-5.49h.75Z"/><path class="cls-5" d="M548.17,163.44c.13-.46,.31-.87,.55-1.23l.87,.34c-.24,.32-.42,.68-.56,1.07-.14,.4-.21,.8-.21,1.21s.06,.73,.19,1c.13,.28,.3,.48,.53,.63,.22,.14,.48,.21,.77,.21,.46,0,.83-.18,1.1-.54,.27-.36,.4-.89,.4-1.58v-.89h.82v.61c0,.41,.06,.77,.19,1.08,.13,.3,.31,.54,.54,.71,.23,.17,.49,.25,.79,.25,.38,0,.67-.13,.9-.39s.33-.61,.33-1.05c0-.39-.08-.76-.24-1.11-.16-.36-.35-.64-.56-.87l.75-.37c.25,.29,.46,.65,.63,1.07,.17,.42,.25,.89,.25,1.4s-.08,.92-.24,1.29c-.16,.37-.39,.66-.69,.86-.29,.2-.63,.3-1.02,.3-.49,0-.91-.16-1.25-.48-.34-.32-.58-.75-.7-1.28-.09,.63-.31,1.14-.65,1.53-.35,.39-.82,.59-1.41,.59-.45,0-.85-.12-1.2-.36s-.61-.58-.8-1.03c-.19-.44-.28-.96-.28-1.55,0-.48,.06-.95,.19-1.41Z"/><path class="cls-5" d="M549.9,200.49v-3.93h.76l5.52,3.94v1.08h-5.42v1.26l-.86-.15v-1.11h-1.81v-1.09h1.81Zm.86,0h4.09l-4.09-2.91v2.91Z"/><path class="cls-5" d="M548.72,231.48l.84,.33c-.22,.29-.4,.62-.53,.99-.14,.37-.21,.77-.21,1.2,0,.4,.07,.74,.22,1.02,.15,.28,.36,.5,.63,.64s.58,.22,.95,.22c.54,0,.95-.18,1.23-.53,.28-.35,.42-.85,.42-1.49,0-.37-.03-.73-.1-1.06-.07-.33-.15-.62-.24-.89l4.19,.34v4.28l-.88-.12v-3.31l-2.32-.2c.11,.37,.17,.78,.17,1.23,0,.53-.09,1.02-.27,1.45s-.45,.78-.82,1.03c-.37,.25-.81,.38-1.34,.38s-1-.12-1.41-.36c-.4-.25-.71-.59-.93-1.04s-.33-.97-.33-1.57c0-1.01,.25-1.86,.74-2.56Z"/><path class="cls-5" d="M548.43,267.66c.29-.45,.74-.8,1.33-1.04,.59-.25,1.31-.37,2.16-.37,.93,0,1.72,.14,2.36,.42,.64,.28,1.13,.68,1.45,1.19,.32,.51,.49,1.12,.49,1.83,0,.77-.18,1.42-.54,1.94l-.81-.29c.16-.2,.29-.45,.39-.75,.1-.29,.14-.59,.14-.9,0-.7-.25-1.25-.75-1.66-.5-.41-1.25-.64-2.25-.69,.25,.25,.45,.56,.59,.95,.15,.39,.22,.8,.22,1.23,0,.47-.1,.89-.29,1.24-.2,.36-.48,.63-.85,.83-.37,.19-.81,.29-1.32,.29-.56,0-1.04-.11-1.46-.34s-.74-.54-.97-.94c-.22-.41-.34-.87-.34-1.39,0-.59,.15-1.11,.45-1.56Zm.59,2.36c.15,.23,.37,.42,.66,.56,.29,.14,.64,.2,1.05,.2,.55,0,.96-.13,1.24-.39,.28-.26,.41-.64,.41-1.14,0-.39-.08-.76-.23-1.1-.15-.34-.34-.62-.56-.83-.62,0-1.14,.09-1.56,.26-.42,.17-.73,.4-.93,.68-.2,.28-.3,.6-.3,.94,0,.3,.07,.56,.22,.8Z"/><path class="cls-5" d="M555.25,305.25v-4.42l.86,.12v5.59l-.61-.12-7.4-3.28v-1.15l7.15,3.25Z"/><path class="cls-5" d="M551.62,337.29c-.35,.28-.77,.42-1.27,.42-.45,0-.85-.12-1.21-.35-.36-.23-.64-.57-.85-1-.2-.44-.31-.95-.31-1.53s.1-1.12,.29-1.55c.2-.43,.46-.75,.8-.98,.34-.22,.72-.33,1.15-.33,.51,0,.94,.14,1.29,.43,.35,.28,.63,.71,.84,1.27,.45-.89,1.09-1.33,1.92-1.33,.35,0,.68,.1,.97,.31,.29,.21,.53,.5,.7,.88s.26,.83,.26,1.33-.08,.92-.24,1.3c-.16,.38-.39,.67-.67,.89-.29,.21-.62,.32-.98,.32-.4,0-.75-.12-1.07-.35s-.57-.57-.76-1c-.23,.58-.52,1.01-.87,1.29Zm-2.65-1.44c.13,.27,.31,.47,.54,.6,.23,.13,.49,.2,.78,.2,.44,0,.8-.17,1.11-.52,.3-.35,.52-.89,.65-1.62-.34-.98-.93-1.47-1.78-1.47-.28,0-.53,.07-.76,.2-.22,.14-.41,.34-.54,.61-.13,.27-.2,.6-.2,1s.06,.74,.2,1Zm6.31-1.77c-.1-.23-.24-.4-.42-.52-.18-.12-.38-.18-.61-.18-.35,0-.65,.13-.9,.38-.25,.25-.45,.68-.59,1.28,.32,.85,.8,1.28,1.44,1.28,.39,0,.7-.13,.91-.4,.21-.27,.32-.62,.32-1.05,0-.3-.05-.57-.15-.8Z"/><path class="cls-5" d="M548.53,366.86l.81,.29c-.17,.21-.29,.46-.39,.74-.09,.28-.14,.59-.14,.91,0,.71,.25,1.26,.74,1.67,.49,.41,1.24,.64,2.26,.69-.24-.25-.44-.56-.59-.95-.15-.39-.23-.8-.23-1.22,0-.48,.1-.89,.29-1.25,.2-.36,.48-.64,.85-.83,.37-.2,.81-.29,1.33-.29,.55,0,1.04,.11,1.46,.34,.42,.22,.74,.54,.97,.94,.23,.41,.34,.87,.34,1.4,0,.59-.15,1.11-.45,1.56s-.74,.79-1.34,1.04c-.59,.25-1.33,.37-2.2,.37-.93,0-1.71-.14-2.34-.42-.63-.28-1.11-.68-1.43-1.2-.32-.52-.48-1.13-.48-1.84,0-.76,.18-1.4,.54-1.92Zm3.51,3.47c.16,.34,.34,.62,.57,.84,.62,0,1.14-.09,1.56-.27,.42-.17,.73-.4,.93-.69,.2-.28,.3-.6,.3-.94,0-.3-.07-.56-.22-.8-.15-.24-.37-.43-.66-.56-.29-.14-.64-.2-1.05-.2-.55,0-.96,.13-1.24,.39-.28,.26-.42,.64-.42,1.13,0,.39,.08,.76,.23,1.1Z"/><path class="cls-5" d="M555.1,400.42l-1.01-1.63,.75-.44,1.3,2.14v1.03h-8.06v-1.09h7.01Z"/><path class="cls-5" d="M549.02,405c.69-.46,1.69-.69,3-.69s2.37,.24,3.1,.72c.73,.48,1.09,1.2,1.09,2.15s-.34,1.63-1.03,2.09c-.69,.46-1.69,.69-3.01,.69s-2.37-.24-3.1-.71c-.73-.48-1.1-1.2-1.1-2.16s.35-1.62,1.04-2.08Zm.64,3.43c.57,.28,1.39,.43,2.48,.43s1.83-.13,2.4-.4c.57-.27,.85-.7,.85-1.3,0-1.16-1.12-1.74-3.36-1.74-1.04,0-1.84,.13-2.39,.4-.55,.27-.83,.69-.83,1.29s.28,1.04,.85,1.32Z"/><path class="cls-5" d="M555.1,434.52l-1.01-1.63,.75-.44,1.3,2.14v1.03h-8.06v-1.09h7.01Z"/><path class="cls-5" d="M555.1,441l-1.01-1.63,.75-.44,1.3,2.14v1.03h-8.06v-1.09h7.01Z"/><path class="cls-5" d="M555.1,468.62l-1.01-1.63,.75-.44,1.3,2.14v1.03h-8.06v-1.09h7.01Z"/><path class="cls-5" d="M548.85,472.55l.78,.9c.76,.85,1.35,1.49,1.77,1.92s.84,.75,1.23,.98c.4,.23,.81,.35,1.24,.35,.51,0,.88-.15,1.13-.45,.25-.3,.37-.69,.37-1.16,0-.39-.08-.74-.24-1.07-.16-.33-.38-.65-.67-.96l.77-.43c.3,.31,.54,.68,.72,1.12,.17,.43,.26,.92,.26,1.45,0,.48-.09,.91-.26,1.31-.18,.4-.44,.72-.79,.95-.35,.24-.77,.36-1.27,.36s-.94-.13-1.4-.4c-.46-.27-.91-.62-1.36-1.08-.45-.45-1.03-1.08-1.73-1.89l-.44-.5v4.22l-.88-.12v-5.49h.75Z"/><path class="cls-5" d="M555.1,502.73l-1.01-1.63,.75-.44,1.3,2.14v1.03h-8.06v-1.09h7.01Z"/><path class="cls-5" d="M548.17,507.85c.13-.46,.31-.87,.55-1.23l.87,.34c-.24,.32-.42,.68-.56,1.07-.14,.4-.21,.8-.21,1.21s.06,.73,.19,1c.13,.28,.3,.48,.53,.63,.22,.14,.48,.21,.77,.21,.46,0,.83-.18,1.1-.54,.27-.36,.4-.89,.4-1.58v-.89h.82v.61c0,.41,.06,.77,.19,1.08,.13,.3,.31,.54,.54,.71,.23,.17,.49,.25,.79,.25,.38,0,.67-.13,.9-.39,.22-.26,.33-.61,.33-1.05,0-.39-.08-.76-.24-1.11-.16-.35-.35-.64-.56-.87l.75-.37c.25,.29,.46,.65,.63,1.07,.17,.42,.25,.89,.25,1.4s-.08,.92-.24,1.29c-.16,.37-.39,.66-.69,.86-.29,.2-.63,.3-1.02,.3-.49,0-.91-.16-1.25-.48-.34-.32-.58-.75-.7-1.28-.09,.63-.31,1.14-.65,1.53-.35,.39-.82,.59-1.41,.59-.45,0-.85-.12-1.2-.36s-.61-.59-.8-1.03c-.19-.44-.28-.96-.28-1.55,0-.48,.06-.95,.19-1.41Z"/><path class="cls-5" d="M555.1,536.83l-1.01-1.63,.75-.44,1.3,2.14v1.03h-8.06v-1.09h7.01Z"/><path class="cls-5" d="M549.9,544.34v-3.93h.76l5.52,3.94v1.08h-5.42v1.26l-.86-.15v-1.11h-1.81v-1.09h1.81Zm.86,0h4.09l-4.09-2.91v2.91Z"/><path class="cls-5" d="M555.1,570.93l-1.01-1.63,.75-.44,1.3,2.14v1.03h-8.06v-1.09h7.01Z"/><path class="cls-5" d="M548.72,574.77l.84,.33c-.22,.29-.4,.62-.53,.99-.14,.37-.21,.77-.21,1.2,0,.4,.07,.74,.22,1.02,.15,.28,.36,.5,.63,.64,.27,.14,.58,.22,.95,.22,.54,0,.95-.18,1.23-.53,.28-.35,.42-.85,.42-1.49,0-.37-.03-.73-.1-1.06-.07-.33-.15-.62-.24-.89l4.19,.34v4.28l-.88-.12v-3.31l-2.32-.2c.11,.37,.17,.78,.17,1.23,0,.53-.09,1.02-.27,1.45-.18,.43-.45,.78-.82,1.03-.37,.25-.81,.38-1.34,.38s-1-.12-1.41-.36c-.4-.25-.71-.59-.93-1.04-.22-.45-.33-.97-.33-1.57,0-1.01,.25-1.86,.74-2.56Z"/><path class="cls-5" d="M555.1,605.04l-1.01-1.63,.75-.44,1.3,2.14v1.03h-8.06v-1.09h7.01Z"/><path class="cls-5" d="M548.43,610.38c.29-.45,.74-.8,1.33-1.04,.59-.25,1.31-.37,2.16-.37,.93,0,1.72,.14,2.36,.42,.64,.28,1.13,.68,1.45,1.19,.32,.51,.49,1.12,.49,1.83,0,.77-.18,1.42-.54,1.94l-.81-.29c.16-.2,.29-.45,.39-.75,.1-.29,.14-.59,.14-.9,0-.7-.25-1.25-.75-1.66-.5-.41-1.25-.64-2.25-.69,.25,.25,.45,.56,.59,.95,.15,.39,.22,.8,.22,1.23,0,.47-.1,.89-.29,1.24-.2,.36-.48,.63-.85,.83-.37,.2-.81,.29-1.32,.29-.56,0-1.04-.11-1.46-.34-.42-.22-.74-.54-.97-.94-.22-.41-.34-.87-.34-1.39,0-.59,.15-1.11,.45-1.56Zm.59,2.36c.15,.23,.37,.42,.66,.56,.29,.14,.64,.2,1.05,.2,.55,0,.96-.13,1.24-.39,.28-.26,.41-.64,.41-1.14,0-.39-.08-.76-.23-1.1-.15-.34-.34-.62-.56-.83-.62,0-1.14,.09-1.56,.26-.42,.17-.73,.4-.93,.68-.2,.28-.3,.6-.3,.94,0,.3,.07,.56,.22,.8Z"/><path class="cls-5" d="M555.1,639.14l-1.01-1.63,.75-.44,1.3,2.14v1.03h-8.06v-1.09h7.01Z"/><path class="cls-5" d="M555.25,647.41v-4.42l.86,.12v5.59l-.61-.12-7.4-3.28v-1.15l7.15,3.25Z"/><path class="cls-5" d="M555.1,673.24l-1.01-1.63,.75-.44,1.3,2.14v1.03h-8.06v-1.09h7.01Z"/><path class="cls-5" d="M551.62,682.41c-.35,.28-.77,.42-1.27,.42-.45,0-.85-.12-1.21-.35-.36-.23-.64-.57-.85-1-.2-.44-.31-.95-.31-1.53s.1-1.12,.29-1.55c.2-.43,.46-.75,.8-.98s.72-.33,1.15-.33c.51,0,.94,.14,1.29,.43,.35,.28,.63,.71,.84,1.27,.45-.89,1.09-1.33,1.92-1.33,.35,0,.68,.1,.97,.31,.29,.21,.53,.5,.7,.88,.17,.38,.26,.83,.26,1.33s-.08,.92-.24,1.3c-.16,.38-.39,.67-.67,.89-.29,.21-.62,.32-.98,.32-.4,0-.75-.12-1.07-.36-.31-.24-.57-.57-.76-1-.23,.58-.52,1.01-.87,1.29Zm-2.65-1.44c.13,.27,.31,.47,.54,.6,.23,.13,.49,.2,.78,.2,.44,0,.8-.17,1.11-.52,.3-.35,.52-.89,.65-1.62-.34-.98-.93-1.47-1.78-1.47-.28,0-.53,.07-.76,.2-.22,.14-.41,.34-.54,.61-.13,.27-.2,.6-.2,1s.06,.74,.2,1Zm6.31-1.77c-.1-.23-.24-.4-.42-.52-.18-.12-.38-.18-.61-.18-.35,0-.65,.13-.9,.38-.25,.25-.45,.68-.59,1.28,.32,.85,.8,1.28,1.44,1.28,.39,0,.7-.13,.91-.4,.21-.27,.32-.62,.32-1.05,0-.3-.05-.57-.15-.8Z"/><path class="cls-5" d="M555.1,707.35l-1.01-1.63,.75-.44,1.3,2.14v1.03h-8.06v-1.09h7.01Z"/><path class="cls-5" d="M548.53,711.42l.81,.29c-.17,.21-.29,.46-.39,.74-.09,.28-.14,.59-.14,.91,0,.71,.25,1.26,.74,1.67,.49,.41,1.24,.64,2.26,.69-.24-.25-.44-.56-.59-.95-.15-.39-.23-.8-.23-1.22,0-.48,.1-.89,.29-1.25,.2-.36,.48-.64,.85-.83,.37-.2,.81-.29,1.33-.29,.55,0,1.04,.11,1.46,.34,.42,.22,.74,.54,.97,.94,.23,.41,.34,.87,.34,1.4,0,.59-.15,1.11-.45,1.56-.3,.45-.74,.79-1.34,1.04-.59,.25-1.33,.37-2.2,.37-.93,0-1.71-.14-2.34-.42-.63-.28-1.11-.68-1.43-1.2-.32-.52-.48-1.13-.48-1.84,0-.76,.18-1.4,.54-1.92Zm3.51,3.47c.16,.34,.34,.62,.57,.84,.62,0,1.14-.09,1.56-.27,.42-.17,.73-.4,.93-.69,.2-.28,.3-.6,.3-.94,0-.3-.07-.56-.22-.8-.15-.24-.37-.43-.66-.56-.29-.14-.64-.2-1.05-.2-.55,0-.96,.13-1.24,.39-.28,.26-.42,.64-.42,1.13,0,.39,.08,.76,.23,1.1Z"/><path class="cls-5" d="M548.85,738.89l.78,.9c.76,.85,1.35,1.49,1.77,1.92,.42,.43,.84,.75,1.23,.98,.4,.23,.81,.35,1.24,.35,.51,0,.88-.15,1.13-.45,.25-.3,.37-.69,.37-1.16,0-.39-.08-.75-.24-1.07s-.38-.65-.67-.96l.77-.43c.3,.31,.54,.68,.72,1.12,.17,.43,.26,.92,.26,1.45,0,.48-.09,.91-.26,1.31-.18,.4-.44,.72-.79,.95-.35,.24-.77,.36-1.27,.36s-.94-.13-1.4-.4-.91-.62-1.36-1.08-1.03-1.08-1.73-1.89l-.44-.5v4.22l-.88-.12v-5.49h.75Z"/><path class="cls-5" d="M549.02,746.04c.69-.46,1.69-.69,3-.69s2.37,.24,3.1,.72c.73,.48,1.09,1.2,1.09,2.15s-.34,1.63-1.03,2.09c-.69,.46-1.69,.69-3.01,.69s-2.37-.24-3.1-.71c-.73-.48-1.1-1.2-1.1-2.16s.35-1.62,1.04-2.08Zm.64,3.43c.57,.28,1.39,.43,2.48,.43s1.83-.13,2.4-.4c.57-.27,.85-.7,.85-1.3,0-1.16-1.12-1.74-3.36-1.74-1.04,0-1.84,.13-2.39,.4s-.83,.69-.83,1.29,.28,1.04,.85,1.32Z"/></g><line class="cls-2" x1="535.12" y1="39.82" x2="535.12" y2="709.77"/><line class="cls-2" x1="534.73" y1="62.02" x2="37.2" y2="62.02"/><line class="cls-2" x1="534.49" y1="594.56" x2="36.59" y2="594.56"/><line class="cls-2" x1="535.76" y1="628.09" x2="37.86" y2="628.09"/><line class="cls-2" x1="535.1" y1="667.06" x2="37.2" y2="667.06"/><line class="cls-2" x1="535.1" y1="716.8" x2="37.2" y2="716.8"/><path class="cls-2" d="M37.21,320.56H506.87s.85,180.74,0,182.1H37.21"/><line class="cls-2" x1="535.1" y1="172.18" x2="37.2" y2="172.18"/><line class="cls-2" x1="535.1" y1="213.49" x2="37.2" y2="213.49"/><line class="cls-2" x1="535.1" y1="100.79" x2="37.2" y2="100.79"/><line class="cls-2" x1="535.1" y1="79.71" x2="37.2" y2="79.71"/><line class="cls-2" x1="515.68" y1="41.95" x2="515.68" y2="750.62"/><text class="cls-7" transform="translate(43.95 197.48)"><tspan x="0" y="0">1.2Y</tspan></text><text class="cls-7" transform="translate(43.95 425.94)"><tspan x="0" y="0">5.5Y</tspan></text><text class="cls-7" transform="translate(43.95 616.47)"><tspan x="0" y="0">0.8Y</tspan></text><text class="cls-7" transform="translate(43.95 697.41)"><tspan x="0" y="0">1.5Y</tspan></text><text class="cls-7" transform="translate(43.95 75.49)"><tspan x="0" y="0">0.5Y</tspan></text><text class="cls-7" transform="translate(514 38.14)"><tspan x="0" y="0">0.5X</tspan></text><text class="cls-7" transform="translate(43.1 93.78)"><tspan x="0" y="0">0.6Y</tspan></text></svg>